<svg width="541" height="441" viewBox="0 0 541 441" fill="none" xmlns="http://www.w3.org/2000/svg">
<path d="M237.58 12.1364C236.989 12.1364 236.47 11.9957 236.024 11.7145C235.581 11.4332 235.234 11.0398 234.984 10.5341C234.737 10.0284 234.614 9.4375 234.614 8.76136C234.614 8.07955 234.737 7.48437 234.984 6.97585C235.234 6.46733 235.581 6.07244 236.024 5.79119C236.47 5.50994 236.989 5.36932 237.58 5.36932C238.17 5.36932 238.688 5.50994 239.131 5.79119C239.577 6.07244 239.923 6.46733 240.17 6.97585C240.42 7.48437 240.545 8.07955 240.545 8.76136C240.545 9.4375 240.42 10.0284 240.17 10.5341C239.923 11.0398 239.577 11.4332 239.131 11.7145C238.688 11.9957 238.17 12.1364 237.58 12.1364ZM237.58 11.233C238.028 11.233 238.398 11.1179 238.688 10.8878C238.977 10.6577 239.192 10.3551 239.331 9.98011C239.47 9.60511 239.54 9.19886 239.54 8.76136C239.54 8.32386 239.47 7.91619 239.331 7.53835C239.192 7.16051 238.977 6.85511 238.688 6.62216C238.398 6.3892 238.028 6.27273 237.58 6.27273C237.131 6.27273 236.761 6.3892 236.472 6.62216C236.182 6.85511 235.967 7.16051 235.828 7.53835C235.689 7.91619 235.619 8.32386 235.619 8.76136C235.619 9.19886 235.689 9.60511 235.828 9.98011C235.967 10.3551 236.182 10.6577 236.472 10.8878C236.761 11.1179 237.131 11.233 237.58 11.233ZM242.081 14.4545V5.45455H243.052V6.49432H243.172C243.245 6.38068 243.348 6.2358 243.478 6.05966C243.612 5.88068 243.802 5.72159 244.049 5.58239C244.299 5.44034 244.637 5.36932 245.064 5.36932C245.615 5.36932 246.1 5.5071 246.521 5.78267C246.941 6.05824 247.27 6.44886 247.505 6.95455C247.741 7.46023 247.859 8.05682 247.859 8.74432C247.859 9.4375 247.741 10.0384 247.505 10.5469C247.27 11.0526 246.943 11.4446 246.525 11.723C246.108 11.9986 245.626 12.1364 245.081 12.1364C244.66 12.1364 244.324 12.0668 244.071 11.9276C243.818 11.7855 243.623 11.625 243.487 11.446C243.35 11.2642 243.245 11.1136 243.172 10.9943H243.086V14.4545H242.081ZM243.069 8.72727C243.069 9.22159 243.142 9.65767 243.287 10.0355C243.431 10.4105 243.643 10.7045 243.922 10.9176C244.2 11.1278 244.541 11.233 244.944 11.233C245.365 11.233 245.716 11.1222 245.997 10.9006C246.281 10.6761 246.494 10.375 246.636 9.99716C246.781 9.61648 246.853 9.19318 246.853 8.72727C246.853 8.26705 246.782 7.85227 246.64 7.48295C246.501 7.1108 246.289 6.81676 246.005 6.60085C245.724 6.3821 245.37 6.27273 244.944 6.27273C244.535 6.27273 244.191 6.37642 243.913 6.58381C243.635 6.78835 243.424 7.07528 243.282 7.4446C243.14 7.81108 243.069 8.23864 243.069 8.72727ZM252.137 12.1364C251.507 12.1364 250.963 11.9972 250.505 11.7188C250.051 11.4375 249.7 11.0455 249.453 10.5426C249.208 10.0369 249.086 9.44886 249.086 8.77841C249.086 8.10795 249.208 7.51705 249.453 7.00568C249.7 6.49148 250.044 6.09091 250.484 5.80398C250.927 5.5142 251.444 5.36932 252.035 5.36932C252.376 5.36932 252.713 5.42614 253.045 5.53977C253.377 5.65341 253.68 5.83807 253.953 6.09375C254.225 6.34659 254.443 6.68182 254.605 7.09943C254.767 7.51705 254.848 8.03125 254.848 8.64205V9.06818H249.802V8.19886H253.825C253.825 7.82955 253.751 7.5 253.603 7.21023C253.458 6.92045 253.251 6.69176 252.981 6.52415C252.714 6.35653 252.399 6.27273 252.035 6.27273C251.635 6.27273 251.288 6.37216 250.995 6.57102C250.706 6.76705 250.483 7.02273 250.326 7.33807C250.17 7.65341 250.092 7.99148 250.092 8.35227V8.93182C250.092 9.42614 250.177 9.84517 250.348 10.1889C250.521 10.5298 250.761 10.7898 251.068 10.9688C251.375 11.1449 251.731 11.233 252.137 11.233C252.402 11.233 252.64 11.196 252.853 11.1222C253.069 11.0455 253.255 10.9318 253.412 10.7812C253.568 10.6278 253.689 10.4375 253.774 10.2102L254.745 10.483C254.643 10.8125 254.471 11.1023 254.23 11.3523C253.988 11.5994 253.69 11.7926 253.335 11.9318C252.98 12.0682 252.581 12.1364 252.137 12.1364ZM257.383 8.0625V12H256.377V5.45455H257.349V6.47727H257.434C257.588 6.14489 257.821 5.87784 258.133 5.67614C258.446 5.47159 258.849 5.36932 259.343 5.36932C259.787 5.36932 260.174 5.46023 260.507 5.64205C260.839 5.82102 261.098 6.09375 261.282 6.46023C261.467 6.82386 261.559 7.28409 261.559 7.84091V12H260.554V7.90909C260.554 7.39489 260.42 6.99432 260.153 6.70739C259.886 6.41761 259.52 6.27273 259.054 6.27273C258.733 6.27273 258.446 6.34233 258.193 6.48153C257.943 6.62074 257.745 6.82386 257.6 7.09091C257.456 7.35795 257.383 7.68182 257.383 8.0625ZM264.403 8.0625V12H263.397V5.45455H264.369V6.47727H264.454C264.607 6.14489 264.84 5.87784 265.153 5.67614C265.465 5.47159 265.869 5.36932 266.363 5.36932C266.806 5.36932 267.194 5.46023 267.526 5.64205C267.859 5.82102 268.117 6.09375 268.302 6.46023C268.487 6.82386 268.579 7.28409 268.579 7.84091V12H267.573V7.90909C267.573 7.39489 267.44 6.99432 267.173 6.70739C266.906 6.41761 266.539 6.27273 266.073 6.27273C265.752 6.27273 265.465 6.34233 265.212 6.48153C264.962 6.62074 264.765 6.82386 264.62 7.09091C264.475 7.35795 264.403 7.68182 264.403 8.0625ZM273.161 12.1364C272.53 12.1364 271.986 11.9972 271.529 11.7188C271.074 11.4375 270.723 11.0455 270.476 10.5426C270.232 10.0369 270.11 9.44886 270.11 8.77841C270.11 8.10795 270.232 7.51705 270.476 7.00568C270.723 6.49148 271.067 6.09091 271.507 5.80398C271.951 5.5142 272.468 5.36932 273.059 5.36932C273.4 5.36932 273.736 5.42614 274.069 5.53977C274.401 5.65341 274.703 5.83807 274.976 6.09375C275.249 6.34659 275.466 6.68182 275.628 7.09943C275.79 7.51705 275.871 8.03125 275.871 8.64205V9.06818H270.826V8.19886H274.848C274.848 7.82955 274.775 7.5 274.627 7.21023C274.482 6.92045 274.275 6.69176 274.005 6.52415C273.738 6.35653 273.422 6.27273 273.059 6.27273C272.658 6.27273 272.311 6.37216 272.019 6.57102C271.729 6.76705 271.506 7.02273 271.35 7.33807C271.194 7.65341 271.115 7.99148 271.115 8.35227V8.93182C271.115 9.42614 271.201 9.84517 271.371 10.1889C271.544 10.5298 271.784 10.7898 272.091 10.9688C272.398 11.1449 272.755 11.233 273.161 11.233C273.425 11.233 273.664 11.196 273.877 11.1222C274.093 11.0455 274.279 10.9318 274.435 10.7812C274.591 10.6278 274.712 10.4375 274.797 10.2102L275.769 10.483C275.667 10.8125 275.495 11.1023 275.253 11.3523C275.012 11.5994 274.713 11.7926 274.358 11.9318C274.003 12.0682 273.604 12.1364 273.161 12.1364ZM282.037 6.92045L281.134 7.17614C281.077 7.02557 280.993 6.87926 280.882 6.73722C280.775 6.59233 280.627 6.47301 280.439 6.37926C280.252 6.28551 280.012 6.23864 279.719 6.23864C279.319 6.23864 278.985 6.33097 278.718 6.51562C278.453 6.69744 278.321 6.92898 278.321 7.21023C278.321 7.46023 278.412 7.65767 278.594 7.80256C278.776 7.94744 279.06 8.06818 279.446 8.16477L280.418 8.40341C281.003 8.54545 281.439 8.76278 281.726 9.0554C282.013 9.34517 282.157 9.71875 282.157 10.1761C282.157 10.5511 282.049 10.8864 281.833 11.1818C281.62 11.4773 281.321 11.7102 280.938 11.8807C280.554 12.0511 280.108 12.1364 279.6 12.1364C278.932 12.1364 278.38 11.9915 277.942 11.7017C277.505 11.4119 277.228 10.9886 277.111 10.4318L278.066 10.1932C278.157 10.5455 278.328 10.8097 278.581 10.9858C278.837 11.1619 279.171 11.25 279.583 11.25C280.051 11.25 280.424 11.1506 280.699 10.9517C280.978 10.75 281.117 10.5085 281.117 10.2273C281.117 10 281.037 9.80966 280.878 9.65625C280.719 9.5 280.475 9.38352 280.145 9.30682L279.054 9.05114C278.455 8.90909 278.015 8.68892 277.733 8.39062C277.455 8.08949 277.316 7.71307 277.316 7.26136C277.316 6.89205 277.419 6.56534 277.627 6.28125C277.837 5.99716 278.123 5.77415 278.483 5.61222C278.847 5.45028 279.259 5.36932 279.719 5.36932C280.367 5.36932 280.875 5.51136 281.245 5.79545C281.617 6.07955 281.881 6.45455 282.037 6.92045ZM288.307 6.92045L287.403 7.17614C287.347 7.02557 287.263 6.87926 287.152 6.73722C287.044 6.59233 286.896 6.47301 286.709 6.37926C286.521 6.28551 286.281 6.23864 285.989 6.23864C285.588 6.23864 285.254 6.33097 284.987 6.51562C284.723 6.69744 284.591 6.92898 284.591 7.21023C284.591 7.46023 284.682 7.65767 284.864 7.80256C285.045 7.94744 285.33 8.06818 285.716 8.16477L286.688 8.40341C287.273 8.54545 287.709 8.76278 287.996 9.0554C288.283 9.34517 288.426 9.71875 288.426 10.1761C288.426 10.5511 288.318 10.8864 288.102 11.1818C287.889 11.4773 287.591 11.7102 287.207 11.8807C286.824 12.0511 286.378 12.1364 285.869 12.1364C285.202 12.1364 284.649 11.9915 284.212 11.7017C283.774 11.4119 283.497 10.9886 283.381 10.4318L284.335 10.1932C284.426 10.5455 284.598 10.8097 284.851 10.9858C285.107 11.1619 285.44 11.25 285.852 11.25C286.321 11.25 286.693 11.1506 286.969 10.9517C287.247 10.75 287.386 10.5085 287.386 10.2273C287.386 10 287.307 9.80966 287.148 9.65625C286.989 9.5 286.744 9.38352 286.415 9.30682L285.324 9.05114C284.724 8.90909 284.284 8.68892 284.003 8.39062C283.724 8.08949 283.585 7.71307 283.585 7.26136C283.585 6.89205 283.689 6.56534 283.896 6.28125C284.107 5.99716 284.392 5.77415 284.753 5.61222C285.116 5.45028 285.528 5.36932 285.989 5.36932C286.636 5.36932 287.145 5.51136 287.514 5.79545C287.886 6.07955 288.151 6.45455 288.307 6.92045Z" fill="black"/>
<path d="M473.665 172.136C473.034 172.136 472.49 171.997 472.033 171.719C471.578 171.438 471.227 171.045 470.98 170.543C470.736 170.037 470.614 169.449 470.614 168.778C470.614 168.108 470.736 167.517 470.98 167.006C471.227 166.491 471.571 166.091 472.011 165.804C472.455 165.514 472.972 165.369 473.562 165.369C473.903 165.369 474.24 165.426 474.572 165.54C474.905 165.653 475.207 165.838 475.48 166.094C475.753 166.347 475.97 166.682 476.132 167.099C476.294 167.517 476.375 168.031 476.375 168.642V169.068H471.33V168.199H475.352C475.352 167.83 475.278 167.5 475.131 167.21C474.986 166.92 474.778 166.692 474.509 166.524C474.241 166.357 473.926 166.273 473.562 166.273C473.162 166.273 472.815 166.372 472.523 166.571C472.233 166.767 472.01 167.023 471.854 167.338C471.697 167.653 471.619 167.991 471.619 168.352V168.932C471.619 169.426 471.705 169.845 471.875 170.189C472.048 170.53 472.288 170.79 472.595 170.969C472.902 171.145 473.259 171.233 473.665 171.233C473.929 171.233 474.168 171.196 474.381 171.122C474.597 171.045 474.783 170.932 474.939 170.781C475.095 170.628 475.216 170.437 475.301 170.21L476.273 170.483C476.17 170.812 475.999 171.102 475.757 171.352C475.516 171.599 475.217 171.793 474.862 171.932C474.507 172.068 474.108 172.136 473.665 172.136ZM478.479 165.455L480.047 168.131L481.615 165.455H482.775L480.661 168.727L482.775 172H481.615L480.047 169.46L478.479 172H477.32L479.4 168.727L477.32 165.455H478.479ZM487.056 165.455V166.307H483.664V165.455H487.056ZM484.653 163.886H485.658V170.125C485.658 170.409 485.7 170.622 485.782 170.764C485.867 170.903 485.975 170.997 486.106 171.045C486.239 171.091 486.38 171.114 486.528 171.114C486.638 171.114 486.729 171.108 486.8 171.097C486.871 171.082 486.928 171.071 486.971 171.062L487.175 171.966C487.107 171.991 487.012 172.017 486.89 172.043C486.768 172.071 486.613 172.085 486.425 172.085C486.141 172.085 485.863 172.024 485.59 171.902C485.32 171.78 485.096 171.594 484.917 171.344C484.741 171.094 484.653 170.778 484.653 170.398V163.886ZM488.569 172V165.455H489.54V166.443H489.609C489.728 166.119 489.944 165.857 490.256 165.655C490.569 165.453 490.921 165.352 491.313 165.352C491.387 165.352 491.479 165.354 491.59 165.357C491.701 165.359 491.785 165.364 491.842 165.369V166.392C491.808 166.384 491.729 166.371 491.607 166.354C491.488 166.334 491.362 166.324 491.228 166.324C490.91 166.324 490.626 166.391 490.376 166.524C490.129 166.655 489.933 166.837 489.788 167.07C489.646 167.3 489.575 167.562 489.575 167.858V172H488.569ZM495.494 172.136C494.903 172.136 494.384 171.996 493.938 171.714C493.495 171.433 493.148 171.04 492.898 170.534C492.651 170.028 492.528 169.437 492.528 168.761C492.528 168.08 492.651 167.484 492.898 166.976C493.148 166.467 493.495 166.072 493.938 165.791C494.384 165.51 494.903 165.369 495.494 165.369C496.085 165.369 496.602 165.51 497.045 165.791C497.491 166.072 497.837 166.467 498.085 166.976C498.335 167.484 498.46 168.08 498.46 168.761C498.46 169.437 498.335 170.028 498.085 170.534C497.837 171.04 497.491 171.433 497.045 171.714C496.602 171.996 496.085 172.136 495.494 172.136ZM495.494 171.233C495.942 171.233 496.312 171.118 496.602 170.888C496.891 170.658 497.106 170.355 497.245 169.98C497.384 169.605 497.454 169.199 497.454 168.761C497.454 168.324 497.384 167.916 497.245 167.538C497.106 167.161 496.891 166.855 496.602 166.622C496.312 166.389 495.942 166.273 495.494 166.273C495.045 166.273 494.675 166.389 494.386 166.622C494.096 166.855 493.881 167.161 493.742 167.538C493.603 167.916 493.533 168.324 493.533 168.761C493.533 169.199 493.603 169.605 493.742 169.98C493.881 170.355 494.096 170.658 494.386 170.888C494.675 171.118 495.045 171.233 495.494 171.233ZM505.113 165.455L502.692 172H501.669L499.249 165.455H500.34L502.147 170.67H502.215L504.022 165.455H505.113ZM508.95 172.136C508.319 172.136 507.775 171.997 507.318 171.719C506.863 171.438 506.512 171.045 506.265 170.543C506.021 170.037 505.899 169.449 505.899 168.778C505.899 168.108 506.021 167.517 506.265 167.006C506.512 166.491 506.856 166.091 507.297 165.804C507.74 165.514 508.257 165.369 508.848 165.369C509.189 165.369 509.525 165.426 509.858 165.54C510.19 165.653 510.493 165.838 510.765 166.094C511.038 166.347 511.255 166.682 511.417 167.099C511.579 167.517 511.66 168.031 511.66 168.642V169.068H506.615V168.199H510.637C510.637 167.83 510.564 167.5 510.416 167.21C510.271 166.92 510.064 166.692 509.794 166.524C509.527 166.357 509.211 166.273 508.848 166.273C508.447 166.273 508.1 166.372 507.808 166.571C507.518 166.767 507.295 167.023 507.139 167.338C506.983 167.653 506.904 167.991 506.904 168.352V168.932C506.904 169.426 506.99 169.845 507.16 170.189C507.333 170.53 507.574 170.79 507.88 170.969C508.187 171.145 508.544 171.233 508.95 171.233C509.214 171.233 509.453 171.196 509.666 171.122C509.882 171.045 510.068 170.932 510.224 170.781C510.38 170.628 510.501 170.437 510.586 170.21L511.558 170.483C511.456 170.812 511.284 171.102 511.042 171.352C510.801 171.599 510.502 171.793 510.147 171.932C509.792 172.068 509.393 172.136 508.95 172.136ZM513.19 172V165.455H514.162V166.443H514.23C514.349 166.119 514.565 165.857 514.877 165.655C515.19 165.453 515.542 165.352 515.934 165.352C516.008 165.352 516.1 165.354 516.211 165.357C516.322 165.359 516.406 165.364 516.463 165.369V166.392C516.429 166.384 516.35 166.371 516.228 166.354C516.109 166.334 515.983 166.324 515.849 166.324C515.531 166.324 515.247 166.391 514.997 166.524C514.75 166.655 514.554 166.837 514.409 167.07C514.267 167.3 514.196 167.562 514.196 167.858V172H513.19ZM522.291 166.92L521.388 167.176C521.331 167.026 521.247 166.879 521.136 166.737C521.028 166.592 520.881 166.473 520.693 166.379C520.506 166.286 520.266 166.239 519.973 166.239C519.572 166.239 519.239 166.331 518.972 166.516C518.707 166.697 518.575 166.929 518.575 167.21C518.575 167.46 518.666 167.658 518.848 167.803C519.03 167.947 519.314 168.068 519.7 168.165L520.672 168.403C521.257 168.545 521.693 168.763 521.98 169.055C522.267 169.345 522.411 169.719 522.411 170.176C522.411 170.551 522.303 170.886 522.087 171.182C521.874 171.477 521.575 171.71 521.192 171.881C520.808 172.051 520.362 172.136 519.854 172.136C519.186 172.136 518.634 171.991 518.196 171.702C517.759 171.412 517.482 170.989 517.365 170.432L518.32 170.193C518.411 170.545 518.582 170.81 518.835 170.986C519.091 171.162 519.425 171.25 519.837 171.25C520.305 171.25 520.678 171.151 520.953 170.952C521.232 170.75 521.371 170.509 521.371 170.227C521.371 170 521.291 169.81 521.132 169.656C520.973 169.5 520.729 169.384 520.399 169.307L519.308 169.051C518.709 168.909 518.268 168.689 517.987 168.391C517.709 168.089 517.57 167.713 517.57 167.261C517.57 166.892 517.673 166.565 517.881 166.281C518.091 165.997 518.376 165.774 518.737 165.612C519.101 165.45 519.513 165.369 519.973 165.369C520.621 165.369 521.129 165.511 521.499 165.795C521.871 166.08 522.135 166.455 522.291 166.92ZM523.924 172V165.455H524.93V172H523.924ZM524.436 164.364C524.24 164.364 524.071 164.297 523.929 164.163C523.789 164.03 523.72 163.869 523.72 163.682C523.72 163.494 523.789 163.334 523.929 163.2C524.071 163.067 524.24 163 524.436 163C524.632 163 524.799 163.067 524.939 163.2C525.081 163.334 525.152 163.494 525.152 163.682C525.152 163.869 525.081 164.03 524.939 164.163C524.799 164.297 524.632 164.364 524.436 164.364ZM529.431 172.136C528.84 172.136 528.322 171.996 527.876 171.714C527.433 171.433 527.086 171.04 526.836 170.534C526.589 170.028 526.465 169.437 526.465 168.761C526.465 168.08 526.589 167.484 526.836 166.976C527.086 166.467 527.433 166.072 527.876 165.791C528.322 165.51 528.84 165.369 529.431 165.369C530.022 165.369 530.539 165.51 530.982 165.791C531.428 166.072 531.775 166.467 532.022 166.976C532.272 167.484 532.397 168.08 532.397 168.761C532.397 169.437 532.272 170.028 532.022 170.534C531.775 171.04 531.428 171.433 530.982 171.714C530.539 171.996 530.022 172.136 529.431 172.136ZM529.431 171.233C529.88 171.233 530.249 171.118 530.539 170.888C530.829 170.658 531.043 170.355 531.183 169.98C531.322 169.605 531.391 169.199 531.391 168.761C531.391 168.324 531.322 167.916 531.183 167.538C531.043 167.161 530.829 166.855 530.539 166.622C530.249 166.389 529.88 166.273 529.431 166.273C528.982 166.273 528.613 166.389 528.323 166.622C528.033 166.855 527.819 167.161 527.68 167.538C527.54 167.916 527.471 168.324 527.471 168.761C527.471 169.199 527.54 169.605 527.68 169.98C527.819 170.355 528.033 170.658 528.323 170.888C528.613 171.118 528.982 171.233 529.431 171.233ZM534.938 168.062V172H533.932V165.455H534.904V166.477H534.989C535.142 166.145 535.375 165.878 535.688 165.676C536 165.472 536.404 165.369 536.898 165.369C537.341 165.369 537.729 165.46 538.061 165.642C538.394 165.821 538.652 166.094 538.837 166.46C539.022 166.824 539.114 167.284 539.114 167.841V172H538.108V167.909C538.108 167.395 537.975 166.994 537.708 166.707C537.441 166.418 537.074 166.273 536.608 166.273C536.287 166.273 536 166.342 535.748 166.482C535.498 166.621 535.3 166.824 535.155 167.091C535.01 167.358 534.938 167.682 534.938 168.062Z" fill="black"/>
<path d="M3.66477 169.136C3.03409 169.136 2.49006 168.997 2.03267 168.719C1.57812 168.438 1.22727 168.045 0.980114 167.543C0.735795 167.037 0.613636 166.449 0.613636 165.778C0.613636 165.108 0.735795 164.517 0.980114 164.006C1.22727 163.491 1.57102 163.091 2.01136 162.804C2.45455 162.514 2.97159 162.369 3.5625 162.369C3.90341 162.369 4.24006 162.426 4.57244 162.54C4.90483 162.653 5.20739 162.838 5.48011 163.094C5.75284 163.347 5.97017 163.682 6.1321 164.099C6.29403 164.517 6.375 165.031 6.375 165.642V166.068H1.32955V165.199H5.35227C5.35227 164.83 5.27841 164.5 5.13068 164.21C4.9858 163.92 4.77841 163.692 4.50852 163.524C4.24148 163.357 3.92614 163.273 3.5625 163.273C3.16193 163.273 2.81534 163.372 2.52273 163.571C2.23295 163.767 2.00994 164.023 1.85369 164.338C1.69744 164.653 1.61932 164.991 1.61932 165.352V165.932C1.61932 166.426 1.70455 166.845 1.875 167.189C2.0483 167.53 2.28835 167.79 2.59517 167.969C2.90199 168.145 3.25852 168.233 3.66477 168.233C3.92898 168.233 4.16761 168.196 4.38068 168.122C4.59659 168.045 4.78267 167.932 4.93892 167.781C5.09517 167.628 5.21591 167.437 5.30114 167.21L6.27273 167.483C6.17045 167.812 5.99858 168.102 5.7571 168.352C5.51563 168.599 5.21733 168.793 4.86222 168.932C4.5071 169.068 4.10795 169.136 3.66477 169.136ZM7.90483 169V162.455H8.87642V163.477H8.96165C9.09801 163.128 9.31818 162.857 9.62216 162.663C9.92614 162.467 10.2912 162.369 10.7173 162.369C11.1491 162.369 11.5085 162.467 11.7955 162.663C12.0852 162.857 12.3111 163.128 12.473 163.477H12.5412C12.7088 163.139 12.9602 162.871 13.2955 162.672C13.6307 162.47 14.0327 162.369 14.5014 162.369C15.0866 162.369 15.5653 162.553 15.9375 162.919C16.3097 163.283 16.4957 163.849 16.4957 164.619V169H15.4901V164.619C15.4901 164.136 15.358 163.791 15.0938 163.584C14.8295 163.376 14.5185 163.273 14.1605 163.273C13.7003 163.273 13.3438 163.412 13.0909 163.69C12.8381 163.966 12.7116 164.315 12.7116 164.739V169H11.6889V164.517C11.6889 164.145 11.5682 163.845 11.3267 163.618C11.0852 163.388 10.7741 163.273 10.3935 163.273C10.1321 163.273 9.88778 163.342 9.66051 163.482C9.43608 163.621 9.25426 163.814 9.11506 164.061C8.97869 164.305 8.91051 164.588 8.91051 164.909V169H7.90483ZM20.9936 169.136C20.4027 169.136 19.8842 168.996 19.4382 168.714C18.995 168.433 18.6484 168.04 18.3984 167.534C18.1513 167.028 18.0277 166.437 18.0277 165.761C18.0277 165.08 18.1513 164.484 18.3984 163.976C18.6484 163.467 18.995 163.072 19.4382 162.791C19.8842 162.51 20.4027 162.369 20.9936 162.369C21.5845 162.369 22.1016 162.51 22.5447 162.791C22.9908 163.072 23.3374 163.467 23.5845 163.976C23.8345 164.484 23.9595 165.08 23.9595 165.761C23.9595 166.437 23.8345 167.028 23.5845 167.534C23.3374 168.04 22.9908 168.433 22.5447 168.714C22.1016 168.996 21.5845 169.136 20.9936 169.136ZM20.9936 168.233C21.4425 168.233 21.8118 168.118 22.1016 167.888C22.3913 167.658 22.6058 167.355 22.745 166.98C22.8842 166.605 22.9538 166.199 22.9538 165.761C22.9538 165.324 22.8842 164.916 22.745 164.538C22.6058 164.161 22.3913 163.855 22.1016 163.622C21.8118 163.389 21.4425 163.273 20.9936 163.273C20.5447 163.273 20.1754 163.389 19.8857 163.622C19.5959 163.855 19.3814 164.161 19.2422 164.538C19.103 164.916 19.0334 165.324 19.0334 165.761C19.0334 166.199 19.103 166.605 19.2422 166.98C19.3814 167.355 19.5959 167.658 19.8857 167.888C20.1754 168.118 20.5447 168.233 20.9936 168.233ZM28.3413 162.455V163.307H24.9492V162.455H28.3413ZM25.9379 160.886H26.9435V167.125C26.9435 167.409 26.9847 167.622 27.0671 167.764C27.1523 167.903 27.2603 167.997 27.391 168.045C27.5245 168.091 27.6651 168.114 27.8129 168.114C27.9237 168.114 28.0146 168.108 28.0856 168.097C28.1566 168.082 28.2134 168.071 28.256 168.062L28.4606 168.966C28.3924 168.991 28.2972 169.017 28.1751 169.043C28.0529 169.071 27.8981 169.085 27.7106 169.085C27.4265 169.085 27.1481 169.024 26.8754 168.902C26.6055 168.78 26.381 168.594 26.2021 168.344C26.0259 168.094 25.9379 167.778 25.9379 167.398V160.886ZM29.854 169V162.455H30.8597V169H29.854ZM30.3654 161.364C30.1694 161.364 30.0004 161.297 29.8583 161.163C29.7191 161.03 29.6495 160.869 29.6495 160.682C29.6495 160.494 29.7191 160.334 29.8583 160.2C30.0004 160.067 30.1694 160 30.3654 160C30.5614 160 30.729 160.067 30.8683 160.2C31.0103 160.334 31.0813 160.494 31.0813 160.682C31.0813 160.869 31.0103 161.03 30.8683 161.163C30.729 161.297 30.5614 161.364 30.3654 161.364ZM35.3608 169.136C34.7699 169.136 34.2514 168.996 33.8054 168.714C33.3622 168.433 33.0156 168.04 32.7656 167.534C32.5185 167.028 32.3949 166.437 32.3949 165.761C32.3949 165.08 32.5185 164.484 32.7656 163.976C33.0156 163.467 33.3622 163.072 33.8054 162.791C34.2514 162.51 34.7699 162.369 35.3608 162.369C35.9517 162.369 36.4688 162.51 36.9119 162.791C37.358 163.072 37.7045 163.467 37.9517 163.976C38.2017 164.484 38.3267 165.08 38.3267 165.761C38.3267 166.437 38.2017 167.028 37.9517 167.534C37.7045 168.04 37.358 168.433 36.9119 168.714C36.4688 168.996 35.9517 169.136 35.3608 169.136ZM35.3608 168.233C35.8097 168.233 36.179 168.118 36.4688 167.888C36.7585 167.658 36.973 167.355 37.1122 166.98C37.2514 166.605 37.321 166.199 37.321 165.761C37.321 165.324 37.2514 164.916 37.1122 164.538C36.973 164.161 36.7585 163.855 36.4688 163.622C36.179 163.389 35.8097 163.273 35.3608 163.273C34.9119 163.273 34.5426 163.389 34.2528 163.622C33.9631 163.855 33.7486 164.161 33.6094 164.538C33.4702 164.916 33.4006 165.324 33.4006 165.761C33.4006 166.199 33.4702 166.605 33.6094 166.98C33.7486 167.355 33.9631 167.658 34.2528 167.888C34.5426 168.118 34.9119 168.233 35.3608 168.233ZM40.8675 165.062V169H39.8619V162.455H40.8335V163.477H40.9187C41.0721 163.145 41.305 162.878 41.6175 162.676C41.93 162.472 42.3335 162.369 42.8278 162.369C43.271 162.369 43.6587 162.46 43.9911 162.642C44.3235 162.821 44.582 163.094 44.7667 163.46C44.9513 163.824 45.0437 164.284 45.0437 164.841V169H44.038V164.909C44.038 164.395 43.9045 163.994 43.6374 163.707C43.3704 163.418 43.0039 163.273 42.538 163.273C42.217 163.273 41.93 163.342 41.6772 163.482C41.4272 163.621 41.2298 163.824 41.0849 164.091C40.94 164.358 40.8675 164.682 40.8675 165.062ZM48.8075 169.153C48.3928 169.153 48.0163 169.075 47.6783 168.919C47.3402 168.76 47.0717 168.531 46.8729 168.233C46.674 167.932 46.5746 167.568 46.5746 167.142C46.5746 166.767 46.6484 166.463 46.7962 166.23C46.9439 165.994 47.1413 165.81 47.3885 165.676C47.6357 165.543 47.9084 165.443 48.2067 165.378C48.5078 165.31 48.8104 165.256 49.1143 165.216C49.5121 165.165 49.8345 165.126 50.0817 165.101C50.3317 165.072 50.5135 165.026 50.6271 164.96C50.7436 164.895 50.8018 164.781 50.8018 164.619V164.585C50.8018 164.165 50.6868 163.838 50.4567 163.605C50.2294 163.372 49.8842 163.256 49.4212 163.256C48.9411 163.256 48.5646 163.361 48.2919 163.571C48.0192 163.781 47.8274 164.006 47.7166 164.244L46.7621 163.903C46.9325 163.506 47.1598 163.196 47.4439 162.974C47.7308 162.75 48.0433 162.594 48.3814 162.506C48.7223 162.415 49.0575 162.369 49.3871 162.369C49.5973 162.369 49.8388 162.395 50.1115 162.446C50.3871 162.494 50.6527 162.595 50.9084 162.749C51.1669 162.902 51.3814 163.134 51.5518 163.443C51.7223 163.753 51.8075 164.168 51.8075 164.688V169H50.8018V168.114H50.7507C50.6825 168.256 50.5689 168.408 50.4098 168.57C50.2507 168.732 50.0391 168.869 49.7749 168.983C49.5107 169.097 49.1882 169.153 48.8075 169.153ZM48.9609 168.25C49.3587 168.25 49.6939 168.172 49.9666 168.016C50.2422 167.859 50.4496 167.658 50.5888 167.411C50.7308 167.163 50.8018 166.903 50.8018 166.631V165.71C50.7592 165.761 50.6655 165.808 50.5206 165.851C50.3786 165.891 50.2138 165.926 50.0263 165.957C49.8416 165.986 49.6612 166.011 49.4851 166.034C49.3118 166.054 49.1712 166.071 49.0632 166.085C48.8018 166.119 48.5575 166.175 48.3303 166.251C48.1058 166.325 47.924 166.437 47.7848 166.588C47.6484 166.736 47.5803 166.937 47.5803 167.193C47.5803 167.543 47.7095 167.807 47.968 167.986C48.2294 168.162 48.5604 168.25 48.9609 168.25ZM54.6488 160.273V169H53.6431V160.273H54.6488ZM5.55682 178.92L4.65341 179.176C4.59659 179.026 4.51278 178.879 4.40199 178.737C4.29403 178.592 4.14631 178.473 3.95881 178.379C3.77131 178.286 3.53125 178.239 3.23864 178.239C2.83807 178.239 2.50426 178.331 2.23722 178.516C1.97301 178.697 1.84091 178.929 1.84091 179.21C1.84091 179.46 1.93182 179.658 2.11364 179.803C2.29545 179.947 2.57955 180.068 2.96591 180.165L3.9375 180.403C4.52273 180.545 4.95881 180.763 5.24574 181.055C5.53267 181.345 5.67614 181.719 5.67614 182.176C5.67614 182.551 5.56818 182.886 5.35227 183.182C5.1392 183.477 4.84091 183.71 4.45739 183.881C4.07386 184.051 3.62784 184.136 3.11932 184.136C2.4517 184.136 1.89915 183.991 1.46165 183.702C1.02415 183.412 0.747159 182.989 0.630682 182.432L1.58523 182.193C1.67614 182.545 1.84801 182.81 2.10085 182.986C2.35653 183.162 2.69034 183.25 3.10227 183.25C3.57102 183.25 3.94318 183.151 4.21875 182.952C4.49716 182.75 4.63636 182.509 4.63636 182.227C4.63636 182 4.55682 181.81 4.39773 181.656C4.23864 181.5 3.99432 181.384 3.66477 181.307L2.57386 181.051C1.97443 180.909 1.53409 180.689 1.25284 180.391C0.974432 180.089 0.835227 179.713 0.835227 179.261C0.835227 178.892 0.93892 178.565 1.14631 178.281C1.35653 177.997 1.64205 177.774 2.00284 177.612C2.36648 177.45 2.77841 177.369 3.23864 177.369C3.88636 177.369 4.39489 177.511 4.7642 177.795C5.13636 178.08 5.40057 178.455 5.55682 178.92ZM10.0366 177.455V178.307H6.64453V177.455H10.0366ZM7.63317 175.886H8.63885V182.125C8.63885 182.409 8.68004 182.622 8.76243 182.764C8.84766 182.903 8.95561 182.997 9.08629 183.045C9.21982 183.091 9.36044 183.114 9.50817 183.114C9.61896 183.114 9.70987 183.108 9.7809 183.097C9.85192 183.082 9.90874 183.071 9.95135 183.062L10.1559 183.966C10.0877 183.991 9.99254 184.017 9.87038 184.043C9.74822 184.071 9.5934 184.085 9.4059 184.085C9.1218 184.085 8.84339 184.024 8.57067 183.902C8.30078 183.78 8.07635 183.594 7.89737 183.344C7.72124 183.094 7.63317 182.778 7.63317 182.398V175.886ZM13.4755 184.153C13.0607 184.153 12.6843 184.075 12.3462 183.919C12.0082 183.76 11.7397 183.531 11.5408 183.233C11.342 182.932 11.2425 182.568 11.2425 182.142C11.2425 181.767 11.3164 181.463 11.4641 181.23C11.6119 180.994 11.8093 180.81 12.0565 180.676C12.3036 180.543 12.5763 180.443 12.8746 180.378C13.1758 180.31 13.4783 180.256 13.7823 180.216C14.18 180.165 14.5025 180.126 14.7496 180.101C14.9996 180.072 15.1815 180.026 15.2951 179.96C15.4116 179.895 15.4698 179.781 15.4698 179.619V179.585C15.4698 179.165 15.3548 178.838 15.1246 178.605C14.8974 178.372 14.5522 178.256 14.0891 178.256C13.609 178.256 13.2326 178.361 12.9599 178.571C12.6871 178.781 12.4954 179.006 12.3846 179.244L11.43 178.903C11.6005 178.506 11.8278 178.196 12.1119 177.974C12.3988 177.75 12.7113 177.594 13.0494 177.506C13.3903 177.415 13.7255 177.369 14.055 177.369C14.2653 177.369 14.5067 177.395 14.7795 177.446C15.055 177.494 15.3207 177.595 15.5763 177.749C15.8349 177.902 16.0494 178.134 16.2198 178.443C16.3903 178.753 16.4755 179.168 16.4755 179.688V184H15.4698V183.114H15.4187C15.3505 183.256 15.2369 183.408 15.0778 183.57C14.9187 183.732 14.707 183.869 14.4428 183.983C14.1786 184.097 13.8562 184.153 13.4755 184.153ZM13.6289 183.25C14.0266 183.25 14.3619 183.172 14.6346 183.016C14.9102 182.859 15.1175 182.658 15.2567 182.411C15.3988 182.163 15.4698 181.903 15.4698 181.631V180.71C15.4272 180.761 15.3335 180.808 15.1886 180.851C15.0465 180.891 14.8817 180.926 14.6942 180.957C14.5096 180.986 14.3292 181.011 14.1531 181.034C13.9798 181.054 13.8391 181.071 13.7312 181.085C13.4698 181.119 13.2255 181.175 12.9982 181.251C12.7738 181.325 12.592 181.437 12.4528 181.588C12.3164 181.736 12.2482 181.937 12.2482 182.193C12.2482 182.543 12.3775 182.807 12.636 182.986C12.8974 183.162 13.2283 183.25 13.6289 183.25ZM18.4474 184V175.273H19.4531V178.494H19.5384C19.6122 178.381 19.7145 178.236 19.8452 178.06C19.9787 177.881 20.169 177.722 20.4162 177.582C20.6662 177.44 21.0043 177.369 21.4304 177.369C21.9815 177.369 22.4673 177.507 22.8878 177.783C23.3082 178.058 23.6364 178.449 23.8722 178.955C24.108 179.46 24.2259 180.057 24.2259 180.744C24.2259 181.438 24.108 182.038 23.8722 182.547C23.6364 183.053 23.3097 183.445 22.892 183.723C22.4744 183.999 21.9929 184.136 21.4474 184.136C21.027 184.136 20.6903 184.067 20.4375 183.928C20.1847 183.786 19.9901 183.625 19.8537 183.446C19.7173 183.264 19.6122 183.114 19.5384 182.994H19.419V184H18.4474ZM19.4361 180.727C19.4361 181.222 19.5085 181.658 19.6534 182.036C19.7983 182.411 20.0099 182.705 20.2884 182.918C20.5668 183.128 20.9077 183.233 21.3111 183.233C21.7315 183.233 22.0824 183.122 22.3636 182.901C22.6477 182.676 22.8608 182.375 23.0028 181.997C23.1477 181.616 23.2202 181.193 23.2202 180.727C23.2202 180.267 23.1491 179.852 23.0071 179.483C22.8679 179.111 22.6563 178.817 22.3722 178.601C22.0909 178.382 21.7372 178.273 21.3111 178.273C20.902 178.273 20.5582 178.376 20.2798 178.584C20.0014 178.788 19.7912 179.075 19.6491 179.445C19.5071 179.811 19.4361 180.239 19.4361 180.727ZM25.7642 184V177.455H26.7699V184H25.7642ZM26.2756 176.364C26.0795 176.364 25.9105 176.297 25.7685 176.163C25.6293 176.03 25.5597 175.869 25.5597 175.682C25.5597 175.494 25.6293 175.334 25.7685 175.2C25.9105 175.067 26.0795 175 26.2756 175C26.4716 175 26.6392 175.067 26.7784 175.2C26.9205 175.334 26.9915 175.494 26.9915 175.682C26.9915 175.869 26.9205 176.03 26.7784 176.163C26.6392 176.297 26.4716 176.364 26.2756 176.364ZM29.6175 175.273V184H28.6119V175.273H29.6175ZM31.4595 184V177.455H32.4652V184H31.4595ZM31.9709 176.364C31.7749 176.364 31.6058 176.297 31.4638 176.163C31.3246 176.03 31.255 175.869 31.255 175.682C31.255 175.494 31.3246 175.334 31.4638 175.2C31.6058 175.067 31.7749 175 31.9709 175C32.1669 175 32.3345 175.067 32.4737 175.2C32.6158 175.334 32.6868 175.494 32.6868 175.682C32.6868 175.869 32.6158 176.03 32.4737 176.163C32.3345 176.297 32.1669 176.364 31.9709 176.364ZM37.1538 177.455V178.307H33.7617V177.455H37.1538ZM34.7504 175.886H35.756V182.125C35.756 182.409 35.7972 182.622 35.8796 182.764C35.9648 182.903 36.0728 182.997 36.2035 183.045C36.337 183.091 36.4776 183.114 36.6254 183.114C36.7362 183.114 36.8271 183.108 36.8981 183.097C36.9691 183.082 37.0259 183.071 37.0685 183.062L37.2731 183.966C37.2049 183.991 37.1097 184.017 36.9876 184.043C36.8654 184.071 36.7106 184.085 36.5231 184.085C36.239 184.085 35.9606 184.024 35.6879 183.902C35.418 183.78 35.1935 183.594 35.0146 183.344C34.8384 183.094 34.7504 182.778 34.7504 182.398V175.886ZM39.3143 186.455C39.1438 186.455 38.9918 186.44 38.8583 186.412C38.7248 186.386 38.6325 186.361 38.5813 186.335L38.837 185.449C39.0813 185.511 39.2972 185.534 39.4847 185.517C39.6722 185.5 39.8384 185.416 39.9833 185.266C40.131 185.118 40.266 184.878 40.3881 184.545L40.5756 184.034L38.1552 177.455H39.2461L41.0529 182.67H41.1211L42.9279 177.455H44.0188L41.2404 184.955C41.1154 185.293 40.9606 185.572 40.7759 185.794C40.5913 186.018 40.3768 186.185 40.1325 186.293C39.891 186.401 39.6183 186.455 39.3143 186.455Z" fill="black"/>
<path d="M38.5795 418.136C37.9659 418.136 37.4375 417.991 36.9943 417.702C36.5511 417.412 36.2102 417.013 35.9716 416.504C35.733 415.996 35.6136 415.415 35.6136 414.761C35.6136 414.097 35.7358 413.51 35.9801 413.001C36.2273 412.49 36.571 412.091 37.0114 411.804C37.4545 411.514 37.9716 411.369 38.5625 411.369C39.0227 411.369 39.4375 411.455 39.8068 411.625C40.1761 411.795 40.4787 412.034 40.7145 412.341C40.9503 412.648 41.0966 413.006 41.1534 413.415H40.1477C40.071 413.116 39.9006 412.852 39.6364 412.622C39.375 412.389 39.0227 412.273 38.5795 412.273C38.1875 412.273 37.8438 412.375 37.5483 412.58C37.2557 412.781 37.027 413.067 36.8622 413.436C36.7003 413.803 36.6193 414.233 36.6193 414.727C36.6193 415.233 36.6989 415.673 36.858 416.048C37.0199 416.423 37.2472 416.714 37.5398 416.922C37.8352 417.129 38.1818 417.233 38.5795 417.233C38.8409 417.233 39.0781 417.188 39.2912 417.097C39.5043 417.006 39.6847 416.875 39.8324 416.705C39.9801 416.534 40.0852 416.33 40.1477 416.091H41.1534C41.0966 416.477 40.956 416.825 40.7315 417.135C40.5099 417.442 40.2159 417.686 39.8494 417.868C39.4858 418.047 39.0625 418.136 38.5795 418.136ZM45.2827 418.136C44.6918 418.136 44.1733 417.996 43.7273 417.714C43.2841 417.433 42.9375 417.04 42.6875 416.534C42.4403 416.028 42.3168 415.437 42.3168 414.761C42.3168 414.08 42.4403 413.484 42.6875 412.976C42.9375 412.467 43.2841 412.072 43.7273 411.791C44.1733 411.51 44.6918 411.369 45.2827 411.369C45.8736 411.369 46.3906 411.51 46.8338 411.791C47.2798 412.072 47.6264 412.467 47.8736 412.976C48.1236 413.484 48.2486 414.08 48.2486 414.761C48.2486 415.437 48.1236 416.028 47.8736 416.534C47.6264 417.04 47.2798 417.433 46.8338 417.714C46.3906 417.996 45.8736 418.136 45.2827 418.136ZM45.2827 417.233C45.7315 417.233 46.1009 417.118 46.3906 416.888C46.6804 416.658 46.8949 416.355 47.0341 415.98C47.1733 415.605 47.2429 415.199 47.2429 414.761C47.2429 414.324 47.1733 413.916 47.0341 413.538C46.8949 413.161 46.6804 412.855 46.3906 412.622C46.1009 412.389 45.7315 412.273 45.2827 412.273C44.8338 412.273 44.4645 412.389 44.1747 412.622C43.8849 412.855 43.6705 413.161 43.5312 413.538C43.392 413.916 43.3224 414.324 43.3224 414.761C43.3224 415.199 43.392 415.605 43.5312 415.98C43.6705 416.355 43.8849 416.658 44.1747 416.888C44.4645 417.118 44.8338 417.233 45.2827 417.233ZM50.7894 414.062V418H49.7837V411.455H50.7553V412.477H50.8406C50.994 412.145 51.2269 411.878 51.5394 411.676C51.8519 411.472 52.2553 411.369 52.7496 411.369C53.1928 411.369 53.5806 411.46 53.913 411.642C54.2454 411.821 54.5039 412.094 54.6886 412.46C54.8732 412.824 54.9656 413.284 54.9656 413.841V418H53.9599V413.909C53.9599 413.395 53.8263 412.994 53.5593 412.707C53.2923 412.418 52.9258 412.273 52.4599 412.273C52.1388 412.273 51.8519 412.342 51.5991 412.482C51.3491 412.621 51.1516 412.824 51.0067 413.091C50.8619 413.358 50.7894 413.682 50.7894 414.062ZM61.4396 412.92L60.5362 413.176C60.4794 413.026 60.3956 412.879 60.2848 412.737C60.1768 412.592 60.0291 412.473 59.8416 412.379C59.6541 412.286 59.4141 412.239 59.1214 412.239C58.7209 412.239 58.3871 412.331 58.12 412.516C57.8558 412.697 57.7237 412.929 57.7237 413.21C57.7237 413.46 57.8146 413.658 57.9964 413.803C58.1783 413.947 58.4624 414.068 58.8487 414.165L59.8203 414.403C60.4055 414.545 60.8416 414.763 61.1286 415.055C61.4155 415.345 61.5589 415.719 61.5589 416.176C61.5589 416.551 61.451 416.886 61.2351 417.182C61.022 417.477 60.7237 417.71 60.3402 417.881C59.9567 418.051 59.5107 418.136 59.0021 418.136C58.3345 418.136 57.782 417.991 57.3445 417.702C56.907 417.412 56.63 416.989 56.5135 416.432L57.468 416.193C57.5589 416.545 57.7308 416.81 57.9837 416.986C58.2393 417.162 58.5732 417.25 58.9851 417.25C59.4538 417.25 59.826 417.151 60.1016 416.952C60.38 416.75 60.5192 416.509 60.5192 416.227C60.5192 416 60.4396 415.81 60.2805 415.656C60.1214 415.5 59.8771 415.384 59.5476 415.307L58.4567 415.051C57.8572 414.909 57.4169 414.689 57.1357 414.391C56.8572 414.089 56.718 413.713 56.718 413.261C56.718 412.892 56.8217 412.565 57.0291 412.281C57.2393 411.997 57.5249 411.774 57.8857 411.612C58.2493 411.45 58.6612 411.369 59.1214 411.369C59.7692 411.369 60.2777 411.511 60.647 411.795C61.0192 412.08 61.2834 412.455 61.4396 412.92ZM65.7319 418.136C65.1183 418.136 64.5898 417.991 64.1467 417.702C63.7035 417.412 63.3626 417.013 63.1239 416.504C62.8853 415.996 62.766 415.415 62.766 414.761C62.766 414.097 62.8881 413.51 63.1325 413.001C63.3796 412.49 63.7234 412.091 64.1637 411.804C64.6069 411.514 65.1239 411.369 65.7148 411.369C66.1751 411.369 66.5898 411.455 66.9592 411.625C67.3285 411.795 67.631 412.034 67.8668 412.341C68.1026 412.648 68.2489 413.006 68.3058 413.415H67.3001C67.2234 413.116 67.0529 412.852 66.7887 412.622C66.5273 412.389 66.1751 412.273 65.7319 412.273C65.3398 412.273 64.9961 412.375 64.7006 412.58C64.408 412.781 64.1793 413.067 64.0146 413.436C63.8526 413.803 63.7717 414.233 63.7717 414.727C63.7717 415.233 63.8512 415.673 64.0103 416.048C64.1722 416.423 64.3995 416.714 64.6921 416.922C64.9876 417.129 65.3342 417.233 65.7319 417.233C65.9933 417.233 66.2305 417.188 66.4435 417.097C66.6566 417.006 66.837 416.875 66.9847 416.705C67.1325 416.534 67.2376 416.33 67.3001 416.091H68.3058C68.2489 416.477 68.1083 416.825 67.8839 417.135C67.6623 417.442 67.3683 417.686 67.0018 417.868C66.6381 418.047 66.2148 418.136 65.7319 418.136ZM69.7759 418V411.455H70.7816V418H69.7759ZM70.2873 410.364C70.0913 410.364 69.9222 410.297 69.7802 410.163C69.641 410.03 69.5714 409.869 69.5714 409.682C69.5714 409.494 69.641 409.334 69.7802 409.2C69.9222 409.067 70.0913 409 70.2873 409C70.4833 409 70.6509 409.067 70.7901 409.2C70.9322 409.334 71.0032 409.494 71.0032 409.682C71.0032 409.869 70.9322 410.03 70.7901 410.163C70.6509 410.297 70.4833 410.364 70.2873 410.364ZM75.3679 418.136C74.7372 418.136 74.1932 417.997 73.7358 417.719C73.2812 417.438 72.9304 417.045 72.6832 416.543C72.4389 416.037 72.3168 415.449 72.3168 414.778C72.3168 414.108 72.4389 413.517 72.6832 413.006C72.9304 412.491 73.2741 412.091 73.7145 411.804C74.1577 411.514 74.6747 411.369 75.2656 411.369C75.6065 411.369 75.9432 411.426 76.2756 411.54C76.608 411.653 76.9105 411.838 77.1832 412.094C77.456 412.347 77.6733 412.682 77.8352 413.099C77.9972 413.517 78.0781 414.031 78.0781 414.642V415.068H73.0327V414.199H77.0554C77.0554 413.83 76.9815 413.5 76.8338 413.21C76.6889 412.92 76.4815 412.692 76.2116 412.524C75.9446 412.357 75.6293 412.273 75.2656 412.273C74.8651 412.273 74.5185 412.372 74.2259 412.571C73.9361 412.767 73.7131 413.023 73.5568 413.338C73.4006 413.653 73.3224 413.991 73.3224 414.352V414.932C73.3224 415.426 73.4077 415.845 73.5781 416.189C73.7514 416.53 73.9915 416.79 74.2983 416.969C74.6051 417.145 74.9616 417.233 75.3679 417.233C75.6321 417.233 75.8707 417.196 76.0838 417.122C76.2997 417.045 76.4858 416.932 76.642 416.781C76.7983 416.628 76.919 416.437 77.0043 416.21L77.9759 416.483C77.8736 416.812 77.7017 417.102 77.4602 417.352C77.2188 417.599 76.9205 417.793 76.5653 417.932C76.2102 418.068 75.8111 418.136 75.3679 418.136ZM80.6136 414.062V418H79.608V411.455H80.5795V412.477H80.6648C80.8182 412.145 81.0511 411.878 81.3636 411.676C81.6761 411.472 82.0795 411.369 82.5739 411.369C83.017 411.369 83.4048 411.46 83.7372 411.642C84.0696 411.821 84.3281 412.094 84.5128 412.46C84.6974 412.824 84.7898 413.284 84.7898 413.841V418H83.7841V413.909C83.7841 413.395 83.6506 412.994 83.3835 412.707C83.1165 412.418 82.75 412.273 82.2841 412.273C81.9631 412.273 81.6761 412.342 81.4233 412.482C81.1733 412.621 80.9759 412.824 80.831 413.091C80.6861 413.358 80.6136 413.682 80.6136 414.062ZM89.4741 411.455V412.307H86.082V411.455H89.4741ZM87.0707 409.886H88.0763V416.125C88.0763 416.409 88.1175 416.622 88.1999 416.764C88.2852 416.903 88.3931 416.997 88.5238 417.045C88.6573 417.091 88.7979 417.114 88.9457 417.114C89.0565 417.114 89.1474 417.108 89.2184 417.097C89.2894 417.082 89.3462 417.071 89.3888 417.062L89.5934 417.966C89.5252 417.991 89.43 418.017 89.3079 418.043C89.1857 418.071 89.0309 418.085 88.8434 418.085C88.5593 418.085 88.2809 418.024 88.0082 417.902C87.7383 417.78 87.5138 417.594 87.3349 417.344C87.1587 417.094 87.0707 416.778 87.0707 416.398V409.886ZM90.9869 418V411.455H91.9925V418H90.9869ZM91.4982 410.364C91.3022 410.364 91.1332 410.297 90.9911 410.163C90.8519 410.03 90.7823 409.869 90.7823 409.682C90.7823 409.494 90.8519 409.334 90.9911 409.2C91.1332 409.067 91.3022 409 91.4982 409C91.6942 409 91.8619 409.067 92.0011 409.2C92.1431 409.334 92.2141 409.494 92.2141 409.682C92.2141 409.869 92.1431 410.03 92.0011 410.163C91.8619 410.297 91.6942 410.364 91.4982 410.364ZM96.4936 418.136C95.9027 418.136 95.3842 417.996 94.9382 417.714C94.495 417.433 94.1484 417.04 93.8984 416.534C93.6513 416.028 93.5277 415.437 93.5277 414.761C93.5277 414.08 93.6513 413.484 93.8984 412.976C94.1484 412.467 94.495 412.072 94.9382 411.791C95.3842 411.51 95.9027 411.369 96.4936 411.369C97.0845 411.369 97.6016 411.51 98.0447 411.791C98.4908 412.072 98.8374 412.467 99.0845 412.976C99.3345 413.484 99.4595 414.08 99.4595 414.761C99.4595 415.437 99.3345 416.028 99.0845 416.534C98.8374 417.04 98.4908 417.433 98.0447 417.714C97.6016 417.996 97.0845 418.136 96.4936 418.136ZM96.4936 417.233C96.9425 417.233 97.3118 417.118 97.6016 416.888C97.8913 416.658 98.1058 416.355 98.245 415.98C98.3842 415.605 98.4538 415.199 98.4538 414.761C98.4538 414.324 98.3842 413.916 98.245 413.538C98.1058 413.161 97.8913 412.855 97.6016 412.622C97.3118 412.389 96.9425 412.273 96.4936 412.273C96.0447 412.273 95.6754 412.389 95.3857 412.622C95.0959 412.855 94.8814 413.161 94.7422 413.538C94.603 413.916 94.5334 414.324 94.5334 414.761C94.5334 415.199 94.603 415.605 94.7422 415.98C94.8814 416.355 95.0959 416.658 95.3857 416.888C95.6754 417.118 96.0447 417.233 96.4936 417.233ZM105.12 415.324V411.455H106.125V418H105.12V416.892H105.051C104.898 417.224 104.659 417.507 104.336 417.74C104.012 417.97 103.603 418.085 103.108 418.085C102.699 418.085 102.336 417.996 102.017 417.817C101.699 417.635 101.449 417.362 101.267 416.999C101.086 416.632 100.995 416.17 100.995 415.614V411.455H102V415.545C102 416.023 102.134 416.403 102.401 416.688C102.671 416.972 103.015 417.114 103.432 417.114C103.682 417.114 103.936 417.05 104.195 416.922C104.456 416.794 104.675 416.598 104.851 416.334C105.03 416.07 105.12 415.733 105.12 415.324ZM112.604 412.92L111.7 413.176C111.643 413.026 111.56 412.879 111.449 412.737C111.341 412.592 111.193 412.473 111.006 412.379C110.818 412.286 110.578 412.239 110.286 412.239C109.885 412.239 109.551 412.331 109.284 412.516C109.02 412.697 108.888 412.929 108.888 413.21C108.888 413.46 108.979 413.658 109.161 413.803C109.342 413.947 109.626 414.068 110.013 414.165L110.984 414.403C111.57 414.545 112.006 414.763 112.293 415.055C112.58 415.345 112.723 415.719 112.723 416.176C112.723 416.551 112.615 416.886 112.399 417.182C112.186 417.477 111.888 417.71 111.504 417.881C111.121 418.051 110.675 418.136 110.166 418.136C109.499 418.136 108.946 417.991 108.509 417.702C108.071 417.412 107.794 416.989 107.678 416.432L108.632 416.193C108.723 416.545 108.895 416.81 109.148 416.986C109.403 417.162 109.737 417.25 110.149 417.25C110.618 417.25 110.99 417.151 111.266 416.952C111.544 416.75 111.683 416.509 111.683 416.227C111.683 416 111.604 415.81 111.445 415.656C111.286 415.5 111.041 415.384 110.712 415.307L109.621 415.051C109.021 414.909 108.581 414.689 108.3 414.391C108.021 414.089 107.882 413.713 107.882 413.261C107.882 412.892 107.986 412.565 108.193 412.281C108.403 411.997 108.689 411.774 109.05 411.612C109.413 411.45 109.825 411.369 110.286 411.369C110.933 411.369 111.442 411.511 111.811 411.795C112.183 412.08 112.447 412.455 112.604 412.92ZM115.243 414.062V418H114.237V411.455H115.208V412.477H115.294C115.447 412.145 115.68 411.878 115.993 411.676C116.305 411.472 116.708 411.369 117.203 411.369C117.646 411.369 118.034 411.46 118.366 411.642C118.699 411.821 118.957 412.094 119.142 412.46C119.326 412.824 119.419 413.284 119.419 413.841V418H118.413V413.909C118.413 413.395 118.279 412.994 118.012 412.707C117.745 412.418 117.379 412.273 116.913 412.273C116.592 412.273 116.305 412.342 116.052 412.482C115.802 412.621 115.605 412.824 115.46 413.091C115.315 413.358 115.243 413.682 115.243 414.062ZM124.001 418.136C123.37 418.136 122.826 417.997 122.369 417.719C121.914 417.438 121.563 417.045 121.316 416.543C121.072 416.037 120.95 415.449 120.95 414.778C120.95 414.108 121.072 413.517 121.316 413.006C121.563 412.491 121.907 412.091 122.347 411.804C122.79 411.514 123.308 411.369 123.898 411.369C124.239 411.369 124.576 411.426 124.908 411.54C125.241 411.653 125.543 411.838 125.816 412.094C126.089 412.347 126.306 412.682 126.468 413.099C126.63 413.517 126.711 414.031 126.711 414.642V415.068H121.665V414.199H125.688C125.688 413.83 125.614 413.5 125.467 413.21C125.322 412.92 125.114 412.692 124.844 412.524C124.577 412.357 124.262 412.273 123.898 412.273C123.498 412.273 123.151 412.372 122.859 412.571C122.569 412.767 122.346 413.023 122.19 413.338C122.033 413.653 121.955 413.991 121.955 414.352V414.932C121.955 415.426 122.04 415.845 122.211 416.189C122.384 416.53 122.624 416.79 122.931 416.969C123.238 417.145 123.594 417.233 124.001 417.233C124.265 417.233 124.504 417.196 124.717 417.122C124.933 417.045 125.119 416.932 125.275 416.781C125.431 416.628 125.552 416.437 125.637 416.21L126.609 416.483C126.506 416.812 126.335 417.102 126.093 417.352C125.852 417.599 125.553 417.793 125.198 417.932C124.843 418.068 124.444 418.136 124.001 418.136ZM132.877 412.92L131.974 413.176C131.917 413.026 131.833 412.879 131.722 412.737C131.614 412.592 131.467 412.473 131.279 412.379C131.092 412.286 130.852 412.239 130.559 412.239C130.158 412.239 129.825 412.331 129.558 412.516C129.293 412.697 129.161 412.929 129.161 413.21C129.161 413.46 129.252 413.658 129.434 413.803C129.616 413.947 129.9 414.068 130.286 414.165L131.258 414.403C131.843 414.545 132.279 414.763 132.566 415.055C132.853 415.345 132.996 415.719 132.996 416.176C132.996 416.551 132.888 416.886 132.673 417.182C132.46 417.477 132.161 417.71 131.778 417.881C131.394 418.051 130.948 418.136 130.44 418.136C129.772 418.136 129.219 417.991 128.782 417.702C128.344 417.412 128.067 416.989 127.951 416.432L128.906 416.193C128.996 416.545 129.168 416.81 129.421 416.986C129.677 417.162 130.011 417.25 130.423 417.25C130.891 417.25 131.263 417.151 131.539 416.952C131.817 416.75 131.957 416.509 131.957 416.227C131.957 416 131.877 415.81 131.718 415.656C131.559 415.5 131.315 415.384 130.985 415.307L129.894 415.051C129.295 414.909 128.854 414.689 128.573 414.391C128.295 414.089 128.156 413.713 128.156 413.261C128.156 412.892 128.259 412.565 128.467 412.281C128.677 411.997 128.962 411.774 129.323 411.612C129.687 411.45 130.099 411.369 130.559 411.369C131.207 411.369 131.715 411.511 132.085 411.795C132.457 412.08 132.721 412.455 132.877 412.92ZM139.147 412.92L138.243 413.176C138.186 413.026 138.103 412.879 137.992 412.737C137.884 412.592 137.736 412.473 137.549 412.379C137.361 412.286 137.121 412.239 136.828 412.239C136.428 412.239 136.094 412.331 135.827 412.516C135.563 412.697 135.431 412.929 135.431 413.21C135.431 413.46 135.522 413.658 135.703 413.803C135.885 413.947 136.169 414.068 136.556 414.165L137.527 414.403C138.113 414.545 138.549 414.763 138.836 415.055C139.123 415.345 139.266 415.719 139.266 416.176C139.266 416.551 139.158 416.886 138.942 417.182C138.729 417.477 138.431 417.71 138.047 417.881C137.664 418.051 137.218 418.136 136.709 418.136C136.042 418.136 135.489 417.991 135.051 417.702C134.614 417.412 134.337 416.989 134.221 416.432L135.175 416.193C135.266 416.545 135.438 416.81 135.691 416.986C135.946 417.162 136.28 417.25 136.692 417.25C137.161 417.25 137.533 417.151 137.809 416.952C138.087 416.75 138.226 416.509 138.226 416.227C138.226 416 138.147 415.81 137.988 415.656C137.828 415.5 137.584 415.384 137.255 415.307L136.164 415.051C135.564 414.909 135.124 414.689 134.843 414.391C134.564 414.089 134.425 413.713 134.425 413.261C134.425 412.892 134.529 412.565 134.736 412.281C134.946 411.997 135.232 411.774 135.593 411.612C135.956 411.45 136.368 411.369 136.828 411.369C137.476 411.369 137.985 411.511 138.354 411.795C138.726 412.08 138.99 412.455 139.147 412.92Z" fill="black"/>
<path d="M386.847 421.153C386.432 421.153 386.055 421.075 385.717 420.919C385.379 420.76 385.111 420.531 384.912 420.233C384.713 419.932 384.614 419.568 384.614 419.142C384.614 418.767 384.688 418.463 384.835 418.23C384.983 417.994 385.18 417.81 385.428 417.676C385.675 417.543 385.947 417.443 386.246 417.378C386.547 417.31 386.849 417.256 387.153 417.216C387.551 417.165 387.874 417.126 388.121 417.101C388.371 417.072 388.553 417.026 388.666 416.96C388.783 416.895 388.841 416.781 388.841 416.619V416.585C388.841 416.165 388.726 415.838 388.496 415.605C388.268 415.372 387.923 415.256 387.46 415.256C386.98 415.256 386.604 415.361 386.331 415.571C386.058 415.781 385.866 416.006 385.756 416.244L384.801 415.903C384.972 415.506 385.199 415.196 385.483 414.974C385.77 414.75 386.082 414.594 386.42 414.506C386.761 414.415 387.097 414.369 387.426 414.369C387.636 414.369 387.878 414.395 388.151 414.446C388.426 414.494 388.692 414.595 388.947 414.749C389.206 414.902 389.42 415.134 389.591 415.443C389.761 415.753 389.847 416.168 389.847 416.688V421H388.841V420.114H388.79C388.722 420.256 388.608 420.408 388.449 420.57C388.29 420.732 388.078 420.869 387.814 420.983C387.55 421.097 387.227 421.153 386.847 421.153ZM387 420.25C387.398 420.25 387.733 420.172 388.006 420.016C388.281 419.859 388.489 419.658 388.628 419.411C388.77 419.163 388.841 418.903 388.841 418.631V417.71C388.798 417.761 388.705 417.808 388.56 417.851C388.418 417.891 388.253 417.926 388.065 417.957C387.881 417.986 387.7 418.011 387.524 418.034C387.351 418.054 387.21 418.071 387.102 418.085C386.841 418.119 386.597 418.175 386.369 418.251C386.145 418.325 385.963 418.437 385.824 418.588C385.688 418.736 385.619 418.937 385.619 419.193C385.619 419.543 385.749 419.807 386.007 419.986C386.268 420.162 386.599 420.25 387 420.25ZM394.324 423.591C393.838 423.591 393.421 423.528 393.071 423.403C392.722 423.281 392.431 423.119 392.198 422.918C391.968 422.719 391.784 422.506 391.648 422.278L392.449 421.716C392.54 421.835 392.655 421.972 392.794 422.125C392.934 422.281 393.124 422.416 393.365 422.53C393.61 422.646 393.929 422.705 394.324 422.705C394.853 422.705 395.289 422.577 395.632 422.321C395.976 422.065 396.148 421.665 396.148 421.119V419.79H396.063C395.989 419.909 395.884 420.057 395.748 420.233C395.614 420.406 395.421 420.561 395.168 420.697C394.918 420.831 394.58 420.898 394.154 420.898C393.625 420.898 393.151 420.773 392.73 420.523C392.313 420.273 391.982 419.909 391.738 419.432C391.496 418.955 391.375 418.375 391.375 417.693C391.375 417.023 391.493 416.439 391.729 415.942C391.965 415.442 392.293 415.055 392.713 414.783C393.134 414.507 393.62 414.369 394.171 414.369C394.597 414.369 394.935 414.44 395.185 414.582C395.438 414.722 395.631 414.881 395.765 415.06C395.901 415.236 396.006 415.381 396.08 415.494H396.182V414.455H397.154V421.188C397.154 421.75 397.026 422.207 396.77 422.56C396.517 422.915 396.176 423.175 395.748 423.339C395.321 423.507 394.847 423.591 394.324 423.591ZM394.29 419.994C394.694 419.994 395.034 419.902 395.313 419.717C395.591 419.533 395.803 419.267 395.948 418.92C396.093 418.574 396.165 418.159 396.165 417.676C396.165 417.205 396.094 416.788 395.952 416.428C395.81 416.067 395.6 415.784 395.321 415.58C395.043 415.375 394.699 415.273 394.29 415.273C393.864 415.273 393.509 415.381 393.225 415.597C392.944 415.812 392.732 416.102 392.59 416.466C392.451 416.83 392.381 417.233 392.381 417.676C392.381 418.131 392.452 418.533 392.594 418.882C392.739 419.229 392.952 419.501 393.233 419.7C393.517 419.896 393.87 419.994 394.29 419.994ZM398.995 421V414.455H399.966V415.443H400.034C400.154 415.119 400.37 414.857 400.682 414.655C400.995 414.453 401.347 414.352 401.739 414.352C401.813 414.352 401.905 414.354 402.016 414.357C402.127 414.359 402.211 414.364 402.267 414.369V415.392C402.233 415.384 402.155 415.371 402.033 415.354C401.914 415.334 401.787 415.324 401.654 415.324C401.336 415.324 401.051 415.391 400.801 415.524C400.554 415.655 400.358 415.837 400.213 416.07C400.071 416.3 400 416.562 400 416.858V421H398.995ZM406.005 421.136C405.374 421.136 404.83 420.997 404.373 420.719C403.918 420.438 403.567 420.045 403.32 419.543C403.076 419.037 402.953 418.449 402.953 417.778C402.953 417.108 403.076 416.517 403.32 416.006C403.567 415.491 403.911 415.091 404.351 414.804C404.794 414.514 405.311 414.369 405.902 414.369C406.243 414.369 406.58 414.426 406.912 414.54C407.245 414.653 407.547 414.838 407.82 415.094C408.093 415.347 408.31 415.682 408.472 416.099C408.634 416.517 408.715 417.031 408.715 417.642V418.068H403.669V417.199H407.692C407.692 416.83 407.618 416.5 407.471 416.21C407.326 415.92 407.118 415.692 406.848 415.524C406.581 415.357 406.266 415.273 405.902 415.273C405.502 415.273 405.155 415.372 404.863 415.571C404.573 415.767 404.35 416.023 404.194 416.338C404.037 416.653 403.959 416.991 403.959 417.352V417.932C403.959 418.426 404.044 418.845 404.215 419.189C404.388 419.53 404.628 419.79 404.935 419.969C405.242 420.145 405.598 420.233 406.005 420.233C406.269 420.233 406.507 420.196 406.721 420.122C406.936 420.045 407.123 419.932 407.279 419.781C407.435 419.628 407.556 419.437 407.641 419.21L408.613 419.483C408.51 419.812 408.338 420.102 408.097 420.352C407.855 420.599 407.557 420.793 407.202 420.932C406.847 421.068 406.448 421.136 406.005 421.136ZM412.989 421.136C412.358 421.136 411.814 420.997 411.357 420.719C410.902 420.438 410.551 420.045 410.304 419.543C410.06 419.037 409.938 418.449 409.938 417.778C409.938 417.108 410.06 416.517 410.304 416.006C410.551 415.491 410.895 415.091 411.336 414.804C411.779 414.514 412.296 414.369 412.887 414.369C413.228 414.369 413.564 414.426 413.897 414.54C414.229 414.653 414.532 414.838 414.804 415.094C415.077 415.347 415.294 415.682 415.456 416.099C415.618 416.517 415.699 417.031 415.699 417.642V418.068H410.654V417.199H414.676C414.676 416.83 414.603 416.5 414.455 416.21C414.31 415.92 414.103 415.692 413.833 415.524C413.566 415.357 413.25 415.273 412.887 415.273C412.486 415.273 412.14 415.372 411.847 415.571C411.557 415.767 411.334 416.023 411.178 416.338C411.022 416.653 410.944 416.991 410.944 417.352V417.932C410.944 418.426 411.029 418.845 411.199 419.189C411.373 419.53 411.613 419.79 411.919 419.969C412.226 420.145 412.583 420.233 412.989 420.233C413.253 420.233 413.492 420.196 413.705 420.122C413.921 420.045 414.107 419.932 414.263 419.781C414.419 419.628 414.54 419.437 414.625 419.21L415.597 419.483C415.495 419.812 415.323 420.102 415.081 420.352C414.84 420.599 414.542 420.793 414.186 420.932C413.831 421.068 413.432 421.136 412.989 421.136ZM419.155 421.153C418.74 421.153 418.364 421.075 418.026 420.919C417.688 420.76 417.419 420.531 417.221 420.233C417.022 419.932 416.922 419.568 416.922 419.142C416.922 418.767 416.996 418.463 417.144 418.23C417.292 417.994 417.489 417.81 417.736 417.676C417.983 417.543 418.256 417.443 418.554 417.378C418.855 417.31 419.158 417.256 419.462 417.216C419.86 417.165 420.182 417.126 420.429 417.101C420.679 417.072 420.861 417.026 420.975 416.96C421.091 416.895 421.15 416.781 421.15 416.619V416.585C421.15 416.165 421.034 415.838 420.804 415.605C420.577 415.372 420.232 415.256 419.769 415.256C419.289 415.256 418.912 415.361 418.64 415.571C418.367 415.781 418.175 416.006 418.064 416.244L417.11 415.903C417.28 415.506 417.507 415.196 417.792 414.974C418.078 414.75 418.391 414.594 418.729 414.506C419.07 414.415 419.405 414.369 419.735 414.369C419.945 414.369 420.186 414.395 420.459 414.446C420.735 414.494 421 414.595 421.256 414.749C421.515 414.902 421.729 415.134 421.9 415.443C422.07 415.753 422.155 416.168 422.155 416.688V421H421.15V420.114H421.098C421.03 420.256 420.917 420.408 420.757 420.57C420.598 420.732 420.387 420.869 420.123 420.983C419.858 421.097 419.536 421.153 419.155 421.153ZM419.309 420.25C419.706 420.25 420.042 420.172 420.314 420.016C420.59 419.859 420.797 419.658 420.936 419.411C421.078 419.163 421.15 418.903 421.15 418.631V417.71C421.107 417.761 421.013 417.808 420.868 417.851C420.726 417.891 420.561 417.926 420.374 417.957C420.189 417.986 420.009 418.011 419.833 418.034C419.659 418.054 419.519 418.071 419.411 418.085C419.15 418.119 418.905 418.175 418.678 418.251C418.453 418.325 418.272 418.437 418.132 418.588C417.996 418.736 417.928 418.937 417.928 419.193C417.928 419.543 418.057 419.807 418.316 419.986C418.577 420.162 418.908 420.25 419.309 420.25ZM424.127 421V412.273H425.133V415.494H425.218C425.292 415.381 425.394 415.236 425.525 415.06C425.658 414.881 425.849 414.722 426.096 414.582C426.346 414.44 426.684 414.369 427.11 414.369C427.661 414.369 428.147 414.507 428.567 414.783C428.988 415.058 429.316 415.449 429.552 415.955C429.788 416.46 429.906 417.057 429.906 417.744C429.906 418.438 429.788 419.038 429.552 419.547C429.316 420.053 428.989 420.445 428.572 420.723C428.154 420.999 427.673 421.136 427.127 421.136C426.707 421.136 426.37 421.067 426.117 420.928C425.864 420.786 425.67 420.625 425.533 420.446C425.397 420.264 425.292 420.114 425.218 419.994H425.099V421H424.127ZM425.116 417.727C425.116 418.222 425.188 418.658 425.333 419.036C425.478 419.411 425.69 419.705 425.968 419.918C426.246 420.128 426.587 420.233 426.991 420.233C427.411 420.233 427.762 420.122 428.043 419.901C428.327 419.676 428.54 419.375 428.683 418.997C428.827 418.616 428.9 418.193 428.9 417.727C428.9 417.267 428.829 416.852 428.687 416.483C428.548 416.111 428.336 415.817 428.052 415.601C427.771 415.382 427.417 415.273 426.991 415.273C426.582 415.273 426.238 415.376 425.96 415.584C425.681 415.788 425.471 416.075 425.329 416.445C425.187 416.811 425.116 417.239 425.116 417.727ZM432.45 412.273V421H431.444V412.273H432.45ZM437.036 421.136C436.405 421.136 435.861 420.997 435.404 420.719C434.949 420.438 434.598 420.045 434.351 419.543C434.107 419.037 433.985 418.449 433.985 417.778C433.985 417.108 434.107 416.517 434.351 416.006C434.598 415.491 434.942 415.091 435.382 414.804C435.826 414.514 436.343 414.369 436.934 414.369C437.275 414.369 437.611 414.426 437.944 414.54C438.276 414.653 438.578 414.838 438.851 415.094C439.124 415.347 439.341 415.682 439.503 416.099C439.665 416.517 439.746 417.031 439.746 417.642V418.068H434.701V417.199H438.723C438.723 416.83 438.65 416.5 438.502 416.21C438.357 415.92 438.15 415.692 437.88 415.524C437.613 415.357 437.297 415.273 436.934 415.273C436.533 415.273 436.186 415.372 435.894 415.571C435.604 415.767 435.381 416.023 435.225 416.338C435.069 416.653 434.99 416.991 434.99 417.352V417.932C434.99 418.426 435.076 418.845 435.246 419.189C435.419 419.53 435.659 419.79 435.966 419.969C436.273 420.145 436.63 420.233 437.036 420.233C437.3 420.233 437.539 420.196 437.752 420.122C437.968 420.045 438.154 419.932 438.31 419.781C438.466 419.628 438.587 419.437 438.672 419.21L439.644 419.483C439.542 419.812 439.37 420.102 439.128 420.352C438.887 420.599 438.588 420.793 438.233 420.932C437.878 421.068 437.479 421.136 437.036 421.136ZM442.282 417.062V421H441.276V414.455H442.248V415.477H442.333C442.486 415.145 442.719 414.878 443.032 414.676C443.344 414.472 443.748 414.369 444.242 414.369C444.685 414.369 445.073 414.46 445.405 414.642C445.738 414.821 445.996 415.094 446.181 415.46C446.365 415.824 446.458 416.284 446.458 416.841V421H445.452V416.909C445.452 416.395 445.319 415.994 445.051 415.707C444.784 415.418 444.418 415.273 443.952 415.273C443.631 415.273 443.344 415.342 443.091 415.482C442.841 415.621 442.644 415.824 442.499 416.091C442.354 416.358 442.282 416.682 442.282 417.062ZM451.04 421.136C450.409 421.136 449.865 420.997 449.408 420.719C448.953 420.438 448.602 420.045 448.355 419.543C448.111 419.037 447.989 418.449 447.989 417.778C447.989 417.108 448.111 416.517 448.355 416.006C448.602 415.491 448.946 415.091 449.386 414.804C449.83 414.514 450.347 414.369 450.938 414.369C451.278 414.369 451.615 414.426 451.947 414.54C452.28 414.653 452.582 414.838 452.855 415.094C453.128 415.347 453.345 415.682 453.507 416.099C453.669 416.517 453.75 417.031 453.75 417.642V418.068H448.705V417.199H452.727C452.727 416.83 452.653 416.5 452.506 416.21C452.361 415.92 452.153 415.692 451.884 415.524C451.616 415.357 451.301 415.273 450.938 415.273C450.537 415.273 450.19 415.372 449.898 415.571C449.608 415.767 449.385 416.023 449.229 416.338C449.072 416.653 448.994 416.991 448.994 417.352V417.932C448.994 418.426 449.08 418.845 449.25 419.189C449.423 419.53 449.663 419.79 449.97 419.969C450.277 420.145 450.634 420.233 451.04 420.233C451.304 420.233 451.543 420.196 451.756 420.122C451.972 420.045 452.158 419.932 452.314 419.781C452.47 419.628 452.591 419.437 452.676 419.21L453.648 419.483C453.545 419.812 453.374 420.102 453.132 420.352C452.891 420.599 452.592 420.793 452.237 420.932C451.882 421.068 451.483 421.136 451.04 421.136ZM459.916 415.92L459.013 416.176C458.956 416.026 458.872 415.879 458.761 415.737C458.653 415.592 458.506 415.473 458.318 415.379C458.131 415.286 457.891 415.239 457.598 415.239C457.197 415.239 456.864 415.331 456.597 415.516C456.332 415.697 456.2 415.929 456.2 416.21C456.2 416.46 456.291 416.658 456.473 416.803C456.655 416.947 456.939 417.068 457.325 417.165L458.297 417.403C458.882 417.545 459.318 417.763 459.605 418.055C459.892 418.345 460.036 418.719 460.036 419.176C460.036 419.551 459.928 419.886 459.712 420.182C459.499 420.477 459.2 420.71 458.817 420.881C458.433 421.051 457.987 421.136 457.479 421.136C456.811 421.136 456.259 420.991 455.821 420.702C455.384 420.412 455.107 419.989 454.99 419.432L455.945 419.193C456.036 419.545 456.207 419.81 456.46 419.986C456.716 420.162 457.05 420.25 457.462 420.25C457.93 420.25 458.303 420.151 458.578 419.952C458.857 419.75 458.996 419.509 458.996 419.227C458.996 419 458.916 418.81 458.757 418.656C458.598 418.5 458.354 418.384 458.024 418.307L456.933 418.051C456.334 417.909 455.893 417.689 455.612 417.391C455.334 417.089 455.195 416.713 455.195 416.261C455.195 415.892 455.298 415.565 455.506 415.281C455.716 414.997 456.001 414.774 456.362 414.612C456.726 414.45 457.138 414.369 457.598 414.369C458.246 414.369 458.754 414.511 459.124 414.795C459.496 415.08 459.76 415.455 459.916 415.92ZM466.186 415.92L465.282 416.176C465.225 416.026 465.142 415.879 465.031 415.737C464.923 415.592 464.775 415.473 464.588 415.379C464.4 415.286 464.16 415.239 463.868 415.239C463.467 415.239 463.133 415.331 462.866 415.516C462.602 415.697 462.47 415.929 462.47 416.21C462.47 416.46 462.561 416.658 462.743 416.803C462.924 416.947 463.208 417.068 463.595 417.165L464.566 417.403C465.152 417.545 465.588 417.763 465.875 418.055C466.162 418.345 466.305 418.719 466.305 419.176C466.305 419.551 466.197 419.886 465.981 420.182C465.768 420.477 465.47 420.71 465.086 420.881C464.703 421.051 464.257 421.136 463.748 421.136C463.081 421.136 462.528 420.991 462.091 420.702C461.653 420.412 461.376 419.989 461.26 419.432L462.214 419.193C462.305 419.545 462.477 419.81 462.73 419.986C462.985 420.162 463.319 420.25 463.731 420.25C464.2 420.25 464.572 420.151 464.848 419.952C465.126 419.75 465.265 419.509 465.265 419.227C465.265 419 465.186 418.81 465.027 418.656C464.868 418.5 464.623 418.384 464.294 418.307L463.203 418.051C462.603 417.909 462.163 417.689 461.882 417.391C461.603 417.089 461.464 416.713 461.464 416.261C461.464 415.892 461.568 415.565 461.775 415.281C461.985 414.997 462.271 414.774 462.632 414.612C462.995 414.45 463.407 414.369 463.868 414.369C464.515 414.369 465.024 414.511 465.393 414.795C465.765 415.08 466.029 415.455 466.186 415.92Z" fill="black"/>
<path d="M63.7925 168.261L261.5 24.618L459.208 168.261L383.69 400.68H139.31L63.7925 168.261Z" stroke="#E7E7E7"/>
<path d="M88.9344 176.188L261.044 49.258L433.153 176.188L367.41 381.574H154.677L88.9344 176.188Z" stroke="#E7E7E7"/>
<path d="M114.99 184.364L261.5 75.7211L408.009 184.364L352.044 360.166H170.956L114.99 184.364Z" stroke="#E7E7E7"/>
<path d="M139.289 191.944L261.5 101.27L383.711 191.944L337.026 338.671H185.974L139.289 191.944Z" stroke="#E7E7E7"/>
<path d="M162.698 199.839L261.044 126.82L359.39 199.839L321.821 318.001H200.267L162.698 199.839Z" stroke="#E7E7E7"/>
<path d="M187.865 208.299L261.044 154.193L334.222 208.299L306.267 295.855H215.82L187.865 208.299Z" stroke="#E7E7E7"/>
<path d="M212.186 216.194L261.5 179.742L310.814 216.194L291.974 275.185H231.026L212.186 216.194Z" stroke="#E7E7E7"/>
<path d="M236.485 224.686L261.5 206.204L286.515 224.686L276.957 254.602H246.043L236.485 224.686Z" stroke="#E7E7E7"/>
<line x1="64.1079" y1="166.784" x2="261.202" y2="232.482" stroke="#E7E7E7"/>
<line x1="260.888" y1="232.744" x2="459.807" y2="167.696" stroke="#E7E7E7"/>
<line x1="261.544" y1="24.9126" x2="261.544" y2="232.668" stroke="#E7E7E7"/>
<line x1="139.279" y1="401.085" x2="260.921" y2="232.664" stroke="#E7E7E7"/>
<line x1="383.234" y1="401.167" x2="261.551" y2="233.25" stroke="#E7E7E7"/>
<circle cx="262" cy="61" r="3.5" fill="#1A9DAE" stroke="white"/>
<circle cx="395" cy="189" r="3.5" fill="#1A9DAE" stroke="white"/>
<circle cx="314" cy="306" r="3.5" fill="#1A9DAE" stroke="white"/>
<circle cx="171" cy="358" r="3.5" fill="#1A9DAE" stroke="white"/>
<circle cx="124" cy="187" r="3.5" fill="#1A9DAE" stroke="white"/>
<line x1="124.966" y1="188.74" x2="169.966" y2="355.74" stroke="#1A9DAE" stroke-width="2"/>
<line x1="125.327" y1="184.261" x2="259.327" y2="62.2606" stroke="#1A9DAE" stroke-width="2"/>
<line x1="264.696" y1="61.2819" x2="394.696" y2="187.282" stroke="#1A9DAE" stroke-width="2"/>
<line x1="394.82" y1="191.573" x2="315.82" y2="304.573" stroke="#1A9DAE" stroke-width="2"/>
<line x1="312.338" y1="307.941" x2="173.338" y2="357.941" stroke="#1A9DAE" stroke-width="2"/>
</svg>
