<svg width="547" height="448" viewBox="0 0 547 448" fill="none" xmlns="http://www.w3.org/2000/svg">
<path d="M232.176 14.1591C231.46 14.1591 230.844 13.9901 230.327 13.652C229.81 13.3139 229.412 12.8482 229.134 12.255C228.855 11.6617 228.716 10.9839 228.716 10.2216C228.716 9.44602 228.858 8.7616 229.143 8.16832C229.432 7.57173 229.833 7.10606 230.347 6.77131C230.864 6.43324 231.467 6.2642 232.156 6.2642C232.693 6.2642 233.177 6.36364 233.608 6.5625C234.039 6.76136 234.392 7.03977 234.667 7.39773C234.942 7.75568 235.113 8.1733 235.179 8.65057H234.006C233.916 8.30256 233.717 7.99432 233.409 7.72585C233.104 7.45407 232.693 7.31818 232.176 7.31818C231.719 7.31818 231.318 7.4375 230.973 7.67614C230.632 7.91146 230.365 8.24455 230.173 8.67543C229.984 9.10298 229.889 9.60511 229.889 10.1818C229.889 10.7718 229.982 11.2855 230.168 11.723C230.357 12.1605 230.622 12.5002 230.963 12.7422C231.308 12.9841 231.712 13.1051 232.176 13.1051C232.481 13.1051 232.758 13.0521 233.006 12.946C233.255 12.84 233.465 12.6875 233.638 12.4886C233.81 12.2898 233.933 12.0511 234.006 11.7727H235.179C235.113 12.2235 234.949 12.6295 234.687 12.9908C234.428 13.3487 234.085 13.6338 233.658 13.8459C233.233 14.0547 232.74 14.1591 232.176 14.1591ZM239.141 14.179C238.657 14.179 238.218 14.0878 237.824 13.9055C237.429 13.7199 237.116 13.4531 236.884 13.1051C236.652 12.7538 236.536 12.3295 236.536 11.8324C236.536 11.3949 236.622 11.0402 236.795 10.7685C236.967 10.4934 237.197 10.2779 237.486 10.1222C237.774 9.96638 238.092 9.85038 238.44 9.77415C238.792 9.6946 239.145 9.63163 239.499 9.58523C239.963 9.52557 240.339 9.48082 240.628 9.45099C240.92 9.41785 241.132 9.36316 241.264 9.28693C241.4 9.2107 241.468 9.07812 241.468 8.8892V8.84943C241.468 8.3589 241.334 7.97775 241.065 7.70597C240.8 7.43419 240.397 7.2983 239.857 7.2983C239.297 7.2983 238.858 7.42093 238.54 7.66619C238.222 7.91146 237.998 8.1733 237.869 8.4517L236.755 8.05398C236.954 7.58996 237.219 7.22869 237.55 6.97017C237.885 6.70833 238.25 6.52604 238.644 6.4233C239.042 6.31723 239.433 6.2642 239.817 6.2642C240.063 6.2642 240.344 6.29403 240.663 6.35369C240.984 6.41004 241.294 6.5277 241.592 6.70668C241.894 6.88565 242.144 7.15578 242.343 7.51705C242.542 7.87831 242.641 8.36222 242.641 8.96875V14H241.468V12.9659H241.408C241.329 13.1316 241.196 13.3089 241.011 13.4979C240.825 13.6868 240.578 13.8475 240.27 13.9801C239.962 14.1127 239.585 14.179 239.141 14.179ZM239.32 13.125C239.784 13.125 240.175 13.0339 240.494 12.8516C240.815 12.6693 241.057 12.4339 241.219 12.1456C241.385 11.8572 241.468 11.554 241.468 11.2358V10.1619C241.418 10.2216 241.309 10.2763 241.14 10.326C240.974 10.3724 240.782 10.4138 240.563 10.4503C240.348 10.4834 240.137 10.5133 239.932 10.5398C239.73 10.563 239.566 10.5829 239.44 10.5994C239.135 10.6392 238.85 10.7038 238.585 10.7933C238.323 10.8795 238.111 11.0104 237.948 11.1861C237.789 11.3584 237.71 11.5937 237.71 11.892C237.71 12.2997 237.86 12.608 238.162 12.8168C238.467 13.0223 238.853 13.125 239.32 13.125ZM245.956 3.81818V14H244.783V3.81818H245.956ZM251.207 14.1591C250.491 14.1591 249.875 13.9901 249.358 13.652C248.841 13.3139 248.443 12.8482 248.165 12.255C247.886 11.6617 247.747 10.9839 247.747 10.2216C247.747 9.44602 247.89 8.7616 248.175 8.16832C248.463 7.57173 248.864 7.10606 249.378 6.77131C249.895 6.43324 250.498 6.2642 251.188 6.2642C251.724 6.2642 252.208 6.36364 252.639 6.5625C253.07 6.76136 253.423 7.03977 253.698 7.39773C253.973 7.75568 254.144 8.1733 254.21 8.65057H253.037C252.947 8.30256 252.749 7.99432 252.44 7.72585C252.135 7.45407 251.724 7.31818 251.207 7.31818C250.75 7.31818 250.349 7.4375 250.004 7.67614C249.663 7.91146 249.396 8.24455 249.204 8.67543C249.015 9.10298 248.92 9.60511 248.92 10.1818C248.92 10.7718 249.013 11.2855 249.199 11.723C249.388 12.1605 249.653 12.5002 249.994 12.7422C250.339 12.9841 250.743 13.1051 251.207 13.1051C251.512 13.1051 251.789 13.0521 252.038 12.946C252.286 12.84 252.497 12.6875 252.669 12.4886C252.841 12.2898 252.964 12.0511 253.037 11.7727H254.21C254.144 12.2235 253.98 12.6295 253.718 12.9908C253.46 13.3487 253.116 13.6338 252.689 13.8459C252.265 14.0547 251.771 14.1591 251.207 14.1591ZM260.738 10.8778V6.36364H261.911V14H260.738V12.7074H260.658C260.479 13.0952 260.201 13.425 259.823 13.6967C259.445 13.9652 258.968 14.0994 258.391 14.0994C257.914 14.0994 257.49 13.995 257.119 13.7862C256.747 13.5741 256.456 13.2559 256.244 12.8317C256.031 12.4041 255.925 11.8655 255.925 11.2159V6.36364H257.099V11.1364C257.099 11.6932 257.254 12.1373 257.566 12.4688C257.881 12.8002 258.282 12.9659 258.769 12.9659C259.061 12.9659 259.357 12.8913 259.659 12.7422C259.964 12.593 260.219 12.3643 260.425 12.0561C260.634 11.7479 260.738 11.3551 260.738 10.8778ZM265.233 3.81818V14H264.06V3.81818H265.233ZM269.63 14.179C269.146 14.179 268.707 14.0878 268.312 13.9055C267.918 13.7199 267.605 13.4531 267.373 13.1051C267.141 12.7538 267.025 12.3295 267.025 11.8324C267.025 11.3949 267.111 11.0402 267.283 10.7685C267.455 10.4934 267.686 10.2779 267.974 10.1222C268.262 9.96638 268.581 9.85038 268.929 9.77415C269.28 9.6946 269.633 9.63163 269.988 9.58523C270.452 9.52557 270.828 9.48082 271.116 9.45099C271.408 9.41785 271.62 9.36316 271.752 9.28693C271.888 9.2107 271.956 9.07812 271.956 8.8892V8.84943C271.956 8.3589 271.822 7.97775 271.554 7.70597C271.288 7.43419 270.886 7.2983 270.346 7.2983C269.785 7.2983 269.346 7.42093 269.028 7.66619C268.71 7.91146 268.486 8.1733 268.357 8.4517L267.243 8.05398C267.442 7.58996 267.707 7.22869 268.039 6.97017C268.373 6.70833 268.738 6.52604 269.132 6.4233C269.53 6.31723 269.921 6.2642 270.306 6.2642C270.551 6.2642 270.833 6.29403 271.151 6.35369C271.472 6.41004 271.782 6.5277 272.081 6.70668C272.382 6.88565 272.632 7.15578 272.831 7.51705C273.03 7.87831 273.13 8.36222 273.13 8.96875V14H271.956V12.9659H271.897C271.817 13.1316 271.685 13.3089 271.499 13.4979C271.313 13.6868 271.066 13.8475 270.758 13.9801C270.45 14.1127 270.074 14.179 269.63 14.179ZM269.809 13.125C270.273 13.125 270.664 13.0339 270.982 12.8516C271.303 12.6693 271.545 12.4339 271.708 12.1456C271.873 11.8572 271.956 11.554 271.956 11.2358V10.1619C271.907 10.2216 271.797 10.2763 271.628 10.326C271.462 10.3724 271.27 10.4138 271.051 10.4503C270.836 10.4834 270.626 10.5133 270.42 10.5398C270.218 10.563 270.054 10.5829 269.928 10.5994C269.623 10.6392 269.338 10.7038 269.073 10.7933C268.811 10.8795 268.599 11.0104 268.436 11.1861C268.277 11.3584 268.198 11.5937 268.198 11.892C268.198 12.2997 268.349 12.608 268.65 12.8168C268.955 13.0223 269.341 13.125 269.809 13.125ZM278.592 6.36364V7.35795H274.635V6.36364H278.592ZM275.788 4.53409H276.961V11.8125C276.961 12.1439 277.01 12.3925 277.106 12.5582C277.205 12.7206 277.331 12.83 277.483 12.8864C277.639 12.9394 277.803 12.9659 277.976 12.9659C278.105 12.9659 278.211 12.9593 278.294 12.946C278.377 12.9295 278.443 12.9162 278.493 12.9062L278.731 13.9602C278.652 13.9901 278.541 14.0199 278.398 14.0497C278.256 14.0829 278.075 14.0994 277.856 14.0994C277.525 14.0994 277.2 14.0282 276.882 13.8857C276.567 13.7431 276.305 13.526 276.096 13.2344C275.891 12.9427 275.788 12.5748 275.788 12.1307V4.53409ZM280.357 14V6.36364H281.53V14H280.357ZM280.954 5.09091C280.725 5.09091 280.528 5.01302 280.362 4.85724C280.2 4.70147 280.118 4.5142 280.118 4.29545C280.118 4.0767 280.2 3.88944 280.362 3.73366C280.528 3.57789 280.725 3.5 280.954 3.5C281.182 3.5 281.378 3.57789 281.54 3.73366C281.706 3.88944 281.789 4.0767 281.789 4.29545C281.789 4.5142 281.706 4.70147 281.54 4.85724C281.378 5.01302 281.182 5.09091 280.954 5.09091ZM289.924 6.36364L287.1 14H285.907L283.083 6.36364H284.355L286.463 12.4489H286.543L288.651 6.36364H289.924ZM294.401 14.1591C293.665 14.1591 293.03 13.9967 292.496 13.6719C291.966 13.3438 291.557 12.8864 291.268 12.2997C290.983 11.7098 290.841 11.0237 290.841 10.2415C290.841 9.45928 290.983 8.76989 291.268 8.1733C291.557 7.57339 291.958 7.10606 292.472 6.77131C292.989 6.43324 293.592 6.2642 294.281 6.2642C294.679 6.2642 295.072 6.33049 295.46 6.46307C295.847 6.59564 296.2 6.81108 296.518 7.10938C296.837 7.40436 297.09 7.79545 297.279 8.28267C297.468 8.76989 297.562 9.36979 297.562 10.0824V10.5795H291.676V9.56534H296.369C296.369 9.13447 296.283 8.75 296.111 8.41193C295.942 8.07386 295.7 7.80705 295.385 7.61151C295.073 7.41596 294.705 7.31818 294.281 7.31818C293.814 7.31818 293.41 7.43419 293.068 7.66619C292.73 7.89489 292.47 8.19318 292.288 8.56108C292.105 8.92898 292.014 9.32339 292.014 9.74432V10.4205C292.014 10.9972 292.114 11.486 292.312 11.8871C292.515 12.2848 292.795 12.5881 293.153 12.7969C293.511 13.0024 293.927 13.1051 294.401 13.1051C294.709 13.1051 294.987 13.062 295.236 12.9759C295.488 12.8864 295.705 12.7538 295.887 12.5781C296.069 12.3991 296.21 12.1771 296.31 11.9119L297.443 12.2301C297.324 12.6146 297.123 12.9527 296.842 13.2443C296.56 13.5327 296.212 13.758 295.798 13.9205C295.383 14.0795 294.918 14.1591 294.401 14.1591ZM300.521 9.40625V14H299.347V6.36364H300.481V7.55682H300.58C300.759 7.16903 301.031 6.85748 301.396 6.62216C301.76 6.38352 302.231 6.2642 302.808 6.2642C303.325 6.2642 303.777 6.37027 304.165 6.58239C304.553 6.79119 304.854 7.10938 305.07 7.53693C305.285 7.96117 305.393 8.49811 305.393 9.14773V14H304.219V9.22727C304.219 8.62737 304.064 8.16004 303.752 7.82528C303.441 7.48722 303.013 7.31818 302.469 7.31818C302.095 7.31818 301.76 7.39938 301.465 7.56179C301.174 7.72419 300.943 7.96117 300.774 8.27273C300.605 8.58428 300.521 8.96212 300.521 9.40625ZM310.738 14.1591C310.003 14.1591 309.368 13.9967 308.834 13.6719C308.304 13.3438 307.895 12.8864 307.606 12.2997C307.321 11.7098 307.179 11.0237 307.179 10.2415C307.179 9.45928 307.321 8.76989 307.606 8.1733C307.895 7.57339 308.296 7.10606 308.809 6.77131C309.327 6.43324 309.93 6.2642 310.619 6.2642C311.017 6.2642 311.41 6.33049 311.797 6.46307C312.185 6.59564 312.538 6.81108 312.856 7.10938C313.175 7.40436 313.428 7.79545 313.617 8.28267C313.806 8.76989 313.9 9.36979 313.9 10.0824V10.5795H308.014V9.56534H312.707C312.707 9.13447 312.621 8.75 312.449 8.41193C312.28 8.07386 312.038 7.80705 311.723 7.61151C311.411 7.41596 311.043 7.31818 310.619 7.31818C310.152 7.31818 309.747 7.43419 309.406 7.66619C309.068 7.89489 308.808 8.19318 308.626 8.56108C308.443 8.92898 308.352 9.32339 308.352 9.74432V10.4205C308.352 10.9972 308.452 11.486 308.65 11.8871C308.853 12.2848 309.133 12.5881 309.491 12.7969C309.849 13.0024 310.265 13.1051 310.738 13.1051C311.047 13.1051 311.325 13.062 311.574 12.9759C311.826 12.8864 312.043 12.7538 312.225 12.5781C312.407 12.3991 312.548 12.1771 312.648 11.9119L313.781 12.2301C313.662 12.6146 313.461 12.9527 313.18 13.2443C312.898 13.5327 312.55 13.758 312.135 13.9205C311.721 14.0795 311.256 14.1591 310.738 14.1591ZM321.094 8.07386L320.04 8.37216C319.974 8.1965 319.876 8.0258 319.747 7.86009C319.621 7.69105 319.449 7.55185 319.23 7.44247C319.011 7.3331 318.731 7.27841 318.39 7.27841C317.922 7.27841 317.533 7.38613 317.221 7.60156C316.913 7.81368 316.759 8.08381 316.759 8.41193C316.759 8.7036 316.865 8.93395 317.077 9.10298C317.289 9.27202 317.621 9.41288 318.072 9.52557L319.205 9.80398C319.888 9.9697 320.397 10.2232 320.731 10.5646C321.066 10.9027 321.233 11.3385 321.233 11.8722C321.233 12.3097 321.108 12.7008 320.856 13.0455C320.607 13.3902 320.259 13.6619 319.812 13.8608C319.364 14.0597 318.844 14.1591 318.251 14.1591C317.472 14.1591 316.827 13.9901 316.317 13.652C315.806 13.3139 315.483 12.8201 315.347 12.1705L316.461 11.892C316.567 12.303 316.767 12.6113 317.062 12.8168C317.361 13.0223 317.75 13.125 318.231 13.125C318.778 13.125 319.212 13.009 319.533 12.777C319.858 12.5417 320.02 12.2599 320.02 11.9318C320.02 11.6667 319.928 11.4446 319.742 11.2656C319.556 11.0833 319.271 10.9474 318.887 10.858L317.614 10.5597C316.915 10.3939 316.401 10.1371 316.073 9.78906C315.748 9.43774 315.586 8.99858 315.586 8.47159C315.586 8.04072 315.707 7.65956 315.949 7.32812C316.194 6.99669 316.527 6.73651 316.948 6.54758C317.372 6.35866 317.853 6.2642 318.39 6.2642C319.145 6.2642 319.739 6.42992 320.17 6.76136C320.604 7.0928 320.912 7.5303 321.094 8.07386ZM328.409 8.07386L327.355 8.37216C327.288 8.1965 327.191 8.0258 327.061 7.86009C326.935 7.69105 326.763 7.55185 326.544 7.44247C326.326 7.3331 326.046 7.27841 325.704 7.27841C325.237 7.27841 324.847 7.38613 324.536 7.60156C324.228 7.81368 324.074 8.08381 324.074 8.41193C324.074 8.7036 324.18 8.93395 324.392 9.10298C324.604 9.27202 324.935 9.41288 325.386 9.52557L326.52 9.80398C327.202 9.9697 327.711 10.2232 328.046 10.5646C328.381 10.9027 328.548 11.3385 328.548 11.8722C328.548 12.3097 328.422 12.7008 328.17 13.0455C327.922 13.3902 327.574 13.6619 327.126 13.8608C326.679 14.0597 326.158 14.1591 325.565 14.1591C324.786 14.1591 324.141 13.9901 323.631 13.652C323.121 13.3139 322.797 12.8201 322.662 12.1705L323.775 11.892C323.881 12.303 324.082 12.6113 324.377 12.8168C324.675 13.0223 325.065 13.125 325.545 13.125C326.092 13.125 326.526 13.009 326.848 12.777C327.172 12.5417 327.335 12.2599 327.335 11.9318C327.335 11.6667 327.242 11.4446 327.056 11.2656C326.871 11.0833 326.586 10.9474 326.201 10.858L324.929 10.5597C324.229 10.3939 323.716 10.1371 323.387 9.78906C323.063 9.43774 322.9 8.99858 322.9 8.47159C322.9 8.04072 323.021 7.65956 323.263 7.32812C323.508 6.99669 323.842 6.73651 324.262 6.54758C324.687 6.35866 325.167 6.2642 325.704 6.2642C326.46 6.2642 327.053 6.42992 327.484 6.76136C327.918 7.0928 328.226 7.5303 328.409 8.07386Z" fill="black"/>
<path d="M487.074 229V221.364H488.247V229H487.074ZM487.67 220.091C487.442 220.091 487.245 220.013 487.079 219.857C486.916 219.701 486.835 219.514 486.835 219.295C486.835 219.077 486.916 218.889 487.079 218.734C487.245 218.578 487.442 218.5 487.67 218.5C487.899 218.5 488.095 218.578 488.257 218.734C488.423 218.889 488.506 219.077 488.506 219.295C488.506 219.514 488.423 219.701 488.257 219.857C488.095 220.013 487.899 220.091 487.67 220.091ZM491.569 224.406V229H490.396V221.364H491.53V222.557H491.629C491.808 222.169 492.08 221.857 492.444 221.622C492.809 221.384 493.28 221.264 493.856 221.264C494.373 221.264 494.826 221.37 495.214 221.582C495.601 221.791 495.903 222.109 496.118 222.537C496.334 222.961 496.442 223.498 496.442 224.148V229H495.268V224.227C495.268 223.627 495.113 223.16 494.801 222.825C494.489 222.487 494.062 222.318 493.518 222.318C493.144 222.318 492.809 222.399 492.514 222.562C492.222 222.724 491.992 222.961 491.823 223.273C491.654 223.584 491.569 223.962 491.569 224.406ZM501.986 221.364V222.358H497.87V221.364H501.986ZM499.103 229V220.31C499.103 219.872 499.205 219.508 499.411 219.216C499.616 218.924 499.883 218.705 500.211 218.56C500.539 218.414 500.886 218.341 501.25 218.341C501.539 218.341 501.774 218.364 501.956 218.411C502.139 218.457 502.275 218.5 502.364 218.54L502.026 219.554C501.966 219.534 501.883 219.509 501.777 219.479C501.675 219.45 501.539 219.435 501.37 219.435C500.982 219.435 500.702 219.532 500.529 219.728C500.36 219.924 500.276 220.21 500.276 220.588V229H499.103ZM504.804 218.818V229H503.631V218.818H504.804ZM511.765 225.878V221.364H512.939V229H511.765V227.707H511.686C511.507 228.095 511.228 228.425 510.85 228.697C510.473 228.965 509.995 229.099 509.419 229.099C508.941 229.099 508.517 228.995 508.146 228.786C507.775 228.574 507.483 228.256 507.271 227.832C507.059 227.404 506.953 226.866 506.953 226.216V221.364H508.126V226.136C508.126 226.693 508.282 227.137 508.593 227.469C508.908 227.8 509.309 227.966 509.797 227.966C510.088 227.966 510.385 227.891 510.686 227.742C510.991 227.593 511.247 227.364 511.452 227.056C511.661 226.748 511.765 226.355 511.765 225.878ZM518.289 229.159C517.553 229.159 516.919 228.997 516.385 228.672C515.855 228.344 515.445 227.886 515.157 227.3C514.872 226.71 514.73 226.024 514.73 225.241C514.73 224.459 514.872 223.77 515.157 223.173C515.445 222.573 515.847 222.106 516.36 221.771C516.877 221.433 517.481 221.264 518.17 221.264C518.568 221.264 518.96 221.33 519.348 221.463C519.736 221.596 520.089 221.811 520.407 222.109C520.725 222.404 520.979 222.795 521.168 223.283C521.357 223.77 521.451 224.37 521.451 225.082V225.58H515.565V224.565H520.258C520.258 224.134 520.172 223.75 519.999 223.412C519.83 223.074 519.588 222.807 519.274 222.612C518.962 222.416 518.594 222.318 518.17 222.318C517.703 222.318 517.298 222.434 516.957 222.666C516.619 222.895 516.359 223.193 516.176 223.561C515.994 223.929 515.903 224.323 515.903 224.744V225.42C515.903 225.997 516.002 226.486 516.201 226.887C516.403 227.285 516.683 227.588 517.041 227.797C517.399 228.002 517.815 228.105 518.289 228.105C518.597 228.105 518.876 228.062 519.124 227.976C519.376 227.886 519.593 227.754 519.776 227.578C519.958 227.399 520.099 227.177 520.198 226.912L521.332 227.23C521.213 227.615 521.012 227.953 520.73 228.244C520.449 228.533 520.101 228.758 519.686 228.92C519.272 229.08 518.806 229.159 518.289 229.159ZM524.409 224.406V229H523.236V221.364H524.369V222.557H524.469C524.648 222.169 524.92 221.857 525.284 221.622C525.649 221.384 526.119 221.264 526.696 221.264C527.213 221.264 527.666 221.37 528.053 221.582C528.441 221.791 528.743 222.109 528.958 222.537C529.174 222.961 529.281 223.498 529.281 224.148V229H528.108V224.227C528.108 223.627 527.952 223.16 527.641 222.825C527.329 222.487 526.902 222.318 526.358 222.318C525.984 222.318 525.649 222.399 525.354 222.562C525.062 222.724 524.832 222.961 524.663 223.273C524.494 223.584 524.409 223.962 524.409 224.406ZM534.528 229.159C533.812 229.159 533.195 228.99 532.678 228.652C532.161 228.314 531.763 227.848 531.485 227.255C531.207 226.662 531.067 225.984 531.067 225.222C531.067 224.446 531.21 223.762 531.495 223.168C531.783 222.572 532.184 222.106 532.698 221.771C533.215 221.433 533.818 221.264 534.508 221.264C535.045 221.264 535.529 221.364 535.96 221.562C536.39 221.761 536.743 222.04 537.018 222.398C537.294 222.756 537.464 223.173 537.531 223.651H536.357C536.268 223.303 536.069 222.994 535.761 222.726C535.456 222.454 535.045 222.318 534.528 222.318C534.07 222.318 533.669 222.437 533.325 222.676C532.983 222.911 532.716 223.245 532.524 223.675C532.335 224.103 532.241 224.605 532.241 225.182C532.241 225.772 532.334 226.286 532.519 226.723C532.708 227.161 532.973 227.5 533.315 227.742C533.659 227.984 534.064 228.105 534.528 228.105C534.833 228.105 535.109 228.052 535.358 227.946C535.607 227.84 535.817 227.688 535.989 227.489C536.162 227.29 536.284 227.051 536.357 226.773H537.531C537.464 227.223 537.3 227.629 537.038 227.991C536.78 228.349 536.437 228.634 536.009 228.846C535.585 229.055 535.091 229.159 534.528 229.159ZM542.447 229.159C541.712 229.159 541.077 228.997 540.543 228.672C540.013 228.344 539.604 227.886 539.315 227.3C539.03 226.71 538.888 226.024 538.888 225.241C538.888 224.459 539.03 223.77 539.315 223.173C539.604 222.573 540.005 222.106 540.518 221.771C541.036 221.433 541.639 221.264 542.328 221.264C542.726 221.264 543.119 221.33 543.506 221.463C543.894 221.596 544.247 221.811 544.565 222.109C544.884 222.404 545.137 222.795 545.326 223.283C545.515 223.77 545.609 224.37 545.609 225.082V225.58H539.723V224.565H544.416C544.416 224.134 544.33 223.75 544.158 223.412C543.989 223.074 543.747 222.807 543.432 222.612C543.12 222.416 542.752 222.318 542.328 222.318C541.861 222.318 541.456 222.434 541.115 222.666C540.777 222.895 540.517 223.193 540.335 223.561C540.152 223.929 540.061 224.323 540.061 224.744V225.42C540.061 225.997 540.161 226.486 540.359 226.887C540.562 227.285 540.842 227.588 541.2 227.797C541.558 228.002 541.973 228.105 542.447 228.105C542.756 228.105 543.034 228.062 543.283 227.976C543.535 227.886 543.752 227.754 543.934 227.578C544.116 227.399 544.257 227.177 544.357 226.912L545.49 227.23C545.371 227.615 545.17 227.953 544.888 228.244C544.607 228.533 544.259 228.758 543.844 228.92C543.43 229.08 542.964 229.159 542.447 229.159Z" fill="black"/>
<path d="M6.48295 223.074L5.42898 223.372C5.36269 223.196 5.26492 223.026 5.13565 222.86C5.00971 222.691 4.83736 222.552 4.61861 222.442C4.39986 222.333 4.11979 222.278 3.77841 222.278C3.31108 222.278 2.92164 222.386 2.61009 222.602C2.30185 222.814 2.14773 223.084 2.14773 223.412C2.14773 223.704 2.25379 223.934 2.46591 224.103C2.67803 224.272 3.00947 224.413 3.46023 224.526L4.59375 224.804C5.27652 224.97 5.78527 225.223 6.12003 225.565C6.45478 225.903 6.62216 226.339 6.62216 226.872C6.62216 227.31 6.49621 227.701 6.24432 228.045C5.99574 228.39 5.64773 228.662 5.20028 228.861C4.75284 229.06 4.23248 229.159 3.6392 229.159C2.86032 229.159 2.21567 228.99 1.70526 228.652C1.19484 228.314 0.871686 227.82 0.735795 227.17L1.84943 226.892C1.95549 227.303 2.15601 227.611 2.45099 227.817C2.74929 228.022 3.13873 228.125 3.61932 228.125C4.16619 228.125 4.60038 228.009 4.92188 227.777C5.24669 227.542 5.40909 227.26 5.40909 226.932C5.40909 226.667 5.31629 226.445 5.13068 226.266C4.94508 226.083 4.66004 225.947 4.27557 225.858L3.00284 225.56C2.3035 225.394 1.78977 225.137 1.46165 224.789C1.13684 224.438 0.974432 223.999 0.974432 223.472C0.974432 223.041 1.09541 222.66 1.33736 222.328C1.58262 221.997 1.91572 221.737 2.33665 221.548C2.76089 221.359 3.24148 221.264 3.77841 221.264C4.53409 221.264 5.12737 221.43 5.55824 221.761C5.99242 222.093 6.30066 222.53 6.48295 223.074ZM11.7093 221.364V222.358H7.75195V221.364H11.7093ZM8.90536 219.534H10.0787V226.812C10.0787 227.144 10.1267 227.393 10.2228 227.558C10.3223 227.721 10.4482 227.83 10.6007 227.886C10.7565 227.939 10.9205 227.966 11.0929 227.966C11.2221 227.966 11.3282 227.959 11.411 227.946C11.4939 227.929 11.5602 227.916 11.6099 227.906L11.8485 228.96C11.769 228.99 11.658 229.02 11.5154 229.05C11.3729 229.083 11.1923 229.099 10.9735 229.099C10.6421 229.099 10.3173 229.028 9.99911 228.886C9.68424 228.743 9.42241 228.526 9.2136 228.234C9.00811 227.943 8.90536 227.575 8.90536 227.131V219.534ZM16.5939 229.159C15.8581 229.159 15.2234 228.997 14.6898 228.672C14.1595 228.344 13.7502 227.886 13.4618 227.3C13.1768 226.71 13.0343 226.024 13.0343 225.241C13.0343 224.459 13.1768 223.77 13.4618 223.173C13.7502 222.573 14.1512 222.106 14.665 221.771C15.182 221.433 15.7852 221.264 16.4746 221.264C16.8723 221.264 17.2651 221.33 17.6529 221.463C18.0407 221.596 18.3936 221.811 18.7118 222.109C19.03 222.404 19.2836 222.795 19.4725 223.283C19.6614 223.77 19.7559 224.37 19.7559 225.082V225.58H13.8695V224.565H18.5627C18.5627 224.134 18.4765 223.75 18.3042 223.412C18.1351 223.074 17.8932 222.807 17.5783 222.612C17.2667 222.416 16.8989 222.318 16.4746 222.318C16.0073 222.318 15.6029 222.434 15.2615 222.666C14.9235 222.895 14.6633 223.193 14.481 223.561C14.2987 223.929 14.2076 224.323 14.2076 224.744V225.42C14.2076 225.997 14.307 226.486 14.5059 226.887C14.708 227.285 14.9881 227.588 15.3461 227.797C15.704 228.002 16.12 228.105 16.5939 228.105C16.9022 228.105 17.1806 228.062 17.4292 227.976C17.681 227.886 17.8981 227.754 18.0804 227.578C18.2627 227.399 18.4036 227.177 18.503 226.912L19.6365 227.23C19.5172 227.615 19.3167 227.953 19.035 228.244C18.7533 228.533 18.4052 228.758 17.9909 228.92C17.5766 229.08 17.111 229.159 16.5939 229.159ZM23.7878 229.179C23.3039 229.179 22.8648 229.088 22.4703 228.906C22.0759 228.72 21.7627 228.453 21.5307 228.105C21.2987 227.754 21.1827 227.33 21.1827 226.832C21.1827 226.395 21.2689 226.04 21.4412 225.768C21.6136 225.493 21.8439 225.278 22.1323 225.122C22.4206 224.966 22.7388 224.85 23.0868 224.774C23.4382 224.695 23.7911 224.632 24.1458 224.585C24.6098 224.526 24.986 224.481 25.2743 224.451C25.566 224.418 25.7781 224.363 25.9107 224.287C26.0466 224.211 26.1145 224.078 26.1145 223.889V223.849C26.1145 223.359 25.9803 222.978 25.7118 222.706C25.4467 222.434 25.044 222.298 24.5037 222.298C23.9436 222.298 23.5044 222.421 23.1863 222.666C22.8681 222.911 22.6444 223.173 22.5151 223.452L21.4015 223.054C21.6003 222.59 21.8655 222.229 22.1969 221.97C22.5317 221.708 22.8962 221.526 23.2907 221.423C23.6884 221.317 24.0795 221.264 24.464 221.264C24.7092 221.264 24.9909 221.294 25.3091 221.354C25.6306 221.41 25.9405 221.528 26.2388 221.707C26.5404 221.886 26.7907 222.156 26.9895 222.517C27.1884 222.878 27.2878 223.362 27.2878 223.969V229H26.1145V227.966H26.0549C25.9753 228.132 25.8427 228.309 25.6571 228.498C25.4715 228.687 25.2246 228.848 24.9164 228.98C24.6081 229.113 24.2319 229.179 23.7878 229.179ZM23.9668 228.125C24.4308 228.125 24.8219 228.034 25.1401 227.852C25.4616 227.669 25.7035 227.434 25.8659 227.146C26.0317 226.857 26.1145 226.554 26.1145 226.236V225.162C26.0648 225.222 25.9554 225.276 25.7864 225.326C25.6207 225.372 25.4284 225.414 25.2097 225.45C24.9943 225.483 24.7838 225.513 24.5783 225.54C24.3761 225.563 24.2121 225.583 24.0861 225.599C23.7812 225.639 23.4962 225.704 23.231 225.793C22.9692 225.879 22.757 226.01 22.5946 226.186C22.4355 226.358 22.356 226.594 22.356 226.892C22.356 227.3 22.5068 227.608 22.8084 227.817C23.1133 228.022 23.4995 228.125 23.9668 228.125ZM32.3129 229.159C31.6765 229.159 31.1147 228.998 30.6275 228.677C30.1403 228.352 29.7591 227.895 29.484 227.305C29.2089 226.711 29.0714 226.01 29.0714 225.202C29.0714 224.4 29.2089 223.704 29.484 223.114C29.7591 222.524 30.1419 222.068 30.6325 221.746C31.123 221.425 31.6897 221.264 32.3327 221.264C32.8299 221.264 33.2227 221.347 33.511 221.513C33.8027 221.675 34.0247 221.861 34.1772 222.07C34.333 222.275 34.454 222.444 34.5401 222.577H34.6396V218.818H35.8129V229H34.6793V227.827H34.5401C34.454 227.966 34.3313 228.142 34.1722 228.354C34.0131 228.562 33.7861 228.75 33.4911 228.915C33.1961 229.078 32.8034 229.159 32.3129 229.159ZM32.4719 228.105C32.9426 228.105 33.3403 227.982 33.6651 227.737C33.9899 227.489 34.2369 227.146 34.4059 226.708C34.5749 226.267 34.6594 225.759 34.6594 225.182C34.6594 224.612 34.5766 224.113 34.4109 223.685C34.2451 223.254 33.9999 222.92 33.6751 222.681C33.3503 222.439 32.9492 222.318 32.4719 222.318C31.9748 222.318 31.5605 222.446 31.229 222.701C30.9009 222.953 30.654 223.296 30.4883 223.73C30.3259 224.161 30.2447 224.645 30.2447 225.182C30.2447 225.725 30.3275 226.219 30.4933 226.663C30.6623 227.104 30.9109 227.455 31.239 227.717C31.5704 227.976 31.9814 228.105 32.4719 228.105ZM38.1246 229V221.364H39.2979V229H38.1246ZM38.7212 220.091C38.4925 220.091 38.2953 220.013 38.1296 219.857C37.9672 219.701 37.886 219.514 37.886 219.295C37.886 219.077 37.9672 218.889 38.1296 218.734C38.2953 218.578 38.4925 218.5 38.7212 218.5C38.9499 218.5 39.1455 218.578 39.3079 218.734C39.4736 218.889 39.5565 219.077 39.5565 219.295C39.5565 219.514 39.4736 219.701 39.3079 219.857C39.1455 220.013 38.9499 220.091 38.7212 220.091ZM42.6202 224.406V229H41.4469V221.364H42.5804V222.557H42.6799C42.8588 222.169 43.1306 221.857 43.4952 221.622C43.8598 221.384 44.3304 221.264 44.9071 221.264C45.4242 221.264 45.8766 221.37 46.2644 221.582C46.6522 221.791 46.9538 222.109 47.1692 222.537C47.3846 222.961 47.4924 223.498 47.4924 224.148V229H46.3191V224.227C46.3191 223.627 46.1633 223.16 45.8517 222.825C45.5402 222.487 45.1126 222.318 44.5691 222.318C44.1945 222.318 43.8598 222.399 43.5648 222.562C43.2731 222.724 43.0428 222.961 42.8738 223.273C42.7047 223.584 42.6202 223.962 42.6202 224.406ZM52.8381 229.159C52.1023 229.159 51.4676 228.997 50.9339 228.672C50.4036 228.344 49.9943 227.886 49.706 227.3C49.4209 226.71 49.2784 226.024 49.2784 225.241C49.2784 224.459 49.4209 223.77 49.706 223.173C49.9943 222.573 50.3954 222.106 50.9091 221.771C51.4261 221.433 52.0294 221.264 52.7188 221.264C53.1165 221.264 53.5092 221.33 53.897 221.463C54.2848 221.596 54.6378 221.811 54.956 222.109C55.2741 222.404 55.5277 222.795 55.7166 223.283C55.9055 223.77 56 224.37 56 225.082V225.58H50.1136V224.565H54.8068C54.8068 224.134 54.7206 223.75 54.5483 223.412C54.3793 223.074 54.1373 222.807 53.8224 222.612C53.5109 222.416 53.143 222.318 52.7188 222.318C52.2514 222.318 51.8471 222.434 51.5057 222.666C51.1676 222.895 50.9074 223.193 50.7251 223.561C50.5429 223.929 50.4517 224.323 50.4517 224.744V225.42C50.4517 225.997 50.5511 226.486 50.75 226.887C50.9522 227.285 51.2322 227.588 51.5902 227.797C51.9482 228.002 52.3641 228.105 52.8381 228.105C53.1463 228.105 53.4247 228.062 53.6733 227.976C53.9252 227.886 54.1423 227.754 54.3246 227.578C54.5069 227.399 54.6477 227.177 54.7472 226.912L55.8807 227.23C55.7614 227.615 55.5608 227.953 55.2791 228.244C54.9974 228.533 54.6494 228.758 54.2351 228.92C53.8208 229.08 53.3551 229.159 52.8381 229.159ZM63.1939 223.074L62.1399 223.372C62.0736 223.196 61.9759 223.026 61.8466 222.86C61.7206 222.691 61.5483 222.552 61.3295 222.442C61.1108 222.333 60.8307 222.278 60.4893 222.278C60.022 222.278 59.6326 222.386 59.321 222.602C59.0128 222.814 58.8587 223.084 58.8587 223.412C58.8587 223.704 58.9647 223.934 59.1768 224.103C59.389 224.272 59.7204 224.413 60.1712 224.526L61.3047 224.804C61.9875 224.97 62.4962 225.223 62.831 225.565C63.1657 225.903 63.3331 226.339 63.3331 226.872C63.3331 227.31 63.2071 227.701 62.9553 228.045C62.7067 228.39 62.3587 228.662 61.9112 228.861C61.4638 229.06 60.9434 229.159 60.3501 229.159C59.5713 229.159 58.9266 228.99 58.4162 228.652C57.9058 228.314 57.5826 227.82 57.4467 227.17L58.5604 226.892C58.6664 227.303 58.867 227.611 59.1619 227.817C59.4602 228.022 59.8497 228.125 60.3303 228.125C60.8771 228.125 61.3113 228.009 61.6328 227.777C61.9576 227.542 62.12 227.26 62.12 226.932C62.12 226.667 62.0272 226.445 61.8416 226.266C61.656 226.083 61.371 225.947 60.9865 225.858L59.7138 225.56C59.0144 225.394 58.5007 225.137 58.1726 224.789C57.8478 224.438 57.6854 223.999 57.6854 223.472C57.6854 223.041 57.8063 222.66 58.0483 222.328C58.2936 221.997 58.6267 221.737 59.0476 221.548C59.4718 221.359 59.9524 221.264 60.4893 221.264C61.245 221.264 61.8383 221.43 62.2692 221.761C62.7034 222.093 63.0116 222.53 63.1939 223.074ZM70.5083 223.074L69.4544 223.372C69.3881 223.196 69.2903 223.026 69.161 222.86C69.0351 222.691 68.8627 222.552 68.644 222.442C68.4252 222.333 68.1452 222.278 67.8038 222.278C67.3365 222.278 66.947 222.386 66.6355 222.602C66.3272 222.814 66.1731 223.084 66.1731 223.412C66.1731 223.704 66.2792 223.934 66.4913 224.103C66.7034 224.272 67.0349 224.413 67.4856 224.526L68.6191 224.804C69.3019 224.97 69.8107 225.223 70.1454 225.565C70.4802 225.903 70.6475 226.339 70.6475 226.872C70.6475 227.31 70.5216 227.701 70.2697 228.045C70.0211 228.39 69.6731 228.662 69.2257 228.861C68.7782 229.06 68.2579 229.159 67.6646 229.159C66.8857 229.159 66.2411 228.99 65.7306 228.652C65.2202 228.314 64.8971 227.82 64.7612 227.17L65.8748 226.892C65.9809 227.303 66.1814 227.611 66.4764 227.817C66.7747 228.022 67.1641 228.125 67.6447 228.125C68.1916 228.125 68.6258 228.009 68.9473 227.777C69.2721 227.542 69.4345 227.26 69.4345 226.932C69.4345 226.667 69.3417 226.445 69.1561 226.266C68.9705 226.083 68.6854 225.947 68.301 225.858L67.0282 225.56C66.3289 225.394 65.8152 225.137 65.487 224.789C65.1622 224.438 64.9998 223.999 64.9998 223.472C64.9998 223.041 65.1208 222.66 65.3627 222.328C65.608 221.997 65.9411 221.737 66.362 221.548C66.7863 221.359 67.2669 221.264 67.8038 221.264C68.5595 221.264 69.1528 221.43 69.5836 221.761C70.0178 222.093 70.3261 222.53 70.5083 223.074Z" fill="black"/>
<path d="M246.957 445.159C246.321 445.159 245.759 444.998 245.272 444.677C244.785 444.352 244.404 443.895 244.129 443.305C243.853 442.711 243.716 442.01 243.716 441.202C243.716 440.4 243.853 439.704 244.129 439.114C244.404 438.524 244.786 438.068 245.277 437.746C245.768 437.425 246.334 437.264 246.977 437.264C247.474 437.264 247.867 437.347 248.156 437.513C248.447 437.675 248.669 437.861 248.822 438.07C248.978 438.275 249.098 438.444 249.185 438.577H249.284V434.818H250.457V445H249.324V443.827H249.185C249.098 443.966 248.976 444.142 248.817 444.354C248.658 444.562 248.431 444.75 248.136 444.915C247.841 445.078 247.448 445.159 246.957 445.159ZM247.116 444.105C247.587 444.105 247.985 443.982 248.31 443.737C248.634 443.489 248.881 443.146 249.05 442.708C249.219 442.267 249.304 441.759 249.304 441.182C249.304 440.612 249.221 440.113 249.055 439.685C248.89 439.254 248.644 438.92 248.32 438.681C247.995 438.439 247.594 438.318 247.116 438.318C246.619 438.318 246.205 438.446 245.874 438.701C245.545 438.953 245.299 439.296 245.133 439.73C244.97 440.161 244.889 440.645 244.889 441.182C244.889 441.725 244.972 442.219 245.138 442.663C245.307 443.104 245.555 443.455 245.884 443.717C246.215 443.976 246.626 444.105 247.116 444.105ZM255.871 445.159C255.182 445.159 254.577 444.995 254.057 444.667C253.54 444.339 253.135 443.88 252.844 443.29C252.555 442.7 252.411 442.01 252.411 441.222C252.411 440.426 252.555 439.732 252.844 439.138C253.135 438.545 253.54 438.085 254.057 437.756C254.577 437.428 255.182 437.264 255.871 437.264C256.561 437.264 257.164 437.428 257.681 437.756C258.201 438.085 258.606 438.545 258.894 439.138C259.186 439.732 259.332 440.426 259.332 441.222C259.332 442.01 259.186 442.7 258.894 443.29C258.606 443.88 258.201 444.339 257.681 444.667C257.164 444.995 256.561 445.159 255.871 445.159ZM255.871 444.105C256.395 444.105 256.826 443.971 257.164 443.702C257.502 443.434 257.752 443.081 257.915 442.643C258.077 442.206 258.158 441.732 258.158 441.222C258.158 440.711 258.077 440.236 257.915 439.795C257.752 439.354 257.502 438.998 257.164 438.726C256.826 438.454 256.395 438.318 255.871 438.318C255.348 438.318 254.917 438.454 254.579 438.726C254.241 438.998 253.991 439.354 253.828 439.795C253.666 440.236 253.585 440.711 253.585 441.222C253.585 441.732 253.666 442.206 253.828 442.643C253.991 443.081 254.241 443.434 254.579 443.702C254.917 443.971 255.348 444.105 255.871 444.105ZM261.123 445V437.364H262.256V438.557H262.356C262.515 438.149 262.772 437.833 263.126 437.607C263.481 437.379 263.907 437.264 264.404 437.264C264.908 437.264 265.327 437.379 265.662 437.607C266 437.833 266.263 438.149 266.452 438.557H266.532C266.727 438.162 267.021 437.849 267.412 437.617C267.803 437.382 268.272 437.264 268.819 437.264C269.501 437.264 270.06 437.478 270.494 437.906C270.928 438.33 271.145 438.991 271.145 439.889V445H269.972V439.889C269.972 439.326 269.818 438.923 269.51 438.681C269.202 438.439 268.839 438.318 268.421 438.318C267.884 438.318 267.468 438.481 267.173 438.805C266.878 439.127 266.731 439.535 266.731 440.028V445H265.537V439.77C265.537 439.336 265.397 438.986 265.115 438.721C264.833 438.452 264.47 438.318 264.026 438.318C263.721 438.318 263.436 438.399 263.171 438.562C262.909 438.724 262.697 438.95 262.535 439.238C262.376 439.523 262.296 439.853 262.296 440.227V445H261.123ZM273.291 445V437.364H274.464V445H273.291ZM273.887 436.091C273.659 436.091 273.461 436.013 273.296 435.857C273.133 435.701 273.052 435.514 273.052 435.295C273.052 435.077 273.133 434.889 273.296 434.734C273.461 434.578 273.659 434.5 273.887 434.5C274.116 434.5 274.311 434.578 274.474 434.734C274.64 434.889 274.722 435.077 274.722 435.295C274.722 435.514 274.64 435.701 274.474 435.857C274.311 436.013 274.116 436.091 273.887 436.091ZM277.786 440.406V445H276.613V437.364H277.746V438.557H277.846C278.025 438.169 278.297 437.857 278.661 437.622C279.026 437.384 279.496 437.264 280.073 437.264C280.59 437.264 281.043 437.37 281.43 437.582C281.818 437.791 282.12 438.109 282.335 438.537C282.551 438.961 282.658 439.498 282.658 440.148V445H281.485V440.227C281.485 439.627 281.329 439.16 281.018 438.825C280.706 438.487 280.279 438.318 279.735 438.318C279.361 438.318 279.026 438.399 278.731 438.562C278.439 438.724 278.209 438.961 278.04 439.273C277.871 439.584 277.786 439.962 277.786 440.406ZM287.05 445.179C286.566 445.179 286.126 445.088 285.732 444.906C285.338 444.72 285.024 444.453 284.792 444.105C284.56 443.754 284.444 443.33 284.444 442.832C284.444 442.395 284.531 442.04 284.703 441.768C284.875 441.493 285.106 441.278 285.394 441.122C285.682 440.966 286.001 440.85 286.349 440.774C286.7 440.695 287.053 440.632 287.407 440.585C287.872 440.526 288.248 440.481 288.536 440.451C288.828 440.418 289.04 440.363 289.172 440.287C289.308 440.211 289.376 440.078 289.376 439.889V439.849C289.376 439.359 289.242 438.978 288.974 438.706C288.708 438.434 288.306 438.298 287.765 438.298C287.205 438.298 286.766 438.421 286.448 438.666C286.13 438.911 285.906 439.173 285.777 439.452L284.663 439.054C284.862 438.59 285.127 438.229 285.459 437.97C285.793 437.708 286.158 437.526 286.552 437.423C286.95 437.317 287.341 437.264 287.726 437.264C287.971 437.264 288.253 437.294 288.571 437.354C288.892 437.41 289.202 437.528 289.501 437.707C289.802 437.886 290.052 438.156 290.251 438.517C290.45 438.878 290.55 439.362 290.55 439.969V445H289.376V443.966H289.317C289.237 444.132 289.104 444.309 288.919 444.498C288.733 444.687 288.486 444.848 288.178 444.98C287.87 445.113 287.494 445.179 287.05 445.179ZM287.229 444.125C287.693 444.125 288.084 444.034 288.402 443.852C288.723 443.669 288.965 443.434 289.128 443.146C289.293 442.857 289.376 442.554 289.376 442.236V441.162C289.327 441.222 289.217 441.276 289.048 441.326C288.882 441.372 288.69 441.414 288.471 441.45C288.256 441.483 288.046 441.513 287.84 441.54C287.638 441.563 287.474 441.583 287.348 441.599C287.043 441.639 286.758 441.704 286.493 441.793C286.231 441.879 286.019 442.01 285.856 442.186C285.697 442.358 285.618 442.594 285.618 442.892C285.618 443.3 285.769 443.608 286.07 443.817C286.375 444.022 286.761 444.125 287.229 444.125ZM293.864 440.406V445H292.691V437.364H293.825V438.557H293.924C294.103 438.169 294.375 437.857 294.739 437.622C295.104 437.384 295.575 437.264 296.151 437.264C296.668 437.264 297.121 437.37 297.509 437.582C297.896 437.791 298.198 438.109 298.413 438.537C298.629 438.961 298.737 439.498 298.737 440.148V445H297.563V440.227C297.563 439.627 297.407 439.16 297.096 438.825C296.784 438.487 296.357 438.318 295.813 438.318C295.439 438.318 295.104 438.399 294.809 438.562C294.517 438.724 294.287 438.961 294.118 439.273C293.949 439.584 293.864 439.962 293.864 440.406ZM303.983 445.159C303.267 445.159 302.65 444.99 302.133 444.652C301.616 444.314 301.219 443.848 300.94 443.255C300.662 442.662 300.523 441.984 300.523 441.222C300.523 440.446 300.665 439.762 300.95 439.168C301.238 438.572 301.64 438.106 302.153 437.771C302.67 437.433 303.273 437.264 303.963 437.264C304.5 437.264 304.984 437.364 305.415 437.562C305.845 437.761 306.198 438.04 306.474 438.398C306.749 438.756 306.919 439.173 306.986 439.651H305.812C305.723 439.303 305.524 438.994 305.216 438.726C304.911 438.454 304.5 438.318 303.983 438.318C303.525 438.318 303.124 438.437 302.78 438.676C302.438 438.911 302.171 439.245 301.979 439.675C301.79 440.103 301.696 440.605 301.696 441.182C301.696 441.772 301.789 442.286 301.974 442.723C302.163 443.161 302.428 443.5 302.77 443.742C303.114 443.984 303.519 444.105 303.983 444.105C304.288 444.105 304.564 444.052 304.813 443.946C305.062 443.84 305.272 443.688 305.444 443.489C305.617 443.29 305.739 443.051 305.812 442.773H306.986C306.919 443.223 306.755 443.629 306.493 443.991C306.235 444.349 305.892 444.634 305.464 444.846C305.04 445.055 304.546 445.159 303.983 445.159ZM311.903 445.159C311.167 445.159 310.532 444.997 309.998 444.672C309.468 444.344 309.059 443.886 308.77 443.3C308.485 442.71 308.343 442.024 308.343 441.241C308.343 440.459 308.485 439.77 308.77 439.173C309.059 438.573 309.46 438.106 309.974 437.771C310.491 437.433 311.094 437.264 311.783 437.264C312.181 437.264 312.574 437.33 312.961 437.463C313.349 437.596 313.702 437.811 314.02 438.109C314.339 438.404 314.592 438.795 314.781 439.283C314.97 439.77 315.064 440.37 315.064 441.082V441.58H309.178V440.565H313.871C313.871 440.134 313.785 439.75 313.613 439.412C313.444 439.074 313.202 438.807 312.887 438.612C312.575 438.416 312.207 438.318 311.783 438.318C311.316 438.318 310.912 438.434 310.57 438.666C310.232 438.895 309.972 439.193 309.79 439.561C309.607 439.929 309.516 440.323 309.516 440.744V441.42C309.516 441.997 309.616 442.486 309.814 442.887C310.017 443.285 310.297 443.588 310.655 443.797C311.013 444.002 311.429 444.105 311.903 444.105C312.211 444.105 312.489 444.062 312.738 443.976C312.99 443.886 313.207 443.754 313.389 443.578C313.571 443.399 313.712 443.177 313.812 442.912L314.945 443.23C314.826 443.615 314.625 443.953 314.344 444.244C314.062 444.533 313.714 444.758 313.3 444.92C312.885 445.08 312.42 445.159 311.903 445.159Z" fill="black"/>
<rect x="279" y="29.7071" width="274.772" height="274.772" transform="rotate(45 279 29.7071)" stroke="#E7E7E7"/>
<rect x="279" y="56.8038" width="236.442" height="236.442" transform="rotate(45 279 56.8038)" stroke="#E7E7E7"/>
<rect x="278.203" y="84.8292" width="196.332" height="196.332" transform="rotate(45 278.203 84.8292)" stroke="#E7E7E7"/>
<rect x="278.154" y="111.795" width="157.849" height="157.849" transform="rotate(45 278.154 111.795)" stroke="#E7E7E7"/>
<rect x="279" y="141.258" width="116.832" height="116.832" transform="rotate(45 279 141.258)" stroke="#E7E7E7"/>
<rect x="278.191" y="167.582" width="80.1325" height="80.1325" transform="rotate(45 278.191 167.582)" stroke="#E7E7E7"/>
<rect x="278.405" y="197.867" width="37.6067" height="37.6067" transform="rotate(45 278.405 197.867)" stroke="#E7E7E7"/>
<line x1="473.46" y1="223.757" x2="84.5402" y2="223.757" stroke="#E7E7E7"/>
<line x1="278.5" y1="29.7969" x2="278.5" y2="417.92" stroke="#E7E7E7"/>
<circle cx="278" cy="88" r="3.5" fill="#8D65E4" stroke="white"/>
<circle cx="456" cy="224" r="3.5" fill="#8D65E4" stroke="white"/>
<circle cx="279" cy="350" r="3.5" fill="#8D65E4" stroke="white"/>
<circle cx="166" cy="224" r="3.5" fill="#8D65E4" stroke="white"/>
<line x1="276.773" y1="89.6345" x2="166.773" y2="223.634" stroke="#8D65E4" stroke-width="2"/>
<line x1="279.606" y1="88.2049" x2="456.606" y2="223.205" stroke="#8D65E4" stroke-width="2"/>
<line x1="166.747" y1="223.336" x2="278.747" y2="349.336" stroke="#8D65E4" stroke-width="2"/>
<line x1="281.413" y1="349.477" x2="455.413" y2="223.191" stroke="#8D65E4" stroke-width="2"/>
</svg>
