<svg width="439" height="369" viewBox="0 0 439 369" fill="none" xmlns="http://www.w3.org/2000/svg">
<g clip-path="url(#clip0_31_4657)">
<path d="M241.19 241.07C241.62 248.46 238.53 257.14 230.48 259.03C224.22 260.48 220.02 255.44 214.33 254.35C214.16 254.31 214.02 254.41 213.92 254.52C209.86 254.2 206.56 257.35 205.88 261.6C205.11 266.41 206.1 272.05 206.3 276.92C206.54 282.98 206.6 289.1 207.21 295.14C205.82 295.16 204.43 295.2 203.05 295.23C197.47 295.35 191.88 295.47 186.3 295.58C181.58 295.68 168.15 298.08 166.24 291.4C166.25 291.35 166.26 291.31 166.26 291.25C166.58 285.98 170.8 281.97 171.09 276.56C171.25 273.45 170.61 270.31 169.06 267.59C165.39 261.12 158.4 259.09 151.35 259.7C144.64 260.3 137.81 263.4 134.85 269.8C133.61 272.51 133.07 275.69 133.73 278.62C134.64 282.72 138.08 285.39 139.18 289.39C138.24 297.81 122.75 295.57 117.27 295.54C111.13 295.5 104.98 295.18 98.84 295.32C100.18 285.98 101.05 276.11 100.37 266.7C100.02 261.92 98.37 255.69 92.73 254.86C90.05 254.46 87.73 255.72 85.54 257.08C79.91 260.55 74.2 263.39 67.96 258.98C58.34 252.18 59.17 233.97 68.95 227.68C75.13 223.69 80 226.23 86.04 228.86C88.18 229.79 90.41 230.6 92.81 230.24C99.47 229.26 98.66 222.2 98.76 217.06C98.93 207.52 99.12 197.97 99.29 188.44C105.18 189.15 111.32 188.64 117.25 188.71C122.22 188.77 136.15 187.37 138.47 193.41C138.45 193.46 138.42 193.51 138.42 193.58C138.88 198.94 133.64 203.11 132.83 208.35C132.42 211.01 132.69 213.71 134 216.09C137.49 222.45 146.25 224.47 152.91 224.39C160.05 224.3 167.11 221.33 170.42 214.69C171.67 212.18 172.33 209.35 171.95 206.54C171.24 201.4 166.56 198.21 166.16 192.92C166.15 192.82 166.12 192.73 166.07 192.67C166.73 187.58 177.38 188.3 180.05 188.27C182.51 188.25 184.96 188.21 187.42 188.18C193.55 188.12 199.67 188.06 205.8 187.98C205.8 199.14 204.89 210.89 206.02 221.99C206.52 226.9 209.39 230.66 214.36 230.37C214.51 230.46 214.68 230.49 214.91 230.44C220.05 229.37 223.41 224.81 229.14 225.18C237.15 225.71 240.78 234.09 241.18 241.05L241.19 241.07ZM172.59 266.67C172.88 267.39 174.06 267.09 173.78 266.33C172.84 263.73 171.03 261.66 168.61 260.33C168.15 260.07 167.78 260.73 168.2 261.03C170.2 262.43 171.69 264.4 172.59 266.67ZM169.57 266.16C169.99 266.73 170.81 266.25 170.53 265.6C169.45 263.23 167.04 261.16 164.69 260.13C164.22 259.93 163.82 260.54 164.28 260.84C165.35 261.52 166.37 262.26 167.26 263.16C168.17 264.08 168.83 265.11 169.57 266.15V266.16ZM74.76 257.98C75.23 257.89 75.22 257.11 74.76 257.02C73.87 256.86 73.01 256.8 72.16 256.45C71.25 256.08 70.53 255.51 69.77 254.88C69.51 254.66 69.09 254.93 69.27 255.27C70.29 257.03 72.71 258.3 74.75 257.98H74.76ZM73.47 259.5C73.77 259.44 73.86 258.95 73.57 258.83C72.43 258.33 71.22 258.18 70.12 257.55C68.84 256.83 67.86 255.82 67 254.64C66.76 254.33 66.33 254.59 66.48 254.94C67.54 257.34 70.68 260.02 73.48 259.5H73.47Z" fill="#1A9DAE"/>
<path d="M316.03 189.38C316.08 195.02 316.05 200.65 315.98 206.29C315.91 211.32 316.84 218.32 315.27 223.57C315.07 223.59 314.88 223.69 314.77 223.92C313.75 225.97 312.35 227.78 310.01 228.41C307.03 229.21 304.31 227.13 301.73 225.96C300.23 225.26 298.7 224.75 297.12 224.54C297.01 224.24 296.76 223.99 296.36 223.94C282.37 222.25 277.12 238.11 280.16 249.25C281.78 255.2 285.37 260.23 291.7 261.53C298.32 262.87 302.7 258.27 308.52 256.49C317.63 255.62 315.06 273.13 314.99 277.94C314.9 283.71 314.63 289.52 314.93 295.29C314.87 295.28 314.81 295.25 314.74 295.25C304.35 295.42 293.75 295.03 283.4 295.83C279.9 296.1 276.39 296.96 274.7 299.64C270.85 303.63 274.99 307.99 277.36 311.72C281.08 317.55 278.86 324.62 273.17 328.36C269.5 330.76 265.58 330.89 261.58 331.59C261.46 331.39 261.24 331.25 260.97 331.29C253.48 332.15 245.86 328.64 244.11 320.74C242.61 313.94 247.55 310.61 248.81 304.74C250.26 297.91 244.03 295.42 238.41 294.96C238.26 294.76 238.04 294.62 237.71 294.62C227.97 294.62 218.23 294.88 208.48 295.1C208.62 289.04 208.19 282.96 207.96 276.91C207.72 270.63 204.48 254.27 215.69 256.15C215.8 256.17 215.9 256.16 215.99 256.14C221.33 259.1 226.42 262.55 232.74 260.09C240.07 257.24 243.18 249.43 243.02 242.05C242.88 235.84 240.73 228.7 235.23 225.19C232.76 223.61 230 223.04 227.08 223.33C222.08 223.8 219.04 227.48 214.49 228.97C214.29 229.03 214.17 229.16 214.08 229.28C205.53 227.08 207.63 215.21 207.62 208.39C207.61 201.59 207.62 194.78 207.6 187.99C218.87 187.87 230.15 187.8 241.42 187.52C241.73 187.51 241.95 187.38 242.1 187.2C247.48 187.01 251.63 183.58 248.18 177.98C246.27 174.85 244.15 172.82 243.61 169.06C242.88 164.09 243.56 158.52 248.13 155.55C253.81 151.87 260.33 152.36 266.73 152.75C274.41 155.15 283.29 161.05 279.38 170.25C277.6 174.43 273.32 176.67 274.53 181.33C274.75 191.41 311.21 186.85 315.96 186.41C315.98 187.4 316 188.4 316.01 189.38H316.03ZM313.82 265.91C313.98 263.35 312.83 260.55 310.96 258.83C310.67 258.57 310.15 258.92 310.4 259.26C311.92 261.36 312.62 263.32 312.85 265.91C312.9 266.52 313.77 266.53 313.82 265.91ZM312.32 267.45C312.54 265.45 311.81 263.34 310.69 261.71C310.47 261.39 310.03 261.66 310.17 262.01C310.94 263.8 311.13 265.53 311.21 267.45C311.25 268.17 312.24 268.15 312.32 267.45ZM248.94 163.89C249.19 163.44 248.55 162.9 248.19 163.32C247.2 164.54 247.28 166.27 248.09 167.53C248.24 167.77 248.69 167.62 248.57 167.33C248.06 166.11 248.32 165.01 248.93 163.89H248.94ZM247.11 163.37C247.16 162.91 246.41 162.72 246.23 163.13C245.25 165.29 245.39 168.09 246.09 170.31C246.2 170.66 246.81 170.62 246.76 170.22C246.62 169.06 246.51 167.93 246.59 166.77C246.65 165.61 246.96 164.51 247.11 163.37ZM232.44 291.63C233.05 291.72 233.19 290.69 232.58 290.56C230.42 290.13 228.01 290.13 225.82 290.42C225.41 290.48 225.52 291.13 225.92 291.14C228.14 291.14 230.24 291.35 232.44 291.62V291.63ZM230.39 293.05C230.8 292.99 230.8 292.27 230.39 292.21C227.78 291.8 224.81 292.07 222.19 292.23C221.69 292.27 221.69 292.98 222.19 293.01C224.81 293.17 227.79 293.44 230.39 293.05Z" fill="#BEC7E6"/>
<path d="M206.55 99.9199C206.61 104.92 208.81 120.97 200.34 121.17C195.79 120.57 192.7 116.46 188.08 115.81C185.12 115.39 181.99 115.93 179.36 117.33C173.61 120.36 171.64 126.75 171.48 132.86C171.31 139.32 172.8 146.47 178.55 150.22C184.45 154.06 192.43 152.83 197.18 147.83C207.1 142.33 206.64 163.28 206.56 168.28C206.47 174.18 205.98 180.08 205.99 185.97C199.81 186.08 193.63 186.18 187.45 186.26C183.92 186.31 160.06 184.92 165.2 194.55C165.72 199.04 169.7 202.22 170.13 206.9C171.09 217.21 161.06 222.82 151.99 222.63C143.35 222.46 132.2 217.59 135.07 207.02C136.01 203.55 138.7 200.61 139.37 197.28C139.43 197.23 139.49 197.17 139.52 197.07C141.61 191.34 136.54 188.26 131.53 187.51C126.06 186.69 120.35 186.85 114.83 186.76C109.7 186.69 104.44 186.39 99.35 187.18C99.36 186.61 99.37 186.05 99.39 185.49C99.49 179.82 99.59 174.17 99.7 168.5C99.79 164.14 100.4 159.54 99.45 155.27C99.45 155.18 99.45 155.08 99.46 155C99.37 153.42 99.77 151.99 100.65 150.73C101.04 149.14 102.13 148.46 103.93 148.68C106.51 148.05 107.15 148.18 109.36 149.35C110.37 149.88 111.29 150.57 112.29 151.13C114.74 152.5 117.27 153.52 119.99 152.71C142.52 152.49 135.78 105.29 115.07 115.36C113.37 116.03 111.84 116.96 110.12 117.86C109.15 118.69 108.23 119.15 107.32 119.24C106.51 119.63 105.63 119.87 104.76 119.87H104.45C102.74 119.87 101.26 119.12 100.21 117.97C99.45 116.44 98.91 114.86 98.62 113.19C98.71 112.66 98.86 112.13 99.09 111.62C98.87 109.93 99.3 107.72 99.31 106.18C99.41 97.7799 99.51 89.3899 99.61 80.9899C110.07 81.7599 121.48 82.0699 131.89 81.2499C136.86 80.8599 141.91 78.3499 140.87 72.6799C140.85 72.5699 140.8 72.4799 140.73 72.4199C140.74 71.2099 140.44 70.0099 139.89 68.6099C137.06 61.5299 131.49 54.7899 139.53 48.1299C144.14 44.3199 151.06 44.5499 156.65 45.5299C164.4 46.8999 169 51.8699 168.79 59.9199C168.79 59.9299 168.8 59.9299 168.8 59.9399C168.45 62.5099 167.62 64.6599 166.45 67.4199C165.62 69.3999 165.05 71.1099 165.49 73.3199C165.91 75.4299 167.06 77.0499 168.62 78.0899C168.63 78.1599 168.66 78.2399 168.73 78.2899C170.88 80.0399 173.33 80.4099 175.92 80.4999C176.07 80.4999 176.22 80.5099 176.37 80.5099C177.38 80.5199 178.38 80.5199 179.41 80.5299C186.33 80.6299 193.25 80.6899 200.19 80.7299C202.14 80.7399 204.09 80.7399 206.04 80.7499C205.9 80.8899 205.82 81.0699 205.83 81.3499C206.2 87.5299 206.45 93.7099 206.53 99.8999L206.55 99.9199ZM165.41 54.0299C165.52 52.7699 164.7 51.4499 163.92 50.5099C163 49.4299 161.83 48.7299 160.45 48.4599C159.92 48.3599 159.72 49.0799 160.23 49.2699C161.35 49.6699 162.42 50.3399 163.21 51.2199C164.03 52.0999 164.28 53.1499 164.8 54.1899C164.96 54.5099 165.38 54.3299 165.41 54.0299ZM164.23 56.3499C164.7 54.1499 162.84 51.8099 161.05 50.8099C160.78 50.6599 160.45 51.0299 160.7 51.2599C161.42 51.9199 162.02 52.6999 162.45 53.5799C162.9 54.4699 162.93 55.4199 163.25 56.3499C163.4 56.7799 164.12 56.8699 164.23 56.3499ZM109.11 183.73C109.71 183.66 109.71 182.89 109.11 182.8C107.3 182.58 105.34 182.8 103.52 182.85C102.97 182.86 102.97 183.68 103.52 183.7C105.35 183.75 107.3 183.97 109.11 183.74V183.73ZM108.27 185.48C108.62 185.43 108.58 184.91 108.27 184.82C107.13 184.53 105.93 184.53 104.75 184.56C103.59 184.58 102.34 184.54 101.25 184.93C100.96 185.04 100.89 185.51 101.25 185.59C102.39 185.81 103.6 185.63 104.75 185.61C105.93 185.6 107.11 185.65 108.27 185.47V185.48Z" fill="#BEC7E6"/>
<path d="M347.57 127.75C350.44 138.05 346.22 151.92 334.3 151.41C330.85 151.14 329.14 148.13 326.05 147.11C324.07 146.45 321.83 146.58 319.94 147.43C317.39 148.57 315.47 151.21 315.32 153.99C315.27 154.1 315.22 154.23 315.22 154.39C315.06 164.43 315.72 174.52 315.97 184.6C309.57 184.85 303.2 185.23 296.8 185.33C292.13 185.42 276.88 187.67 275.94 180.26C276.3 176.04 280.76 173.48 281.78 169.34C282.48 166.46 282 163.31 280.76 160.65C278.59 156 274.29 153.18 269.53 151.94C269.47 151.88 269.39 151.82 269.29 151.79C260.87 149.62 248.04 149.76 242.82 158.25C240.79 161.54 241.24 165.78 241.8 169.43C242.22 172.15 243.18 173.9 244.3 176.29C244.57 176.86 245.44 177.22 245.64 177.82C247.86 184.58 245.22 185.39 241.99 185.82C241.85 185.71 241.68 185.63 241.46 185.63C230.04 185.62 218.61 185.78 207.19 185.97C207.86 180.51 208.08 175 208.2 169.49C208.31 164.05 208.96 157.66 207.28 152.38C205.73 147.47 200.1 143.3 195.56 147.56C195.51 147.62 195.47 147.67 195.45 147.75C187.68 151.94 177.76 152.1 174.38 141.81C172.81 137.06 172.73 130.8 174.38 126.1C177 118.59 185.25 115.39 192.22 119.12C195.6 120.93 197.38 123.3 201.34 122.52C201.46 122.51 201.55 122.45 201.63 122.38C205.17 122.12 207.3 118.74 207.98 114.99C209.92 104.44 208.22 91.9999 207.62 81.3699C207.61 81.1099 207.5 80.9099 207.35 80.7699C218.83 80.8099 230.3 80.8099 241.78 80.8199C242.03 80.8199 242.21 80.7299 242.35 80.6099C246.92 82.2099 247.46 85.6199 245.42 90.5799C244.65 92.4699 243.34 94.0699 242.64 96.0299C241.51 99.1999 241.04 102.68 242.34 105.88C245.15 112.8 254.41 116.23 261.39 115.58C267.71 116.41 274.72 113.95 278.28 108.45C279.99 105.79 280.89 102.42 280.27 99.2799C279.33 94.4799 275.05 91.5799 274.58 86.5899C277.18 78.8699 290.19 80.8899 296.14 80.8499C302.12 80.8099 308.09 80.7599 314.08 80.7099C313.97 86.8899 313.93 93.0699 313.98 99.2499C314.03 104.67 313.35 110.93 315.07 116.16C316.39 120.17 320.45 123.73 324.36 122.21C327.09 121.43 328.97 119.65 331.49 118.38C338.9 114.64 345.66 120.75 347.59 127.72L347.57 127.75ZM340.13 147C340.53 146.74 340.28 146.12 339.82 146.23C338.89 146.47 338.09 146.81 337.12 146.85C336.16 146.89 335.27 146.69 334.37 146.42C334.05 146.32 333.82 146.82 334.13 146.97C335.84 147.83 338.44 148.09 340.12 147.01L340.13 147ZM338.37 149.06C338.85 148.76 338.53 148.07 338 148.17C336.83 148.41 335.81 148.73 334.61 148.53C333.32 148.32 332.25 147.72 331.26 146.89C330.96 146.64 330.61 147.01 330.84 147.31C332.44 149.36 336.05 150.52 338.38 149.06H338.37ZM279.19 113.94C281.56 112.44 284.17 109.27 283.85 106.26C283.79 105.66 283.03 105.55 282.81 106.12C282.3 107.45 282.15 108.82 281.44 110.11C280.76 111.37 279.86 112.48 278.81 113.44C278.55 113.68 278.88 114.12 279.2 113.94H279.19ZM280.4 108.83C280.6 108.2 279.62 107.94 279.42 108.56C278.45 111.55 276.38 113.84 273.6 115.28C273.28 115.45 273.5 116.04 273.86 115.9C277.04 114.68 279.39 112.06 280.4 108.83ZM187.4 123.11C187.83 123.12 187.93 122.45 187.5 122.34C185.46 121.84 183.18 122.43 181.36 123.38C181.1 123.52 181.27 123.96 181.56 123.86C183.52 123.13 185.34 123.1 187.4 123.1V123.11ZM184.11 121.27C184.61 121.11 184.51 120.41 183.99 120.38C182.77 120.31 181.46 120.83 180.4 121.41C179.57 121.87 178.15 122.68 178 123.7C177.98 123.86 178.09 123.99 178.25 123.95C179.14 123.8 179.95 122.84 180.77 122.41C181.85 121.84 182.97 121.66 184.11 121.28V121.27Z" fill="#1A9DAE"/>
<path d="M350.07 131.28C350.96 139.22 346.24 153.08 337.43 153.31C337.34 153.38 337.24 153.43 337.12 153.43C335.49 153.37 333.68 153.07 332.05 152.51C330.51 152.2 329.23 151.18 327.71 150.15C325.03 148.31 321.53 147.98 318.97 150.26C317.72 151.37 317.13 152.66 316.73 154.1C316.77 154.19 316.79 154.27 316.8 154.39C318.23 167.91 317.83 181.83 317.78 195.42C317.76 202.27 317.68 209.11 317.46 215.95C317.35 219.28 317.55 222.34 315.89 224.98C314.95 227.88 312.25 230 309.18 230.3C307.03 230.51 305.25 229.7 303.38 228.73C300.58 227.3 297.95 226.52 295.08 225.61C281.73 225.77 278.06 242.22 283.36 252.56C287.3 260.23 294.27 261.07 301.34 257.79C303.95 256.58 305.86 255.3 308.6 255.04C313.4 254.24 316.15 258.37 316.83 262.99C317.59 268.13 316.85 273.94 316.78 279.12C316.69 284.65 316.79 290.22 316.31 295.72C316.27 296.11 316.01 296.32 315.73 296.35C315.68 296.82 315.37 297.27 314.76 297.28L295.03 297.62C289.08 297.72 279.75 296.2 275.55 301.22C273.16 305.71 280.38 311.36 281.07 315.91C281.55 319.18 280.55 322.56 278.77 325.29C275.14 330.86 266.94 334.26 260.33 332.91C253.04 333.68 245.61 330.26 242.93 323.03C241.6 319.43 241.66 315.48 243.14 311.92C244.02 309.78 245.76 307.92 246.38 305.68C248.09 299.45 243.31 297.21 238.14 296.31C238.02 296.37 237.89 296.41 237.73 296.42C220.59 297.05 203.42 297.13 186.29 297.41C182.95 297.46 161.65 299.37 164.84 290.58C164.58 284.42 170.29 279.77 169.03 272.96C167.34 263.91 158.92 260.58 150.55 261.64C141.54 262.76 131.56 271.12 136.65 280.99C137.98 283.57 140.03 285.34 140.39 287.95C140.49 288.04 140.56 288.12 140.6 288.26C142.09 293.83 136.81 296.64 132.01 297.16C121.29 298.33 109.22 297.83 98.51 296.63C98.5 296.63 98.49 296.63 98.47 296.62C98.01 296.93 97.15 296.67 97.22 296.01C98.3 286.01 100.13 274.8 98.46 264.8C97.47 258.75 93.03 255.48 86.44 258.6C84.79 259.38 83.45 260.8 81.78 261.59C79.34 262.76 76.76 263.3 74.05 263.08C60.83 262.01 57.01 245.3 61.16 234.82C63.42 229.14 68.35 224.58 74.58 223.8C77.1 223.49 79.38 223.87 81.72 224.79C82.95 225.27 84.04 226 85.24 226.53C87.09 227.6 89.09 228.29 91.24 228.59C95.5 226.43 97.42 223.4 96.97 219.47C97.73 214.82 97.16 209.64 97.24 204.91C97.34 199.26 97.45 193.59 97.56 187.92C97.65 183.07 97.75 178.22 97.85 173.36C97.95 167.67 99.06 160.6 97.56 155.07C97.44 154.57 97.72 154.21 98.09 154.06C98.16 150.93 99.32 147.85 102.46 146.59C108.06 144.34 112.41 150.53 117.71 151.46C139.05 151.16 136.05 111.04 115.7 116.62C110.34 119.66 101.71 125.18 98.25 117.73C96.25 113.42 97.63 107.04 97.68 102.46C97.78 95.02 97.87 87.59 97.95 80.16C97.96 79.33 98.97 79.17 99.39 79.64C105.34 79.3 111.32 79.52 117.27 79.55C122.44 79.57 136.53 81.81 139.23 75.16C140.07 69.17 134.91 65.62 133.81 60.22C133.25 57.45 133.46 54.54 134.52 51.92C136.55 46.88 141.22 44.28 146.42 43.51C157.11 41.93 172.22 46.39 170.18 59.73C170.38 61.37 170.18 63.01 169.6 64.68C169.02 66.35 167.9 67.81 167.39 69.49C166.1 73.74 168.36 77.62 172.91 78.29C173.08 78.31 173.17 78.41 173.25 78.54C178.46 78.55 183.7 78.73 188.91 79.02C189 79.02 189.1 79.01 189.2 79.01C194.89 78.97 200.59 78.95 206.3 78.95C218.12 78.94 229.93 78.97 241.74 79C242.08 79 242.3 79.16 242.45 79.36C246.56 80.01 250.05 82.52 248.95 87.16C247.76 92.27 242.55 96.11 243.22 101.88C244.26 110.84 254.11 114.27 261.92 114.18C262.14 114.18 262.32 114.25 262.42 114.38C269.29 113.31 276.67 111.42 278.37 103.53C279.85 96.63 272.48 92.67 272.87 86.02C272.89 85.72 273.04 85.51 273.24 85.39C274.2 81.76 278.09 79.72 282.15 79.19C292.7 77.79 304.12 78.82 314.77 78.76C315.23 78.75 315.52 79.02 315.64 79.34C315.84 79.5 315.99 79.74 315.98 80.07C315.84 86.87 315.78 93.66 315.81 100.46C315.82 103.91 315.7 107.44 315.92 110.91C316.21 115.45 318.59 121.14 323.39 120.96C323.44 120.94 323.48 120.9 323.54 120.89C330.15 118.85 333.72 113.12 341.17 116.6C346.84 119.26 349.41 125.37 350.07 131.26V131.28ZM334.3 151.41C346.22 151.92 350.44 138.05 347.57 127.75C345.63 120.78 338.87 114.67 331.47 118.41C328.95 119.68 327.07 121.45 324.34 122.24C320.43 123.76 316.36 120.2 315.05 116.19C313.32 110.96 314.01 104.7 313.96 99.28C313.91 93.1 313.95 86.92 314.06 80.74C308.07 80.79 302.09 80.84 296.12 80.88C290.17 80.92 277.16 78.9 274.56 86.62C275.03 91.6 279.31 94.51 280.25 99.31C280.87 102.45 279.98 105.82 278.26 108.48C274.71 113.98 267.7 116.45 261.37 115.61C254.39 116.26 245.13 112.83 242.32 105.91C241.02 102.7 241.49 99.22 242.62 96.06C243.33 94.1 244.63 92.49 245.4 90.61C247.44 85.65 246.9 82.25 242.33 80.64C242.19 80.76 242.01 80.85 241.76 80.85C230.28 80.84 218.81 80.84 207.33 80.8C207.48 80.94 207.59 81.14 207.6 81.4C208.2 92.04 209.9 104.47 207.96 115.02C207.28 118.77 205.15 122.15 201.61 122.41C201.54 122.47 201.45 122.53 201.32 122.55C197.36 123.32 195.58 120.96 192.2 119.15C185.23 115.42 176.98 118.63 174.36 126.13C172.71 130.83 172.79 137.09 174.36 141.84C177.74 152.13 187.67 151.97 195.43 147.78C195.45 147.71 195.49 147.66 195.54 147.59C200.08 143.33 205.7 147.5 207.26 152.41C208.94 157.69 208.29 164.08 208.18 169.52C208.07 175.02 207.84 180.54 207.17 186C218.59 185.81 230.02 185.65 241.44 185.66C241.66 185.66 241.84 185.73 241.97 185.85C245.2 185.42 247.85 184.61 245.62 177.85C245.42 177.25 244.55 176.89 244.28 176.32C243.16 173.93 242.2 172.18 241.78 169.46C241.22 165.81 240.77 161.57 242.8 158.28C248.02 149.79 260.84 149.64 269.27 151.82C269.37 151.84 269.44 151.91 269.51 151.97C274.27 153.21 278.57 156.03 280.74 160.68C281.98 163.34 282.45 166.48 281.76 169.37C280.74 173.51 276.28 176.07 275.92 180.29C276.86 187.7 292.11 185.45 296.78 185.36C303.18 185.26 309.55 184.88 315.95 184.63C315.7 174.55 315.04 164.46 315.2 154.42C315.2 154.26 315.25 154.13 315.3 154.02C315.45 151.24 317.38 148.6 319.92 147.46C321.81 146.6 324.06 146.48 326.03 147.14C329.12 148.16 330.83 151.17 334.28 151.44L334.3 151.41ZM315.98 206.3C316.05 200.66 316.08 195.03 316.03 189.39C316.02 188.41 316.01 187.41 315.98 186.42C311.23 186.85 274.78 191.42 274.55 181.34C273.33 176.68 277.62 174.43 279.4 170.26C283.31 161.06 274.43 155.16 266.75 152.76C260.35 152.36 253.83 151.88 248.15 155.56C243.58 158.53 242.89 164.1 243.63 169.07C244.18 172.84 246.29 174.86 248.2 177.99C251.65 183.59 247.5 187.02 242.12 187.21C241.97 187.4 241.75 187.52 241.44 187.53C230.17 187.82 218.89 187.88 207.62 188C207.64 194.8 207.63 201.61 207.64 208.4C207.65 215.22 205.55 227.09 214.1 229.29C214.19 229.17 214.31 229.04 214.51 228.98C219.06 227.49 222.1 223.81 227.1 223.34C230.02 223.05 232.78 223.63 235.25 225.2C240.75 228.72 242.9 235.85 243.04 242.06C243.2 249.44 240.1 257.26 232.76 260.1C226.44 262.56 221.35 259.11 216.01 256.15C215.92 256.17 215.82 256.19 215.71 256.16C204.5 254.28 207.74 270.65 207.98 276.92C208.22 282.97 208.64 289.05 208.5 295.11C218.24 294.89 227.98 294.63 237.73 294.63C238.05 294.63 238.28 294.77 238.43 294.97C244.05 295.43 250.28 297.91 248.83 304.75C247.58 310.63 242.63 313.96 244.13 320.75C245.88 328.65 253.5 332.16 260.99 331.3C261.26 331.26 261.47 331.4 261.6 331.6C265.6 330.9 269.53 330.77 273.19 328.37C278.88 324.63 281.09 317.56 277.38 311.73C275.01 308 270.87 303.64 274.72 299.65C276.41 296.97 279.91 296.11 283.42 295.84C293.77 295.03 304.37 295.43 314.76 295.26C314.82 295.26 314.88 295.28 314.95 295.3C314.65 289.53 314.93 283.72 315.01 277.95C315.07 273.14 317.64 255.63 308.54 256.5C302.71 258.29 298.34 262.89 291.72 261.54C285.38 260.25 281.79 255.22 280.18 249.26C277.15 238.11 282.39 222.26 296.38 223.95C296.78 224 297.03 224.25 297.14 224.55C298.72 224.76 300.25 225.27 301.75 225.97C304.32 227.14 307.04 229.21 310.03 228.42C312.37 227.8 313.77 225.98 314.79 223.93C314.9 223.71 315.09 223.61 315.29 223.58C316.86 218.32 315.92 211.33 316 206.3H315.98ZM230.48 259.04C238.53 257.15 241.63 248.48 241.19 241.08C240.79 234.12 237.16 225.75 229.15 225.21C223.42 224.84 220.07 229.4 214.92 230.47C214.7 230.52 214.52 230.48 214.37 230.4C209.4 230.7 206.53 226.93 206.03 222.02C204.9 210.92 205.81 199.17 205.81 188.01C199.68 188.08 193.56 188.15 187.43 188.21C184.97 188.23 182.52 188.27 180.06 188.3C177.39 188.32 166.74 187.6 166.08 192.7C166.13 192.76 166.15 192.85 166.17 192.95C166.57 198.24 171.25 201.42 171.96 206.57C172.35 209.38 171.69 212.21 170.43 214.72C167.12 221.37 160.07 224.34 152.92 224.42C146.26 224.49 137.5 222.48 134.01 216.12C132.71 213.73 132.43 211.04 132.84 208.38C133.65 203.14 138.89 198.96 138.43 193.61C138.43 193.54 138.45 193.49 138.48 193.44C136.16 187.4 122.23 188.81 117.26 188.74C111.33 188.67 105.19 189.17 99.3 188.47C99.13 198 98.94 207.54 98.77 217.09C98.67 222.23 99.48 229.29 92.82 230.27C90.42 230.63 88.19 229.82 86.05 228.89C80.01 226.26 75.14 223.72 68.96 227.71C59.18 234 58.35 252.21 67.97 259.01C74.21 263.42 79.92 260.58 85.55 257.11C87.75 255.74 90.06 254.49 92.74 254.89C98.38 255.72 100.03 261.95 100.38 266.73C101.06 276.14 100.19 286 98.85 295.35C104.99 295.21 111.14 295.54 117.28 295.57C122.76 295.59 138.24 297.84 139.19 289.42C138.08 285.42 134.64 282.75 133.74 278.65C133.08 275.72 133.62 272.54 134.86 269.83C137.82 263.43 144.65 260.32 151.36 259.73C158.41 259.12 165.4 261.15 169.07 267.62C170.61 270.34 171.26 273.48 171.1 276.59C170.8 282 166.59 286.01 166.27 291.28C166.27 291.34 166.26 291.38 166.25 291.43C168.15 298.1 181.58 295.7 186.31 295.61C191.89 295.5 197.48 295.39 203.06 295.26C204.44 295.24 205.83 295.2 207.22 295.17C206.61 289.13 206.55 283.02 206.31 276.95C206.11 272.08 205.12 266.44 205.89 261.63C206.57 257.38 209.87 254.22 213.93 254.55C214.03 254.44 214.17 254.34 214.34 254.38C220.03 255.47 224.23 260.52 230.49 259.06L230.48 259.04ZM200.33 121.19C208.8 120.99 206.61 104.94 206.54 99.94C206.47 93.75 206.22 87.56 205.84 81.39C205.83 81.12 205.91 80.93 206.05 80.79C204.1 80.78 202.15 80.78 200.2 80.77C193.27 80.73 186.35 80.67 179.42 80.57C178.39 80.56 177.38 80.56 176.38 80.55C176.23 80.55 176.08 80.54 175.93 80.54C173.33 80.45 170.89 80.08 168.74 78.33C168.67 78.28 168.64 78.21 168.63 78.13C167.06 77.09 165.92 75.47 165.5 73.36C165.05 71.15 165.62 69.43 166.46 67.46C167.63 64.7 168.46 62.55 168.81 59.98C168.81 59.97 168.8 59.97 168.8 59.96C169.01 51.91 164.41 46.94 156.66 45.57C151.07 44.59 144.15 44.35 139.54 48.17C131.5 54.83 137.07 61.57 139.9 68.65C140.46 70.05 140.76 71.26 140.74 72.46C140.8 72.52 140.85 72.61 140.88 72.72C141.91 78.4 136.87 80.91 131.9 81.29C121.49 82.11 110.08 81.8 99.62 81.03C99.52 89.43 99.42 97.82 99.32 106.22C99.31 107.76 98.87 109.97 99.1 111.66C98.86 112.17 98.71 112.69 98.63 113.23C98.92 114.91 99.46 116.49 100.22 118.01C101.26 119.17 102.74 119.91 104.46 119.91H104.77C105.64 119.91 106.52 119.66 107.33 119.28C108.24 119.19 109.16 118.73 110.13 117.9C111.84 117.01 113.37 116.07 115.08 115.4C135.79 105.33 142.53 152.53 120 152.75C117.28 153.56 114.74 152.54 112.3 151.17C111.29 150.61 110.37 149.93 109.37 149.39C107.16 148.22 106.52 148.09 103.94 148.72C102.14 148.5 101.04 149.18 100.66 150.77C99.78 152.04 99.38 153.47 99.47 155.04C99.46 155.13 99.46 155.23 99.46 155.31C100.4 159.58 99.8 164.18 99.71 168.54C99.6 174.21 99.5 179.86 99.4 185.53C99.39 186.09 99.38 186.65 99.36 187.22C104.45 186.42 109.71 186.72 114.84 186.8C120.36 186.89 126.07 186.73 131.54 187.55C136.55 188.3 141.62 191.38 139.53 197.11C139.51 197.21 139.44 197.27 139.38 197.32C138.71 200.65 136.03 203.6 135.08 207.06C132.21 217.62 143.37 222.49 152 222.67C161.07 222.86 171.1 217.25 170.14 206.94C169.71 202.26 165.73 199.07 165.21 194.59C160.08 184.96 183.94 186.35 187.46 186.3C193.64 186.23 199.82 186.13 206 186.01C205.99 180.12 206.48 174.22 206.57 168.32C206.64 163.31 207.1 142.36 197.19 147.87C192.44 152.87 184.47 154.1 178.56 150.26C172.81 146.51 171.32 139.36 171.49 132.9C171.65 126.79 173.61 120.4 179.37 117.37C182 115.98 185.14 115.43 188.09 115.85C192.71 116.5 195.81 120.61 200.35 121.21L200.33 121.19Z" fill="#222221"/>
<path d="M339.82 146.22C340.28 146.11 340.53 146.73 340.13 146.99C338.45 148.07 335.86 147.81 334.14 146.95C333.83 146.8 334.05 146.3 334.38 146.4C335.27 146.67 336.17 146.87 337.13 146.83C338.1 146.79 338.89 146.44 339.83 146.21L339.82 146.22Z" fill="#222221"/>
<path d="M337.99 148.16C338.52 148.06 338.85 148.76 338.36 149.05C336.02 150.5 332.42 149.35 330.82 147.3C330.6 147 330.94 146.63 331.24 146.88C332.23 147.71 333.3 148.31 334.59 148.52C335.8 148.72 336.81 148.4 337.98 148.16H337.99Z" fill="#222221"/>
<path d="M310.96 258.83C312.82 260.56 313.98 263.35 313.82 265.91C313.77 266.53 312.9 266.52 312.85 265.91C312.63 263.33 311.92 261.36 310.4 259.26C310.15 258.91 310.67 258.56 310.96 258.83Z" fill="#222221"/>
<path d="M310.69 261.71C311.81 263.34 312.54 265.45 312.32 267.45C312.25 268.15 311.25 268.17 311.21 267.45C311.12 265.52 310.94 263.8 310.17 262.01C310.03 261.66 310.47 261.39 310.69 261.71Z" fill="#222221"/>
<path d="M283.84 106.26C284.16 109.27 281.55 112.44 279.18 113.94C278.87 114.13 278.53 113.68 278.79 113.44C279.85 112.48 280.74 111.36 281.42 110.11C282.13 108.82 282.28 107.45 282.79 106.12C283.01 105.55 283.77 105.66 283.83 106.26H283.84Z" fill="#222221"/>
<path d="M279.4 108.56C279.6 107.94 280.58 108.2 280.38 108.83C279.37 112.06 277.03 114.68 273.84 115.9C273.48 116.04 273.26 115.45 273.58 115.28C276.35 113.84 278.43 111.55 279.4 108.56Z" fill="#222221"/>
<path d="M248.19 163.32C248.55 162.9 249.18 163.44 248.94 163.89C248.33 165.01 248.07 166.11 248.58 167.33C248.69 167.62 248.24 167.76 248.1 167.53C247.29 166.26 247.21 164.54 248.2 163.32H248.19Z" fill="#222221"/>
<path d="M246.23 163.14C246.42 162.73 247.16 162.92 247.11 163.38C246.96 164.52 246.65 165.63 246.59 166.78C246.52 167.95 246.63 169.08 246.76 170.23C246.81 170.63 246.2 170.66 246.09 170.32C245.38 168.1 245.25 165.3 246.23 163.14Z" fill="#222221"/>
<path d="M232.57 290.56C233.18 290.68 233.04 291.72 232.43 291.63C230.23 291.36 228.13 291.15 225.91 291.15C225.51 291.14 225.4 290.49 225.81 290.43C228 290.13 230.41 290.13 232.57 290.57V290.56Z" fill="#222221"/>
<path d="M230.38 292.2C230.79 292.26 230.79 292.98 230.38 293.04C227.78 293.44 224.8 293.16 222.18 293C221.68 292.96 221.68 292.25 222.18 292.22C224.8 292.06 227.77 291.79 230.38 292.2Z" fill="#222221"/>
<path d="M187.49 122.34C187.92 122.45 187.83 123.12 187.39 123.11C185.33 123.11 183.51 123.13 181.55 123.87C181.26 123.97 181.09 123.52 181.35 123.39C183.16 122.43 185.45 121.85 187.49 122.35V122.34Z" fill="#222221"/>
<path d="M183.97 120.38C184.49 120.42 184.59 121.11 184.09 121.27C182.95 121.66 181.83 121.83 180.75 122.4C179.93 122.83 179.12 123.79 178.23 123.94C178.07 123.98 177.96 123.85 177.98 123.69C178.13 122.67 179.55 121.86 180.38 121.4C181.44 120.82 182.75 120.29 183.97 120.37V120.38Z" fill="#222221"/>
<path d="M173.78 266.33C174.05 267.09 172.87 267.39 172.59 266.67C171.7 264.4 170.2 262.43 168.2 261.03C167.78 260.73 168.15 260.07 168.61 260.33C171.03 261.66 172.83 263.73 173.78 266.33Z" fill="#222221"/>
<path d="M170.53 265.6C170.82 266.25 170 266.73 169.57 266.16C168.82 265.12 168.17 264.08 167.26 263.17C166.37 262.26 165.35 261.53 164.28 260.85C163.82 260.55 164.22 259.94 164.69 260.14C167.04 261.17 169.45 263.23 170.53 265.61V265.6Z" fill="#222221"/>
<path d="M163.92 50.5199C164.7 51.4499 165.52 52.7799 165.41 54.0399C165.39 54.3399 164.96 54.5199 164.8 54.1999C164.28 53.1599 164.03 52.1099 163.21 51.2299C162.41 50.3499 161.35 49.6799 160.23 49.2799C159.72 49.0899 159.92 48.3699 160.45 48.4699C161.83 48.7399 163 49.4399 163.92 50.5199Z" fill="#222221"/>
<path d="M161.05 50.82C162.84 51.83 164.7 54.16 164.23 56.36C164.12 56.88 163.4 56.79 163.25 56.36C162.94 55.43 162.9 54.48 162.45 53.59C162.02 52.71 161.42 51.93 160.7 51.27C160.45 51.05 160.77 50.67 161.05 50.82Z" fill="#222221"/>
<path d="M109.11 182.81C109.71 182.9 109.71 183.67 109.11 183.74C107.3 183.98 105.34 183.75 103.52 183.7C102.97 183.69 102.97 182.87 103.52 182.85C105.35 182.8 107.3 182.58 109.11 182.8V182.81Z" fill="#222221"/>
<path d="M108.26 184.83C108.57 184.92 108.61 185.44 108.26 185.49C107.1 185.66 105.92 185.61 104.74 185.63C103.58 185.64 102.38 185.83 101.24 185.61C100.88 185.54 100.95 185.06 101.24 184.95C102.33 184.55 103.59 184.6 104.74 184.58C105.92 184.56 107.11 184.56 108.26 184.84V184.83Z" fill="#222221"/>
<path d="M74.76 257.03C75.22 257.12 75.23 257.9 74.76 257.99C72.72 258.31 70.3 257.05 69.28 255.28C69.09 254.94 69.52 254.67 69.78 254.89C70.54 255.51 71.26 256.08 72.17 256.46C73.01 256.81 73.87 256.87 74.77 257.03H74.76Z" fill="#222221"/>
<path d="M73.57 258.83C73.86 258.95 73.77 259.44 73.47 259.5C70.67 260.02 67.53 257.34 66.47 254.94C66.32 254.59 66.76 254.33 66.99 254.64C67.85 255.82 68.83 256.83 70.11 257.55C71.22 258.18 72.42 258.33 73.56 258.83H73.57Z" fill="#222221"/>
<path d="M314.2 9.92985C313.23 9.49985 312.26 9.05985 311.3 8.62985C309.67 7.25985 307.78 6.38985 305.43 6.00985C304.27 5.81985 303.26 7.51985 304.55 8.09985C306.06 8.77985 307.56 9.46985 309.07 10.1498C278.74 8.39985 250.63 34.8699 256.12 66.4299C256.28 67.3599 257.82 67.1498 257.77 66.2099C256.98 51.5299 260.94 37.1399 271.46 26.4398C281.09 16.6398 294.8 11.5798 308.43 12.3098C306.5 13.4498 304.66 14.7399 302.91 16.2199C301.65 17.2799 303.47 19.0898 304.72 18.0299C307.66 15.5598 310.74 13.5798 314.22 11.9598C314.98 11.6098 315 10.2799 314.22 9.92985H314.2Z" fill="black"/>
<path d="M381.25 313.59C378.9 315.77 376.66 318.06 374.4 320.33C374.35 320.28 374.31 320.24 374.26 320.19C374.28 320.13 374.3 320.07 374.31 320.01C376.28 301.39 375.76 280.86 365.23 264.62C356.88 251.75 342.64 242.24 326.89 243.56C325.9 243.64 325.87 245.14 326.89 245.12C342.78 244.85 356.97 254.8 364.63 268.35C372.94 283.05 373.64 300.57 372.17 317.06C371.46 316.23 370.75 315.4 370.05 314.57C369.13 313.49 367.49 314.87 368.14 316.04C369.62 318.69 371.31 320.85 373.54 322.94C374.03 323.4 374.8 323.42 375.29 322.94C377.86 320.4 380.48 317.9 382.95 315.26C384 314.14 382.39 312.53 381.26 313.57L381.25 313.59Z" fill="black"/>
<path d="M74.89 130.57C60.6 130.2 48.39 120.71 43.04 107.64C37.11 93.1401 40.04 76.8401 45.67 62.7001C45.74 62.6601 45.8 62.6201 45.87 62.5801C46.72 66.4901 48.02 70.2301 49.87 73.8101C50.59 75.2101 52.63 73.9801 51.96 72.5901C50.06 68.5901 48.73 64.6601 47.91 60.3201C47.76 59.5101 46.75 59.2401 46.1 59.5901C46.04 59.6201 45.98 59.6601 45.92 59.6901C45.45 59.3701 44.8 59.3101 44.41 59.7801C43.91 60.3901 43.4 60.9701 42.88 61.5301C40.5 63.1201 38.35 64.9301 36.32 67.0501C35.39 68.0201 36.6 69.7501 37.8 68.9701C39.32 67.9701 40.73 66.8901 42.05 65.7101C36.96 80.1901 34.94 96.5101 41.7 110.73C47.64 123.23 60.54 133.41 74.88 132.04C75.8 131.95 75.84 130.6 74.88 130.57H74.89Z" fill="black"/>
<path d="M151.27 307.07C151.17 306.42 150.13 306.59 150.14 307.22C150.21 312.3 151.51 317.33 151.27 322.41C151.04 327.32 149.52 332.1 147 336.3C142.56 343.71 135.22 349.11 126.83 350.84C128.49 349.46 129.99 347.9 131.26 346.09C132.04 344.97 130.32 343.69 129.39 344.65C126.79 347.31 124.27 349.74 121.06 351.68C120.08 352.27 120.27 353.79 121.38 354.1C124.57 355.02 127.76 355.94 130.95 356.86C132.6 357.34 133.23 354.88 131.65 354.32C130.55 353.93 129.46 353.54 128.36 353.15C136.36 351.21 143.32 346.28 148.03 339.33C155.11 328.89 153.06 318.74 151.27 307.06V307.07Z" fill="black"/>
</g>
<path d="M12.855 38.47V49H10.29V42.685L7.935 49H5.865L3.495 42.67V49H0.93V38.47H3.96L6.915 45.76L9.84 38.47H12.855ZM18.5095 49.12C17.6895 49.12 16.9495 48.945 16.2895 48.595C15.6395 48.245 15.1245 47.745 14.7445 47.095C14.3745 46.445 14.1895 45.685 14.1895 44.815C14.1895 43.955 14.3795 43.2 14.7595 42.55C15.1395 41.89 15.6595 41.385 16.3195 41.035C16.9795 40.685 17.7195 40.51 18.5395 40.51C19.3595 40.51 20.0995 40.685 20.7595 41.035C21.4195 41.385 21.9395 41.89 22.3195 42.55C22.6995 43.2 22.8895 43.955 22.8895 44.815C22.8895 45.675 22.6945 46.435 22.3045 47.095C21.9245 47.745 21.3995 48.245 20.7295 48.595C20.0695 48.945 19.3295 49.12 18.5095 49.12ZM18.5095 46.9C18.9995 46.9 19.4145 46.72 19.7545 46.36C20.1045 46 20.2795 45.485 20.2795 44.815C20.2795 44.145 20.1095 43.63 19.7695 43.27C19.4395 42.91 19.0295 42.73 18.5395 42.73C18.0395 42.73 17.6245 42.91 17.2945 43.27C16.9645 43.62 16.7995 44.135 16.7995 44.815C16.7995 45.485 16.9595 46 17.2795 46.36C17.6095 46.72 18.0195 46.9 18.5095 46.9ZM28.9153 46.825V49H27.6103C26.6803 49 25.9553 48.775 25.4353 48.325C24.9153 47.865 24.6553 47.12 24.6553 46.09V42.76H23.6353V40.63H24.6553V38.59H27.2203V40.63H28.9003V42.76H27.2203V46.12C27.2203 46.37 27.2803 46.55 27.4003 46.66C27.5203 46.77 27.7203 46.825 28.0003 46.825H28.9153ZM31.6341 39.76C31.1841 39.76 30.8141 39.63 30.5241 39.37C30.2441 39.1 30.1041 38.77 30.1041 38.38C30.1041 37.98 30.2441 37.65 30.5241 37.39C30.8141 37.12 31.1841 36.985 31.6341 36.985C32.0741 36.985 32.4341 37.12 32.7141 37.39C33.0041 37.65 33.1491 37.98 33.1491 38.38C33.1491 38.77 33.0041 39.1 32.7141 39.37C32.4341 39.63 32.0741 39.76 31.6341 39.76ZM32.9091 40.63V49H30.3441V40.63H32.9091ZM38.5329 46.6L40.3479 40.63H43.0779L40.1079 49H36.9429L33.9729 40.63H36.7179L38.5329 46.6ZM43.6475 44.8C43.6475 43.94 43.8075 43.185 44.1275 42.535C44.4575 41.885 44.9025 41.385 45.4625 41.035C46.0225 40.685 46.6475 40.51 47.3375 40.51C47.9275 40.51 48.4425 40.63 48.8825 40.87C49.3325 41.11 49.6775 41.425 49.9175 41.815V40.63H52.4825V49H49.9175V47.815C49.6675 48.205 49.3175 48.52 48.8675 48.76C48.4275 49 47.9125 49.12 47.3225 49.12C46.6425 49.12 46.0225 48.945 45.4625 48.595C44.9025 48.235 44.4575 47.73 44.1275 47.08C43.8075 46.42 43.6475 45.66 43.6475 44.8ZM49.9175 44.815C49.9175 44.175 49.7375 43.67 49.3775 43.3C49.0275 42.93 48.5975 42.745 48.0875 42.745C47.5775 42.745 47.1425 42.93 46.7825 43.3C46.4325 43.66 46.2575 44.16 46.2575 44.8C46.2575 45.44 46.4325 45.95 46.7825 46.33C47.1425 46.7 47.5775 46.885 48.0875 46.885C48.5975 46.885 49.0275 46.7 49.3775 46.33C49.7375 45.96 49.9175 45.455 49.9175 44.815ZM59.0032 46.825V49H57.6982C56.7682 49 56.0432 48.775 55.5232 48.325C55.0032 47.865 54.7432 47.12 54.7432 46.09V42.76H53.7232V40.63H54.7432V38.59H57.3082V40.63H58.9882V42.76H57.3082V46.12C57.3082 46.37 57.3682 46.55 57.4882 46.66C57.6082 46.77 57.8082 46.825 58.0882 46.825H59.0032ZM61.722 39.76C61.272 39.76 60.902 39.63 60.612 39.37C60.332 39.1 60.192 38.77 60.192 38.38C60.192 37.98 60.332 37.65 60.612 37.39C60.902 37.12 61.272 36.985 61.722 36.985C62.162 36.985 62.522 37.12 62.802 37.39C63.092 37.65 63.237 37.98 63.237 38.38C63.237 38.77 63.092 39.1 62.802 39.37C62.522 39.63 62.162 39.76 61.722 39.76ZM62.997 40.63V49H60.432V40.63H62.997ZM68.6658 49.12C67.8458 49.12 67.1058 48.945 66.4458 48.595C65.7958 48.245 65.2808 47.745 64.9008 47.095C64.5308 46.445 64.3458 45.685 64.3458 44.815C64.3458 43.955 64.5358 43.2 64.9158 42.55C65.2958 41.89 65.8158 41.385 66.4758 41.035C67.1358 40.685 67.8758 40.51 68.6958 40.51C69.5158 40.51 70.2558 40.685 70.9158 41.035C71.5758 41.385 72.0958 41.89 72.4758 42.55C72.8558 43.2 73.0458 43.955 73.0458 44.815C73.0458 45.675 72.8508 46.435 72.4608 47.095C72.0808 47.745 71.5558 48.245 70.8858 48.595C70.2258 48.945 69.4858 49.12 68.6658 49.12ZM68.6658 46.9C69.1558 46.9 69.5708 46.72 69.9108 46.36C70.2608 46 70.4358 45.485 70.4358 44.815C70.4358 44.145 70.2658 43.63 69.9258 43.27C69.5958 42.91 69.1858 42.73 68.6958 42.73C68.1958 42.73 67.7808 42.91 67.4508 43.27C67.1208 43.62 66.9558 44.135 66.9558 44.815C66.9558 45.485 67.1158 46 67.4358 46.36C67.7658 46.72 68.1758 46.9 68.6658 46.9ZM79.5066 40.54C80.4866 40.54 81.2666 40.86 81.8466 41.5C82.4366 42.13 82.7316 43 82.7316 44.11V49H80.1816V44.455C80.1816 43.895 80.0366 43.46 79.7466 43.15C79.4566 42.84 79.0666 42.685 78.5766 42.685C78.0866 42.685 77.6966 42.84 77.4066 43.15C77.1166 43.46 76.9716 43.895 76.9716 44.455V49H74.4066V40.63H76.9716V41.74C77.2316 41.37 77.5816 41.08 78.0216 40.87C78.4616 40.65 78.9566 40.54 79.5066 40.54ZM87.919 49.12C87.189 49.12 86.539 48.995 85.969 48.745C85.399 48.495 84.949 48.155 84.619 47.725C84.289 47.285 84.104 46.795 84.064 46.255H86.599C86.629 46.545 86.764 46.78 87.004 46.96C87.244 47.14 87.539 47.23 87.889 47.23C88.209 47.23 88.454 47.17 88.624 47.05C88.804 46.92 88.894 46.755 88.894 46.555C88.894 46.315 88.769 46.14 88.519 46.03C88.269 45.91 87.864 45.78 87.304 45.64C86.704 45.5 86.204 45.355 85.804 45.205C85.404 45.045 85.059 44.8 84.769 44.47C84.479 44.13 84.334 43.675 84.334 43.105C84.334 42.625 84.464 42.19 84.724 41.8C84.994 41.4 85.384 41.085 85.894 40.855C86.414 40.625 87.029 40.51 87.739 40.51C88.789 40.51 89.614 40.77 90.214 41.29C90.824 41.81 91.174 42.5 91.264 43.36H88.894C88.854 43.07 88.724 42.84 88.504 42.67C88.294 42.5 88.014 42.415 87.664 42.415C87.364 42.415 87.134 42.475 86.974 42.595C86.814 42.705 86.734 42.86 86.734 43.06C86.734 43.3 86.859 43.48 87.109 43.6C87.369 43.72 87.769 43.84 88.309 43.96C88.929 44.12 89.434 44.28 89.824 44.44C90.214 44.59 90.554 44.84 90.844 45.19C91.144 45.53 91.299 45.99 91.309 46.57C91.309 47.06 91.169 47.5 90.889 47.89C90.619 48.27 90.224 48.57 89.704 48.79C89.194 49.01 88.599 49.12 87.919 49.12Z" fill="black"/>
<path d="M30.955 354.86C30.955 355.47 30.815 356.03 30.535 356.54C30.255 357.04 29.825 357.445 29.245 357.755C28.665 358.065 27.945 358.22 27.085 358.22H25.495V362H22.93V351.47H27.085C27.925 351.47 28.635 351.615 29.215 351.905C29.795 352.195 30.23 352.595 30.52 353.105C30.81 353.615 30.955 354.2 30.955 354.86ZM26.89 356.18C27.38 356.18 27.745 356.065 27.985 355.835C28.225 355.605 28.345 355.28 28.345 354.86C28.345 354.44 28.225 354.115 27.985 353.885C27.745 353.655 27.38 353.54 26.89 353.54H25.495V356.18H26.89ZM34.8554 355.025C35.1554 354.565 35.5304 354.205 35.9804 353.945C36.4304 353.675 36.9304 353.54 37.4804 353.54V356.255H36.7754C36.1354 356.255 35.6554 356.395 35.3354 356.675C35.0154 356.945 34.8554 357.425 34.8554 358.115V362H32.2904V353.63H34.8554V355.025ZM46.5964 357.68C46.5964 357.92 46.5814 358.17 46.5514 358.43H40.7464C40.7864 358.95 40.9514 359.35 41.2414 359.63C41.5414 359.9 41.9064 360.035 42.3364 360.035C42.9764 360.035 43.4214 359.765 43.6714 359.225H46.4014C46.2614 359.775 46.0064 360.27 45.6364 360.71C45.2764 361.15 44.8214 361.495 44.2714 361.745C43.7214 361.995 43.1064 362.12 42.4264 362.12C41.6064 362.12 40.8764 361.945 40.2364 361.595C39.5964 361.245 39.0964 360.745 38.7364 360.095C38.3764 359.445 38.1964 358.685 38.1964 357.815C38.1964 356.945 38.3714 356.185 38.7214 355.535C39.0814 354.885 39.5814 354.385 40.2214 354.035C40.8614 353.685 41.5964 353.51 42.4264 353.51C43.2364 353.51 43.9564 353.68 44.5864 354.02C45.2164 354.36 45.7064 354.845 46.0564 355.475C46.4164 356.105 46.5964 356.84 46.5964 357.68ZM43.9714 357.005C43.9714 356.565 43.8214 356.215 43.5214 355.955C43.2214 355.695 42.8464 355.565 42.3964 355.565C41.9664 355.565 41.6014 355.69 41.3014 355.94C41.0114 356.19 40.8314 356.545 40.7614 357.005H43.9714ZM52.1495 355.76H50.7695V362H48.2045V355.76H47.2745V353.63H48.2045V353.39C48.2045 352.36 48.4995 351.58 49.0895 351.05C49.6795 350.51 50.5445 350.24 51.6845 350.24C51.8745 350.24 52.0145 350.245 52.1045 350.255V352.43C51.6145 352.4 51.2695 352.47 51.0695 352.64C50.8695 352.81 50.7695 353.115 50.7695 353.555V353.63H52.1495V355.76ZM61.2448 357.68C61.2448 357.92 61.2298 358.17 61.1998 358.43H55.3948C55.4348 358.95 55.5998 359.35 55.8898 359.63C56.1898 359.9 56.5548 360.035 56.9848 360.035C57.6248 360.035 58.0698 359.765 58.3198 359.225H61.0498C60.9098 359.775 60.6548 360.27 60.2848 360.71C59.9248 361.15 59.4698 361.495 58.9198 361.745C58.3698 361.995 57.7548 362.12 57.0748 362.12C56.2548 362.12 55.5248 361.945 54.8848 361.595C54.2448 361.245 53.7448 360.745 53.3848 360.095C53.0248 359.445 52.8448 358.685 52.8448 357.815C52.8448 356.945 53.0198 356.185 53.3698 355.535C53.7298 354.885 54.2298 354.385 54.8698 354.035C55.5098 353.685 56.2448 353.51 57.0748 353.51C57.8848 353.51 58.6048 353.68 59.2348 354.02C59.8648 354.36 60.3548 354.845 60.7048 355.475C61.0648 356.105 61.2448 356.84 61.2448 357.68ZM58.6198 357.005C58.6198 356.565 58.4698 356.215 58.1698 355.955C57.8698 355.695 57.4948 355.565 57.0448 355.565C56.6148 355.565 56.2498 355.69 55.9498 355.94C55.6598 356.19 55.4798 356.545 55.4098 357.005H58.6198ZM65.163 355.025C65.463 354.565 65.838 354.205 66.288 353.945C66.738 353.675 67.238 353.54 67.788 353.54V356.255H67.083C66.443 356.255 65.963 356.395 65.643 356.675C65.323 356.945 65.163 357.425 65.163 358.115V362H62.598V353.63H65.163V355.025ZM76.904 357.68C76.904 357.92 76.889 358.17 76.859 358.43H71.054C71.094 358.95 71.259 359.35 71.549 359.63C71.849 359.9 72.214 360.035 72.644 360.035C73.284 360.035 73.729 359.765 73.979 359.225H76.709C76.569 359.775 76.314 360.27 75.944 360.71C75.584 361.15 75.129 361.495 74.579 361.745C74.029 361.995 73.414 362.12 72.734 362.12C71.914 362.12 71.184 361.945 70.544 361.595C69.904 361.245 69.404 360.745 69.044 360.095C68.684 359.445 68.504 358.685 68.504 357.815C68.504 356.945 68.679 356.185 69.029 355.535C69.389 354.885 69.889 354.385 70.529 354.035C71.169 353.685 71.904 353.51 72.734 353.51C73.544 353.51 74.264 353.68 74.894 354.02C75.524 354.36 76.014 354.845 76.364 355.475C76.724 356.105 76.904 356.84 76.904 357.68ZM74.279 357.005C74.279 356.565 74.129 356.215 73.829 355.955C73.529 355.695 73.154 355.565 72.704 355.565C72.274 355.565 71.909 355.69 71.609 355.94C71.319 356.19 71.139 356.545 71.069 357.005H74.279ZM83.3571 353.54C84.3371 353.54 85.1171 353.86 85.6971 354.5C86.2871 355.13 86.5821 356 86.5821 357.11V362H84.0321V357.455C84.0321 356.895 83.8871 356.46 83.5971 356.15C83.3071 355.84 82.9171 355.685 82.4271 355.685C81.9371 355.685 81.5471 355.84 81.2571 356.15C80.9671 356.46 80.8221 356.895 80.8221 357.455V362H78.2571V353.63H80.8221V354.74C81.0821 354.37 81.4321 354.08 81.8721 353.87C82.3121 353.65 82.8071 353.54 83.3571 353.54ZM87.8546 357.815C87.8546 356.945 88.0296 356.185 88.3796 355.535C88.7396 354.885 89.2346 354.385 89.8646 354.035C90.5046 353.685 91.2346 353.51 92.0546 353.51C93.1046 353.51 93.9796 353.785 94.6796 354.335C95.3896 354.885 95.8546 355.66 96.0746 356.66H93.3446C93.1146 356.02 92.6696 355.7 92.0096 355.7C91.5396 355.7 91.1646 355.885 90.8846 356.255C90.6046 356.615 90.4646 357.135 90.4646 357.815C90.4646 358.495 90.6046 359.02 90.8846 359.39C91.1646 359.75 91.5396 359.93 92.0096 359.93C92.6696 359.93 93.1146 359.61 93.3446 358.97H96.0746C95.8546 359.95 95.3896 360.72 94.6796 361.28C93.9696 361.84 93.0946 362.12 92.0546 362.12C91.2346 362.12 90.5046 361.945 89.8646 361.595C89.2346 361.245 88.7396 360.745 88.3796 360.095C88.0296 359.445 87.8546 358.685 87.8546 357.815ZM105.337 357.68C105.337 357.92 105.322 358.17 105.292 358.43H99.4866C99.5266 358.95 99.6916 359.35 99.9816 359.63C100.282 359.9 100.647 360.035 101.077 360.035C101.717 360.035 102.162 359.765 102.412 359.225H105.142C105.002 359.775 104.747 360.27 104.377 360.71C104.017 361.15 103.562 361.495 103.012 361.745C102.462 361.995 101.847 362.12 101.167 362.12C100.347 362.12 99.6166 361.945 98.9766 361.595C98.3366 361.245 97.8366 360.745 97.4766 360.095C97.1166 359.445 96.9366 358.685 96.9366 357.815C96.9366 356.945 97.1116 356.185 97.4616 355.535C97.8216 354.885 98.3216 354.385 98.9616 354.035C99.6016 353.685 100.337 353.51 101.167 353.51C101.977 353.51 102.697 353.68 103.327 354.02C103.957 354.36 104.447 354.845 104.797 355.475C105.157 356.105 105.337 356.84 105.337 357.68ZM102.712 357.005C102.712 356.565 102.562 356.215 102.262 355.955C101.962 355.695 101.587 355.565 101.137 355.565C100.707 355.565 100.342 355.69 100.042 355.94C99.7516 356.19 99.5716 356.545 99.5016 357.005H102.712ZM110.095 362.12C109.365 362.12 108.715 361.995 108.145 361.745C107.575 361.495 107.125 361.155 106.795 360.725C106.465 360.285 106.28 359.795 106.24 359.255H108.775C108.805 359.545 108.94 359.78 109.18 359.96C109.42 360.14 109.715 360.23 110.065 360.23C110.385 360.23 110.63 360.17 110.8 360.05C110.98 359.92 111.07 359.755 111.07 359.555C111.07 359.315 110.945 359.14 110.695 359.03C110.445 358.91 110.04 358.78 109.48 358.64C108.88 358.5 108.38 358.355 107.98 358.205C107.58 358.045 107.235 357.8 106.945 357.47C106.655 357.13 106.51 356.675 106.51 356.105C106.51 355.625 106.64 355.19 106.9 354.8C107.17 354.4 107.56 354.085 108.07 353.855C108.59 353.625 109.205 353.51 109.915 353.51C110.965 353.51 111.79 353.77 112.39 354.29C113 354.81 113.35 355.5 113.44 356.36H111.07C111.03 356.07 110.9 355.84 110.68 355.67C110.47 355.5 110.19 355.415 109.84 355.415C109.54 355.415 109.31 355.475 109.15 355.595C108.99 355.705 108.91 355.86 108.91 356.06C108.91 356.3 109.035 356.48 109.285 356.6C109.545 356.72 109.945 356.84 110.485 356.96C111.105 357.12 111.61 357.28 112 357.44C112.39 357.59 112.73 357.84 113.02 358.19C113.32 358.53 113.475 358.99 113.485 359.57C113.485 360.06 113.345 360.5 113.065 360.89C112.795 361.27 112.4 361.57 111.88 361.79C111.37 362.01 110.775 362.12 110.095 362.12Z" fill="black"/>
<path d="M312.589 335.72C312.589 334.68 312.814 333.755 313.264 332.945C313.714 332.125 314.339 331.49 315.139 331.04C315.949 330.58 316.864 330.35 317.884 330.35C319.134 330.35 320.204 330.68 321.094 331.34C321.984 332 322.579 332.9 322.879 334.04H320.059C319.849 333.6 319.549 333.265 319.159 333.035C318.779 332.805 318.344 332.69 317.854 332.69C317.064 332.69 316.424 332.965 315.934 333.515C315.444 334.065 315.199 334.8 315.199 335.72C315.199 336.64 315.444 337.375 315.934 337.925C316.424 338.475 317.064 338.75 317.854 338.75C318.344 338.75 318.779 338.635 319.159 338.405C319.549 338.175 319.849 337.84 320.059 337.4H322.879C322.579 338.54 321.984 339.44 321.094 340.1C320.204 340.75 319.134 341.075 317.884 341.075C316.864 341.075 315.949 340.85 315.139 340.4C314.339 339.94 313.714 339.305 313.264 338.495C312.814 337.685 312.589 336.76 312.589 335.72ZM328.26 341.12C327.44 341.12 326.7 340.945 326.04 340.595C325.39 340.245 324.875 339.745 324.495 339.095C324.125 338.445 323.94 337.685 323.94 336.815C323.94 335.955 324.13 335.2 324.51 334.55C324.89 333.89 325.41 333.385 326.07 333.035C326.73 332.685 327.47 332.51 328.29 332.51C329.11 332.51 329.85 332.685 330.51 333.035C331.17 333.385 331.69 333.89 332.07 334.55C332.45 335.2 332.64 335.955 332.64 336.815C332.64 337.675 332.445 338.435 332.055 339.095C331.675 339.745 331.15 340.245 330.48 340.595C329.82 340.945 329.08 341.12 328.26 341.12ZM328.26 338.9C328.75 338.9 329.165 338.72 329.505 338.36C329.855 338 330.03 337.485 330.03 336.815C330.03 336.145 329.86 335.63 329.52 335.27C329.19 334.91 328.78 334.73 328.29 334.73C327.79 334.73 327.375 334.91 327.045 335.27C326.715 335.62 326.55 336.135 326.55 336.815C326.55 337.485 326.71 338 327.03 338.36C327.36 338.72 327.77 338.9 328.26 338.9ZM344.681 332.54C345.721 332.54 346.546 332.855 347.156 333.485C347.776 334.115 348.086 334.99 348.086 336.11V341H345.536V336.455C345.536 335.915 345.391 335.5 345.101 335.21C344.821 334.91 344.431 334.76 343.931 334.76C343.431 334.76 343.036 334.91 342.746 335.21C342.466 335.5 342.326 335.915 342.326 336.455V341H339.776V336.455C339.776 335.915 339.631 335.5 339.341 335.21C339.061 334.91 338.671 334.76 338.171 334.76C337.671 334.76 337.276 334.91 336.986 335.21C336.706 335.5 336.566 335.915 336.566 336.455V341H334.001V332.63H336.566V333.68C336.826 333.33 337.166 333.055 337.586 332.855C338.006 332.645 338.481 332.54 339.011 332.54C339.641 332.54 340.201 332.675 340.691 332.945C341.191 333.215 341.581 333.6 341.861 334.1C342.151 333.64 342.546 333.265 343.046 332.975C343.546 332.685 344.091 332.54 344.681 332.54ZM360.56 332.54C361.6 332.54 362.425 332.855 363.035 333.485C363.655 334.115 363.965 334.99 363.965 336.11V341H361.415V336.455C361.415 335.915 361.27 335.5 360.98 335.21C360.7 334.91 360.31 334.76 359.81 334.76C359.31 334.76 358.915 334.91 358.625 335.21C358.345 335.5 358.205 335.915 358.205 336.455V341H355.655V336.455C355.655 335.915 355.51 335.5 355.22 335.21C354.94 334.91 354.55 334.76 354.05 334.76C353.55 334.76 353.155 334.91 352.865 335.21C352.585 335.5 352.445 335.915 352.445 336.455V341H349.88V332.63H352.445V333.68C352.705 333.33 353.045 333.055 353.465 332.855C353.885 332.645 354.36 332.54 354.89 332.54C355.52 332.54 356.08 332.675 356.57 332.945C357.07 333.215 357.46 333.6 357.74 334.1C358.03 333.64 358.425 333.265 358.925 332.975C359.425 332.685 359.97 332.54 360.56 332.54ZM374.024 332.63V341H371.459V339.86C371.199 340.23 370.844 340.53 370.394 340.76C369.954 340.98 369.464 341.09 368.924 341.09C368.284 341.09 367.719 340.95 367.229 340.67C366.739 340.38 366.359 339.965 366.089 339.425C365.819 338.885 365.684 338.25 365.684 337.52V332.63H368.234V337.175C368.234 337.735 368.379 338.17 368.669 338.48C368.959 338.79 369.349 338.945 369.839 338.945C370.339 338.945 370.734 338.79 371.024 338.48C371.314 338.17 371.459 337.735 371.459 337.175V332.63H374.024ZM380.966 332.54C381.946 332.54 382.726 332.86 383.306 333.5C383.896 334.13 384.191 335 384.191 336.11V341H381.641V336.455C381.641 335.895 381.496 335.46 381.206 335.15C380.916 334.84 380.526 334.685 380.036 334.685C379.546 334.685 379.156 334.84 378.866 335.15C378.576 335.46 378.431 335.895 378.431 336.455V341H375.866V332.63H378.431V333.74C378.691 333.37 379.041 333.08 379.481 332.87C379.921 332.65 380.416 332.54 380.966 332.54ZM387.263 331.76C386.813 331.76 386.443 331.63 386.153 331.37C385.873 331.1 385.733 330.77 385.733 330.38C385.733 329.98 385.873 329.65 386.153 329.39C386.443 329.12 386.813 328.985 387.263 328.985C387.703 328.985 388.063 329.12 388.343 329.39C388.633 329.65 388.778 329.98 388.778 330.38C388.778 330.77 388.633 331.1 388.343 331.37C388.063 331.63 387.703 331.76 387.263 331.76ZM388.538 332.63V341H385.973V332.63H388.538ZM389.887 336.815C389.887 335.945 390.062 335.185 390.412 334.535C390.772 333.885 391.267 333.385 391.897 333.035C392.537 332.685 393.267 332.51 394.087 332.51C395.137 332.51 396.012 332.785 396.712 333.335C397.422 333.885 397.887 334.66 398.107 335.66H395.377C395.147 335.02 394.702 334.7 394.042 334.7C393.572 334.7 393.197 334.885 392.917 335.255C392.637 335.615 392.497 336.135 392.497 336.815C392.497 337.495 392.637 338.02 392.917 338.39C393.197 338.75 393.572 338.93 394.042 338.93C394.702 338.93 395.147 338.61 395.377 337.97H398.107C397.887 338.95 397.422 339.72 396.712 340.28C396.002 340.84 395.127 341.12 394.087 341.12C393.267 341.12 392.537 340.945 391.897 340.595C391.267 340.245 390.772 339.745 390.412 339.095C390.062 338.445 389.887 337.685 389.887 336.815ZM398.969 336.8C398.969 335.94 399.129 335.185 399.449 334.535C399.779 333.885 400.224 333.385 400.784 333.035C401.344 332.685 401.969 332.51 402.659 332.51C403.249 332.51 403.764 332.63 404.204 332.87C404.654 333.11 404.999 333.425 405.239 333.815V332.63H407.804V341H405.239V339.815C404.989 340.205 404.639 340.52 404.189 340.76C403.749 341 403.234 341.12 402.644 341.12C401.964 341.12 401.344 340.945 400.784 340.595C400.224 340.235 399.779 339.73 399.449 339.08C399.129 338.42 398.969 337.66 398.969 336.8ZM405.239 336.815C405.239 336.175 405.059 335.67 404.699 335.3C404.349 334.93 403.919 334.745 403.409 334.745C402.899 334.745 402.464 334.93 402.104 335.3C401.754 335.66 401.579 336.16 401.579 336.8C401.579 337.44 401.754 337.95 402.104 338.33C402.464 338.7 402.899 338.885 403.409 338.885C403.919 338.885 404.349 338.7 404.699 338.33C405.059 337.96 405.239 337.455 405.239 336.815ZM414.325 338.825V341H413.02C412.09 341 411.365 340.775 410.845 340.325C410.325 339.865 410.065 339.12 410.065 338.09V334.76H409.045V332.63H410.065V330.59H412.63V332.63H414.31V334.76H412.63V338.12C412.63 338.37 412.69 338.55 412.81 338.66C412.93 338.77 413.13 338.825 413.41 338.825H414.325ZM417.044 331.76C416.594 331.76 416.224 331.63 415.934 331.37C415.654 331.1 415.514 330.77 415.514 330.38C415.514 329.98 415.654 329.65 415.934 329.39C416.224 329.12 416.594 328.985 417.044 328.985C417.484 328.985 417.844 329.12 418.124 329.39C418.414 329.65 418.559 329.98 418.559 330.38C418.559 330.77 418.414 331.1 418.124 331.37C417.844 331.63 417.484 331.76 417.044 331.76ZM418.319 332.63V341H415.754V332.63H418.319ZM423.988 341.12C423.168 341.12 422.428 340.945 421.768 340.595C421.118 340.245 420.603 339.745 420.223 339.095C419.853 338.445 419.668 337.685 419.668 336.815C419.668 335.955 419.858 335.2 420.238 334.55C420.618 333.89 421.138 333.385 421.798 333.035C422.458 332.685 423.198 332.51 424.018 332.51C424.838 332.51 425.578 332.685 426.238 333.035C426.898 333.385 427.418 333.89 427.798 334.55C428.178 335.2 428.368 335.955 428.368 336.815C428.368 337.675 428.173 338.435 427.783 339.095C427.403 339.745 426.878 340.245 426.208 340.595C425.548 340.945 424.808 341.12 423.988 341.12ZM423.988 338.9C424.478 338.9 424.893 338.72 425.233 338.36C425.583 338 425.758 337.485 425.758 336.815C425.758 336.145 425.588 335.63 425.248 335.27C424.918 334.91 424.508 334.73 424.018 334.73C423.518 334.73 423.103 334.91 422.773 335.27C422.443 335.62 422.278 336.135 422.278 336.815C422.278 337.485 422.438 338 422.758 338.36C423.088 338.72 423.498 338.9 423.988 338.9ZM434.828 332.54C435.808 332.54 436.588 332.86 437.168 333.5C437.758 334.13 438.053 335 438.053 336.11V341H435.503V336.455C435.503 335.895 435.358 335.46 435.068 335.15C434.778 334.84 434.388 334.685 433.898 334.685C433.408 334.685 433.018 334.84 432.728 335.15C432.438 335.46 432.293 335.895 432.293 336.455V341H429.728V332.63H432.293V333.74C432.553 333.37 432.903 333.08 433.343 332.87C433.783 332.65 434.278 332.54 434.828 332.54ZM356.852 363.12C356.122 363.12 355.472 362.995 354.902 362.745C354.332 362.495 353.882 362.155 353.552 361.725C353.222 361.285 353.037 360.795 352.997 360.255H355.532C355.562 360.545 355.697 360.78 355.937 360.96C356.177 361.14 356.472 361.23 356.822 361.23C357.142 361.23 357.387 361.17 357.557 361.05C357.737 360.92 357.827 360.755 357.827 360.555C357.827 360.315 357.702 360.14 357.452 360.03C357.202 359.91 356.797 359.78 356.237 359.64C355.637 359.5 355.137 359.355 354.737 359.205C354.337 359.045 353.992 358.8 353.702 358.47C353.412 358.13 353.267 357.675 353.267 357.105C353.267 356.625 353.397 356.19 353.657 355.8C353.927 355.4 354.317 355.085 354.827 354.855C355.347 354.625 355.962 354.51 356.672 354.51C357.722 354.51 358.547 354.77 359.147 355.29C359.757 355.81 360.107 356.5 360.197 357.36H357.827C357.787 357.07 357.657 356.84 357.437 356.67C357.227 356.5 356.947 356.415 356.597 356.415C356.297 356.415 356.067 356.475 355.907 356.595C355.747 356.705 355.667 356.86 355.667 357.06C355.667 357.3 355.792 357.48 356.042 357.6C356.302 357.72 356.702 357.84 357.242 357.96C357.862 358.12 358.367 358.28 358.757 358.44C359.147 358.59 359.487 358.84 359.777 359.19C360.077 359.53 360.232 359.99 360.242 360.57C360.242 361.06 360.102 361.5 359.822 361.89C359.552 362.27 359.157 362.57 358.637 362.79C358.127 363.01 357.532 363.12 356.852 363.12ZM366.476 360.825V363H365.171C364.241 363 363.516 362.775 362.996 362.325C362.476 361.865 362.216 361.12 362.216 360.09V356.76H361.196V354.63H362.216V352.59H364.781V354.63H366.461V356.76H364.781V360.12C364.781 360.37 364.841 360.55 364.961 360.66C365.081 360.77 365.281 360.825 365.561 360.825H366.476ZM376.455 354.63L371.205 366.975H368.445L370.365 362.715L366.96 354.63H369.825L371.76 359.865L373.68 354.63H376.455ZM379.947 351.9V363H377.382V351.9H379.947ZM389.696 358.68C389.696 358.92 389.681 359.17 389.651 359.43H383.846C383.886 359.95 384.051 360.35 384.341 360.63C384.641 360.9 385.006 361.035 385.436 361.035C386.076 361.035 386.521 360.765 386.771 360.225H389.501C389.361 360.775 389.106 361.27 388.736 361.71C388.376 362.15 387.921 362.495 387.371 362.745C386.821 362.995 386.206 363.12 385.526 363.12C384.706 363.12 383.976 362.945 383.336 362.595C382.696 362.245 382.196 361.745 381.836 361.095C381.476 360.445 381.296 359.685 381.296 358.815C381.296 357.945 381.471 357.185 381.821 356.535C382.181 355.885 382.681 355.385 383.321 355.035C383.961 354.685 384.696 354.51 385.526 354.51C386.336 354.51 387.056 354.68 387.686 355.02C388.316 355.36 388.806 355.845 389.156 356.475C389.516 357.105 389.696 357.84 389.696 358.68ZM387.071 358.005C387.071 357.565 386.921 357.215 386.621 356.955C386.321 356.695 385.946 356.565 385.496 356.565C385.066 356.565 384.701 356.69 384.401 356.94C384.111 357.19 383.931 357.545 383.861 358.005H387.071ZM394.454 363.12C393.724 363.12 393.074 362.995 392.504 362.745C391.934 362.495 391.484 362.155 391.154 361.725C390.824 361.285 390.639 360.795 390.599 360.255H393.134C393.164 360.545 393.299 360.78 393.539 360.96C393.779 361.14 394.074 361.23 394.424 361.23C394.744 361.23 394.989 361.17 395.159 361.05C395.339 360.92 395.429 360.755 395.429 360.555C395.429 360.315 395.304 360.14 395.054 360.03C394.804 359.91 394.399 359.78 393.839 359.64C393.239 359.5 392.739 359.355 392.339 359.205C391.939 359.045 391.594 358.8 391.304 358.47C391.014 358.13 390.869 357.675 390.869 357.105C390.869 356.625 390.999 356.19 391.259 355.8C391.529 355.4 391.919 355.085 392.429 354.855C392.949 354.625 393.564 354.51 394.274 354.51C395.324 354.51 396.149 354.77 396.749 355.29C397.359 355.81 397.709 356.5 397.799 357.36H395.429C395.389 357.07 395.259 356.84 395.039 356.67C394.829 356.5 394.549 356.415 394.199 356.415C393.899 356.415 393.669 356.475 393.509 356.595C393.349 356.705 393.269 356.86 393.269 357.06C393.269 357.3 393.394 357.48 393.644 357.6C393.904 357.72 394.304 357.84 394.844 357.96C395.464 358.12 395.969 358.28 396.359 358.44C396.749 358.59 397.089 358.84 397.379 359.19C397.679 359.53 397.834 359.99 397.844 360.57C397.844 361.06 397.704 361.5 397.424 361.89C397.154 362.27 396.759 362.57 396.239 362.79C395.729 363.01 395.134 363.12 394.454 363.12Z" fill="black"/>
<path d="M324.495 5.47V16H321.93V5.47H324.495ZM331.454 7.54C332.434 7.54 333.214 7.86 333.794 8.5C334.384 9.13 334.679 10 334.679 11.11V16H332.129V11.455C332.129 10.895 331.984 10.46 331.694 10.15C331.404 9.84 331.014 9.685 330.524 9.685C330.034 9.685 329.644 9.84 329.354 10.15C329.064 10.46 328.919 10.895 328.919 11.455V16H326.354V7.63H328.919V8.74C329.179 8.37 329.529 8.08 329.969 7.87C330.409 7.65 330.904 7.54 331.454 7.54ZM341.126 13.825V16H339.821C338.891 16 338.166 15.775 337.646 15.325C337.126 14.865 336.866 14.12 336.866 13.09V9.76H335.846V7.63H336.866V5.59H339.431V7.63H341.111V9.76H339.431V13.12C339.431 13.37 339.491 13.55 339.611 13.66C339.731 13.77 339.931 13.825 340.211 13.825H341.126ZM350.445 11.68C350.445 11.92 350.43 12.17 350.4 12.43H344.595C344.635 12.95 344.8 13.35 345.09 13.63C345.39 13.9 345.755 14.035 346.185 14.035C346.825 14.035 347.27 13.765 347.52 13.225H350.25C350.11 13.775 349.855 14.27 349.485 14.71C349.125 15.15 348.67 15.495 348.12 15.745C347.57 15.995 346.955 16.12 346.275 16.12C345.455 16.12 344.725 15.945 344.085 15.595C343.445 15.245 342.945 14.745 342.585 14.095C342.225 13.445 342.045 12.685 342.045 11.815C342.045 10.945 342.22 10.185 342.57 9.535C342.93 8.885 343.43 8.385 344.07 8.035C344.71 7.685 345.445 7.51 346.275 7.51C347.085 7.51 347.805 7.68 348.435 8.02C349.065 8.36 349.555 8.845 349.905 9.475C350.265 10.105 350.445 10.84 350.445 11.68ZM347.82 11.005C347.82 10.565 347.67 10.215 347.37 9.955C347.07 9.695 346.695 9.565 346.245 9.565C345.815 9.565 345.45 9.69 345.15 9.94C344.86 10.19 344.68 10.545 344.61 11.005H347.82ZM354.363 9.025C354.663 8.565 355.038 8.205 355.488 7.945C355.938 7.675 356.438 7.54 356.988 7.54V10.255H356.283C355.643 10.255 355.163 10.395 354.843 10.675C354.523 10.945 354.363 11.425 354.363 12.115V16H351.798V7.63H354.363V9.025ZM366.104 11.68C366.104 11.92 366.089 12.17 366.059 12.43H360.254C360.294 12.95 360.459 13.35 360.749 13.63C361.049 13.9 361.414 14.035 361.844 14.035C362.484 14.035 362.929 13.765 363.179 13.225H365.909C365.769 13.775 365.514 14.27 365.144 14.71C364.784 15.15 364.329 15.495 363.779 15.745C363.229 15.995 362.614 16.12 361.934 16.12C361.114 16.12 360.384 15.945 359.744 15.595C359.104 15.245 358.604 14.745 358.244 14.095C357.884 13.445 357.704 12.685 357.704 11.815C357.704 10.945 357.879 10.185 358.229 9.535C358.589 8.885 359.089 8.385 359.729 8.035C360.369 7.685 361.104 7.51 361.934 7.51C362.744 7.51 363.464 7.68 364.094 8.02C364.724 8.36 365.214 8.845 365.564 9.475C365.924 10.105 366.104 10.84 366.104 11.68ZM363.479 11.005C363.479 10.565 363.329 10.215 363.029 9.955C362.729 9.695 362.354 9.565 361.904 9.565C361.474 9.565 361.109 9.69 360.809 9.94C360.519 10.19 360.339 10.545 360.269 11.005H363.479ZM370.862 16.12C370.132 16.12 369.482 15.995 368.912 15.745C368.342 15.495 367.892 15.155 367.562 14.725C367.232 14.285 367.047 13.795 367.007 13.255H369.542C369.572 13.545 369.707 13.78 369.947 13.96C370.187 14.14 370.482 14.23 370.832 14.23C371.152 14.23 371.397 14.17 371.567 14.05C371.747 13.92 371.837 13.755 371.837 13.555C371.837 13.315 371.712 13.14 371.462 13.03C371.212 12.91 370.807 12.78 370.247 12.64C369.647 12.5 369.147 12.355 368.747 12.205C368.347 12.045 368.002 11.8 367.712 11.47C367.422 11.13 367.277 10.675 367.277 10.105C367.277 9.625 367.407 9.19 367.667 8.8C367.937 8.4 368.327 8.085 368.837 7.855C369.357 7.625 369.972 7.51 370.682 7.51C371.732 7.51 372.557 7.77 373.157 8.29C373.767 8.81 374.117 9.5 374.207 10.36H371.837C371.797 10.07 371.667 9.84 371.447 9.67C371.237 9.5 370.957 9.415 370.607 9.415C370.307 9.415 370.077 9.475 369.917 9.595C369.757 9.705 369.677 9.86 369.677 10.06C369.677 10.3 369.802 10.48 370.052 10.6C370.312 10.72 370.712 10.84 371.252 10.96C371.872 11.12 372.377 11.28 372.767 11.44C373.157 11.59 373.497 11.84 373.787 12.19C374.087 12.53 374.242 12.99 374.252 13.57C374.252 14.06 374.112 14.5 373.832 14.89C373.562 15.27 373.167 15.57 372.647 15.79C372.137 16.01 371.542 16.12 370.862 16.12ZM380.487 13.825V16H379.182C378.252 16 377.527 15.775 377.007 15.325C376.487 14.865 376.227 14.12 376.227 13.09V9.76H375.207V7.63H376.227V5.59H378.792V7.63H380.472V9.76H378.792V13.12C378.792 13.37 378.852 13.55 378.972 13.66C379.092 13.77 379.292 13.825 379.572 13.825H380.487ZM385.32 16.12C384.59 16.12 383.94 15.995 383.37 15.745C382.8 15.495 382.35 15.155 382.02 14.725C381.69 14.285 381.505 13.795 381.465 13.255H384C384.03 13.545 384.165 13.78 384.405 13.96C384.645 14.14 384.94 14.23 385.29 14.23C385.61 14.23 385.855 14.17 386.025 14.05C386.205 13.92 386.295 13.755 386.295 13.555C386.295 13.315 386.17 13.14 385.92 13.03C385.67 12.91 385.265 12.78 384.705 12.64C384.105 12.5 383.605 12.355 383.205 12.205C382.805 12.045 382.46 11.8 382.17 11.47C381.88 11.13 381.735 10.675 381.735 10.105C381.735 9.625 381.865 9.19 382.125 8.8C382.395 8.4 382.785 8.085 383.295 7.855C383.815 7.625 384.43 7.51 385.14 7.51C386.19 7.51 387.015 7.77 387.615 8.29C388.225 8.81 388.575 9.5 388.665 10.36H386.295C386.255 10.07 386.125 9.84 385.905 9.67C385.695 9.5 385.415 9.415 385.065 9.415C384.765 9.415 384.535 9.475 384.375 9.595C384.215 9.705 384.135 9.86 384.135 10.06C384.135 10.3 384.26 10.48 384.51 10.6C384.77 10.72 385.17 10.84 385.71 10.96C386.33 11.12 386.835 11.28 387.225 11.44C387.615 11.59 387.955 11.84 388.245 12.19C388.545 12.53 388.7 12.99 388.71 13.57C388.71 14.06 388.57 14.5 388.29 14.89C388.02 15.27 387.625 15.57 387.105 15.79C386.595 16.01 386 16.12 385.32 16.12Z" fill="black"/>
<defs>
<clipPath id="clip0_31_4657">
<rect width="347.28" height="350.92" fill="white" transform="translate(36 6)"/>
</clipPath>
</defs>
</svg>
