<svg width="99" height="99" viewBox="0 0 99 99" fill="none" xmlns="http://www.w3.org/2000/svg">
<g clip-path="url(#clip0_31_4570)">
<path fill-rule="evenodd" clip-rule="evenodd" d="M12.491 17.441L17.441 12.491L23.7832 15.3141C24.1506 15.4688 24.576 15.4301 24.9047 15.2174C28.8105 12.607 33.1225 10.8088 37.7244 9.9C38.1111 9.82266 38.4398 9.55195 38.5752 9.18457L41.0695 2.70703H48.0691L50.5635 9.16524C50.6988 9.53262 51.0275 9.80332 51.4143 9.88066C56.0162 10.7895 60.3475 12.5684 64.234 15.198C64.5627 15.4301 64.9881 15.4494 65.3555 15.2947L71.6977 12.491L76.6477 17.441L73.8246 23.7832C73.6699 24.1506 73.7086 24.576 73.9213 24.9047C76.5316 28.8105 78.3299 33.1225 79.2387 37.7244C79.316 38.1111 79.5867 38.4398 79.9541 38.5752L86.4123 41.0695V43.4092H68.7006L68.6813 43.0418C67.8885 30.3381 57.2924 20.3994 44.5693 20.3994C31.2469 20.3994 20.3994 31.2469 20.3994 44.5693C20.3994 57.5631 30.7248 68.2559 43.6992 68.7199L44.0666 68.7393V86.4316H41.0695L38.5752 79.9734C38.4398 79.6061 38.1111 79.3354 37.7244 79.258C33.1225 78.3492 28.7912 76.551 24.9047 73.9406C24.576 73.7279 24.1506 73.6893 23.7832 73.8439L17.441 76.667L12.491 71.717L15.3141 65.3555C15.4688 64.9881 15.4301 64.5627 15.2174 64.234C12.607 60.3475 10.8088 56.0162 9.9 51.4143C9.82266 51.0275 9.55195 50.6988 9.18457 50.5635L2.70703 48.0691V41.0695L9.16524 38.5752C9.53262 38.4398 9.80332 38.1111 9.88066 37.7244C10.7895 33.1225 12.5877 28.7912 15.198 24.9047C15.4301 24.576 15.4494 24.1506 15.2947 23.7832L12.491 17.441ZM62.3197 55.0107C60.8309 55.0107 59.6127 56.2289 59.6127 57.7178C59.6127 59.2066 60.8309 60.4248 62.3197 60.4248C63.8086 60.4248 65.0268 59.2066 65.0268 57.7178C65.0268 56.2096 63.8086 55.0107 62.3197 55.0107ZM78.0592 68.3139C76.5703 68.3139 75.3522 69.532 75.3522 71.0209C75.3522 72.5098 76.5703 73.7279 78.0592 73.7279C79.5481 73.7279 80.7662 72.5098 80.7662 71.0209C80.7662 69.5127 79.5674 68.3139 78.0592 68.3139ZM66.9024 84.5754C66.9024 83.0865 65.6842 81.8684 64.1953 81.8684C62.7065 81.8684 61.4883 83.0865 61.4883 84.5754C61.4883 86.0643 62.7065 87.2824 64.1953 87.2824C65.6842 87.2824 66.9024 86.0643 66.9024 84.5754Z" fill="#1A9DAE"/>
<path fill-rule="evenodd" clip-rule="evenodd" d="M64.1953 86.8957C62.9191 86.8957 61.875 85.8516 61.875 84.5754C61.875 83.2992 62.9191 82.2551 64.1953 82.2551C65.4715 82.2551 66.5156 83.2992 66.5156 84.5754C66.5156 85.8516 65.4715 86.8957 64.1953 86.8957ZM88.9066 83.0285H69.3773C68.7199 80.8049 66.6316 79.1613 64.1953 79.1613C61.7396 79.1613 59.6707 80.8049 59.0133 83.0285H53.7926C52.9418 83.0285 52.2457 83.7246 52.2457 84.5754C52.2457 85.4262 52.9418 86.1223 53.7926 86.1223H59.0133C59.69 88.3652 61.759 89.9895 64.1953 89.9895C66.651 89.9895 68.7199 88.3652 69.3773 86.1223H88.8873C89.7381 86.1223 90.4342 85.4262 90.4342 84.5754C90.4342 83.7246 89.7574 83.0285 88.9066 83.0285ZM62.3197 60.0381C61.0436 60.0381 59.9994 58.9939 59.9994 57.7178C59.9994 56.4416 61.0436 55.3975 62.3197 55.3975C63.5959 55.3975 64.64 56.4416 64.64 57.7178C64.64 58.9939 63.5959 60.0381 62.3197 60.0381ZM88.9066 56.1709H67.5018C66.825 53.9279 64.7561 52.3037 62.3197 52.3037C59.8641 52.3037 57.7951 53.9473 57.1377 56.1709H53.7926C52.9418 56.1709 52.2457 56.867 52.2457 57.7178C52.2457 58.5686 52.9418 59.2646 53.7926 59.2646H57.1377C57.7951 61.5076 59.8834 63.1318 62.3197 63.1318C64.7754 63.1318 66.8443 61.5076 67.5018 59.2646H88.8873C89.7381 59.2646 90.4342 58.5686 90.4342 57.7178C90.4342 56.8477 89.7574 56.1709 88.9066 56.1709ZM78.0592 73.3412C76.783 73.3412 75.7389 72.2971 75.7389 71.0209C75.7389 69.7447 76.783 68.7006 78.0592 68.7006C79.3354 68.7006 80.3795 69.7447 80.3795 71.0209C80.3795 72.2971 79.3547 73.3412 78.0592 73.3412ZM88.9066 69.474H83.2605C82.5838 67.2311 80.5148 65.6068 78.0785 65.6068C75.6228 65.6068 73.5539 67.2311 72.8965 69.474H53.8119C52.9611 69.474 52.265 70.1701 52.265 71.0209C52.265 71.8717 52.9611 72.5678 53.8119 72.5678H72.8965C73.5732 74.7914 75.6422 76.435 78.0785 76.435C80.5342 76.435 82.6031 74.7914 83.2605 72.5678H88.9066C89.7574 72.5678 90.4535 71.8717 90.4535 71.0209C90.4342 70.1508 89.7574 69.474 88.9066 69.474ZM95.9062 89.8541V52.1684C95.9062 48.8232 93.1992 46.1162 89.8541 46.1162H52.8451C49.5 46.1162 46.793 48.8426 46.793 52.1684V89.8348C46.793 93.1799 49.5193 95.8869 52.8451 95.8869H89.8541C93.1799 95.9062 95.9062 93.1992 95.9062 89.8541ZM43.6799 52.1684C43.6799 47.1217 47.7791 43.0225 52.8258 43.0225H65.9549C65.1621 31.9043 55.8615 23.1064 44.55 23.1064C32.7164 23.1064 23.0871 32.7357 23.0871 44.5693C23.0871 56.1129 32.233 65.5488 43.6605 66.0129V52.1684H43.6799ZM41.3402 86.0449H43.6992V69.1066C30.5508 68.6426 20.0127 57.8145 20.0127 44.5693C20.0127 31.0342 31.0342 20.0127 44.5693 20.0127C57.5824 20.0127 68.2752 30.2027 69.068 43.0225H86.0449V41.3402L79.8381 38.9426C79.3354 38.7492 78.968 38.3238 78.8713 37.8018C77.9818 33.2578 76.2029 28.9846 73.6119 25.1174C73.3219 24.6727 73.2639 24.1119 73.4766 23.6285L76.1836 17.5377L71.601 12.9551L65.5102 15.6621C65.0268 15.8748 64.466 15.8361 64.0213 15.5268C60.1541 12.9357 55.9002 11.1568 51.3369 10.2674C50.8148 10.1707 50.3895 9.80332 50.1961 9.30059L47.7984 3.09375H41.3209L38.9232 9.30059C38.7299 9.80332 38.3045 10.1707 37.7824 10.2674C33.2385 11.1568 28.9652 12.9357 25.098 15.5268C24.6533 15.8168 24.0926 15.8748 23.6092 15.6621L17.5377 12.9551L12.9551 17.5377L15.6621 23.6285C15.8748 24.1119 15.8361 24.6727 15.5268 25.1174C12.9357 28.9846 11.1568 33.2578 10.2674 37.8018C10.1707 38.3238 9.80332 38.7492 9.30059 38.9426L3.09375 41.3402V47.8178L9.30059 50.2154C9.80332 50.4088 10.1707 50.8342 10.2674 51.3563C11.1568 55.9002 12.9357 60.1734 15.5268 64.0406C15.8168 64.4854 15.8748 65.0461 15.6621 65.5295L12.9551 71.6203L17.5377 76.1836L23.6285 73.4766C24.1119 73.2639 24.6727 73.3025 25.1174 73.6119C28.9846 76.2029 33.2385 77.9818 37.8018 78.8713C38.3238 78.968 38.7492 79.3354 38.9426 79.8381L41.3402 86.0449ZM89.8541 43.0225H89.1387V40.2768C89.1387 39.6387 88.752 39.0586 88.1525 38.8266L81.733 36.3516C80.7662 31.9816 79.0646 27.8824 76.6477 24.0926L79.4514 17.8084C79.7027 17.2283 79.5867 16.5322 79.1227 16.0875L73.0512 10.016C72.5871 9.57129 71.9104 9.43594 71.3303 9.6873L65.0461 12.491C61.2756 10.074 57.157 8.37246 52.8064 7.40566L50.3121 0.986133C50.0801 0.386719 49.5 0 48.8619 0H40.2574C39.6193 0 39.0393 0.386719 38.8072 0.986133L36.3516 7.40566C31.9816 8.37246 27.8824 10.074 24.1119 12.491L17.8084 9.6873C17.2283 9.43594 16.5322 9.55195 16.0875 10.016L10.016 16.0875C9.57129 16.5322 9.43594 17.2283 9.6873 17.8084L12.491 24.0926C10.074 27.8631 8.37246 31.9816 7.40566 36.3322L0.986133 38.8266C0.386719 39.0586 0 39.6387 0 40.2768V48.8813C0 49.5193 0.386719 50.0994 0.986133 50.3314L7.40566 52.7871C8.37246 57.157 10.074 61.2562 12.491 65.0461L9.6873 71.3303C9.43594 71.9104 9.55195 72.6064 10.016 73.0512L16.0875 79.1227C16.5322 79.5674 17.2283 79.7027 17.8084 79.4514L24.0926 76.6477C27.8631 79.0646 31.9816 80.7662 36.3322 81.733L38.8072 88.1525C39.0393 88.752 39.6193 89.1387 40.2574 89.1387H43.6799V89.8541C43.6799 94.9008 47.7791 99 52.8258 99H89.8348C94.8814 99 98.9807 94.9008 98.9807 89.8541V52.1684C99 47.1217 94.9008 43.0225 89.8541 43.0225Z" fill="#0B1535"/>
</g>
<defs>
<clipPath id="clip0_31_4570">
<rect width="99" height="99" fill="white"/>
</clipPath>
</defs>
</svg>
