<svg width="99" height="97" viewBox="0 0 99 97" fill="none" xmlns="http://www.w3.org/2000/svg">
<path d="M72.05 65.997C72.8062 65.997 73.3906 65.3782 73.3906 64.6563V31.5188C73.3906 30.7626 72.7718 30.1782 72.05 30.1782H46.5093V65.997H72.05Z" fill="#1A9DAE"/>
<path d="M46.5093 60.0156V36.125H62.1843C62.9406 36.125 63.525 36.7438 63.525 37.4656V58.675C63.525 59.4313 62.9062 60.0156 62.1843 60.0156H46.5093Z" fill="#1A9DAE"/>
<path d="M66.1031 36.125H60.3281C61.0843 36.125 61.6687 36.7438 61.6687 37.4656V58.675C61.6687 59.4313 61.0499 60.0156 60.3281 60.0156H66.1031C66.8593 60.0156 67.4437 59.3969 67.4437 58.675V37.4656C67.4437 36.7438 66.8593 36.125 66.1031 36.125Z" fill="#1A9DAE"/>
<path d="M39.325 0.787598C38.3281 0.787598 37.3656 0.925098 36.4375 1.2001C36.1968 1.26885 35.9562 1.3376 35.75 1.44072C33.5156 2.26572 31.6937 3.84697 30.525 5.8751C29.0812 4.94697 27.3281 4.43135 25.5062 4.43135C20.2812 4.43135 16.0875 8.6251 16.0875 13.8157C16.0875 14.6407 16.1906 15.4657 16.3969 16.2563C12.3406 17.872 9.4531 21.8595 9.4531 26.5001C9.4531 27.2907 9.52185 28.047 9.69373 28.8032C6.53123 29.422 4.15935 32.2064 4.15935 35.5407C4.15935 37.2595 4.7781 38.8064 5.80935 40.0095C3.36873 42.0032 1.78748 45.0626 1.78748 48.5345C1.78748 53.1063 4.57185 56.9907 8.4906 58.6751C7.32185 60.222 6.66873 62.1814 6.66873 64.2439C6.66873 67.8876 8.73123 71.0157 11.7562 72.597C11.4125 73.8001 11.2062 75.1063 11.2062 76.447C11.2062 83.9751 17.2906 90.0595 24.8187 90.0595C25.575 90.0595 26.2969 89.9907 26.9844 89.8876C28.6687 92.4657 31.2812 94.3563 34.375 95.1126C35.3031 95.3188 36.2656 95.4563 37.2625 95.4563C44.0344 95.4563 49.5344 89.9563 49.5344 83.1845V10.997C49.5 5.35947 44.9625 0.787598 39.325 0.787598Z" fill="white"/>
<path d="M76.3812 26.9469C78.0139 26.9469 79.3375 25.6234 79.3375 23.9907C79.3375 22.358 78.0139 21.0344 76.3812 21.0344C74.7485 21.0344 73.425 22.358 73.425 23.9907C73.425 25.6234 74.7485 26.9469 76.3812 26.9469Z" fill="#1A9DAE"/>
<path d="M94.2562 44.8908C95.8889 44.8908 97.2125 43.5672 97.2125 41.9345C97.2125 40.3018 95.8889 38.9783 94.2562 38.9783C92.6235 38.9783 91.3 40.3018 91.3 41.9345C91.3 43.5672 92.6235 44.8908 94.2562 44.8908Z" fill="#1A9DAE"/>
<path d="M91.2656 59.9813C92.8983 59.9813 94.2218 58.6578 94.2218 57.0251C94.2218 55.3924 92.8983 54.0688 91.2656 54.0688C89.6329 54.0688 88.3093 55.3924 88.3093 57.0251C88.3093 58.6578 89.6329 59.9813 91.2656 59.9813Z" fill="#1A9DAE"/>
<path d="M82.3281 71.9096C83.9608 71.9096 85.2843 70.586 85.2843 68.9533C85.2843 67.3206 83.9608 65.9971 82.3281 65.9971C80.6954 65.9971 79.3718 67.3206 79.3718 68.9533C79.3718 70.586 80.6954 71.9096 82.3281 71.9096Z" fill="#1A9DAE"/>
<path d="M67.375 12.2689C69.0076 12.2689 70.3312 10.9454 70.3312 9.3127C70.3312 7.68 69.0076 6.35645 67.375 6.35645C65.7423 6.35645 64.4187 7.68 64.4187 9.3127C64.4187 10.9454 65.7423 12.2689 67.375 12.2689Z" fill="#1A9DAE"/>
<path d="M61.4281 92.775C63.0608 92.775 64.3844 91.4515 64.3844 89.8188C64.3844 88.1861 63.0608 86.8625 61.4281 86.8625C59.7954 86.8625 58.4719 88.1861 58.4719 89.8188C58.4719 91.4515 59.7954 92.775 61.4281 92.775Z" fill="#1A9DAE"/>
<path d="M73.3562 86.8283C74.9889 86.8283 76.3125 85.5047 76.3125 83.872C76.3125 82.2393 74.9889 80.9158 73.3562 80.9158C71.7235 80.9158 70.4 82.2393 70.4 83.872C70.4 85.5047 71.7235 86.8283 73.3562 86.8283Z" fill="#1A9DAE"/>
<path d="M11.7562 80.3658C11.3781 79.1283 11.1719 77.8221 11.1719 76.4471C11.1719 75.1064 11.3781 73.8346 11.7219 72.5971C8.69686 71.0158 6.63436 67.8877 6.63436 64.2439C6.63436 62.1471 7.32186 60.2221 8.45624 58.6752C4.50311 56.9908 1.75311 53.0721 1.75311 48.5346C1.75311 45.0971 3.33436 42.0033 5.80936 40.0096C4.77811 38.8064 4.15936 37.2596 4.15936 35.5408C4.15936 32.2064 6.53124 29.4221 9.69374 28.8033C9.52186 28.0471 9.45311 27.2908 9.45311 26.5002C9.45311 21.8596 12.3062 17.9064 16.3625 16.2564C16.1562 15.4658 16.0531 14.6752 16.0531 13.8158C16.0875 8.62519 20.2812 4.43145 25.4719 4.43145C27.3281 4.43145 29.0469 4.98145 30.4906 5.8752C31.7625 3.6752 33.8594 1.95645 36.3687 1.2002" stroke="#0B1535" stroke-width="2.38" stroke-miterlimit="10.0023" stroke-linecap="round" stroke-linejoin="round"/>
<path d="M42.6593 1.33765C46.6468 2.71265 49.5 6.4939 49.5 10.9626V83.1501C49.5 89.922 44 95.422 37.2281 95.422C32.9312 95.422 29.15 93.222 26.95 89.8533C26.2281 89.9564 25.5062 90.0251 24.7843 90.0251C20.9687 90.0251 17.4968 88.4439 15.0562 85.9345" stroke="#0B1535" stroke-width="2.38" stroke-miterlimit="10.0023" stroke-linecap="round" stroke-linejoin="round"/>
<path d="M16.0531 13.8501C16.0531 19.0407 20.2469 23.2345 25.4375 23.2345" stroke="#0B1535" stroke-width="2.38" stroke-miterlimit="10.0023" stroke-linecap="round" stroke-linejoin="round"/>
<path d="M24.7843 62.8C17.2906 62.8 11.1718 68.8844 11.1718 76.4125" stroke="#0B1535" stroke-width="2.38" stroke-miterlimit="10.0023" stroke-linecap="round" stroke-linejoin="round"/>
<path d="M9.96871 37.8782C5.25934 39.1157 1.82184 43.4125 1.82184 48.5C1.82184 54.5844 6.73746 59.5 12.8218 59.5" stroke="#0B1535" stroke-width="2.38" stroke-miterlimit="10.0023" stroke-linecap="round" stroke-linejoin="round"/>
<path d="M33.3781 29.3875C37.8125 28.1844 40.4594 23.5782 39.2219 19.1438" stroke="#0B1535" stroke-width="2.38" stroke-miterlimit="10.0023" stroke-linecap="round" stroke-linejoin="round"/>
<path d="M31.6249 76.3439C34.7874 76.0689 37.0906 73.2502 36.8156 70.1221" stroke="#0B1535" stroke-width="2.38" stroke-miterlimit="10.0023" stroke-linecap="round" stroke-linejoin="round"/>
<path d="M25.6437 49.7719C25.6437 46.8844 23.2718 44.5469 20.4187 44.5469" stroke="#0B1535" stroke-width="2.38" stroke-miterlimit="10.0023" stroke-linecap="round" stroke-linejoin="round"/>
<path d="M24.9562 83.1501C24.9562 89.922 30.4562 95.3876 37.1937 95.3876" stroke="#0B1535" stroke-width="2.38" stroke-miterlimit="10.0023" stroke-linecap="round" stroke-linejoin="round"/>
<path d="M49.5 55.0658H43.1062C40.0468 55.0658 37.5718 52.5908 37.5718 49.5314V48.9814" stroke="#0B1535" stroke-width="2.38" stroke-miterlimit="10.0023" stroke-linecap="round" stroke-linejoin="round"/>
<path d="M43.1062 55.0659H39.0156C36.575 55.0659 34.6156 57.0253 34.6156 59.4659" stroke="#0B1535" stroke-width="2.38" stroke-miterlimit="10.0023" stroke-linecap="round" stroke-linejoin="round"/>
<path d="M49.5 65.997H72.0156C72.7719 65.997 73.3562 65.3782 73.3562 64.6563V31.5188C73.3562 30.7626 72.7375 30.1782 72.0156 30.1782H49.5" stroke="#0B1535" stroke-width="2.38" stroke-miterlimit="10.0023" stroke-linecap="round" stroke-linejoin="round"/>
<path d="M55.4813 29.9719V24.2656" stroke="#0B1535" stroke-width="2.38" stroke-miterlimit="10.0023" stroke-linecap="round" stroke-linejoin="round"/>
<path d="M61.4625 29.972V18.2501H67.4438V12.3032" stroke="#0B1535" stroke-width="2.38" stroke-miterlimit="10.0023" stroke-linecap="round" stroke-linejoin="round"/>
<path d="M67.4094 29.9721V24.0596H73.3562" stroke="#0B1535" stroke-width="2.38" stroke-miterlimit="10.0023" stroke-linecap="round" stroke-linejoin="round"/>
<path d="M73.425 35.9531H79.3375" stroke="#0B1535" stroke-width="2.38" stroke-miterlimit="10.0023" stroke-linecap="round" stroke-linejoin="round"/>
<path d="M73.425 41.9346H91.2656" stroke="#0B1535" stroke-width="2.38" stroke-miterlimit="10.0023" stroke-linecap="round" stroke-linejoin="round"/>
<path d="M73.425 47.8813H82.2937L88.3094 54.0001" stroke="#0B1535" stroke-width="2.38" stroke-miterlimit="10.0023" stroke-linecap="round" stroke-linejoin="round"/>
<path d="M73.425 53.8625H79.3375" stroke="#0B1535" stroke-width="2.38" stroke-miterlimit="10.0023" stroke-linecap="round" stroke-linejoin="round"/>
<path d="M73.425 59.8096H82.3281V65.9627" stroke="#0B1535" stroke-width="2.38" stroke-miterlimit="10.0023" stroke-linecap="round" stroke-linejoin="round"/>
<path d="M55.4813 66.1689V77.8908H61.4281V86.8627" stroke="#0B1535" stroke-width="2.38" stroke-miterlimit="10.0023" stroke-linecap="round" stroke-linejoin="round"/>
<path d="M61.4625 72.1158V66.1689" stroke="#0B1535" stroke-width="2.38" stroke-miterlimit="10.0023" stroke-linecap="round" stroke-linejoin="round"/>
<path d="M67.4094 66.1689V71.9096H73.3562V80.8814" stroke="#0B1535" stroke-width="2.38" stroke-miterlimit="10.0023" stroke-linecap="round" stroke-linejoin="round"/>
<path d="M67.4437 47.9158V58.6751C67.4437 59.4314 66.825 60.0158 66.1031 60.0158H49.5" stroke="#0B1535" stroke-width="2.38" stroke-miterlimit="10.0023" stroke-linecap="round" stroke-linejoin="round"/>
<path d="M49.5 36.125H66.1031C66.8594 36.125 67.4437 36.7438 67.4437 37.4656V41.625" stroke="#0B1535" stroke-width="2.38" stroke-miterlimit="10.0023" stroke-linecap="round" stroke-linejoin="round"/>
<path d="M76.3812 26.9472C78.0139 26.9472 79.3375 25.6236 79.3375 23.9909C79.3375 22.3582 78.0139 21.0347 76.3812 21.0347C74.7485 21.0347 73.425 22.3582 73.425 23.9909C73.425 25.6236 74.7485 26.9472 76.3812 26.9472Z" stroke="#0B1535" stroke-width="2.38" stroke-miterlimit="10.0023" stroke-linecap="round" stroke-linejoin="round"/>
<path d="M94.2562 44.8908C95.8889 44.8908 97.2125 43.5672 97.2125 41.9345C97.2125 40.3018 95.8889 38.9783 94.2562 38.9783C92.6235 38.9783 91.3 40.3018 91.3 41.9345C91.3 43.5672 92.6235 44.8908 94.2562 44.8908Z" stroke="#0B1535" stroke-width="2.38" stroke-miterlimit="10.0023" stroke-linecap="round" stroke-linejoin="round"/>
<path d="M91.2656 59.9813C92.8983 59.9813 94.2218 58.6578 94.2218 57.0251C94.2218 55.3924 92.8983 54.0688 91.2656 54.0688C89.6329 54.0688 88.3093 55.3924 88.3093 57.0251C88.3093 58.6578 89.6329 59.9813 91.2656 59.9813Z" stroke="#0B1535" stroke-width="2.38" stroke-miterlimit="10.0023" stroke-linecap="round" stroke-linejoin="round"/>
<path d="M82.3281 71.9096C83.9608 71.9096 85.2843 70.586 85.2843 68.9533C85.2843 67.3206 83.9608 65.9971 82.3281 65.9971C80.6954 65.9971 79.3718 67.3206 79.3718 68.9533C79.3718 70.586 80.6954 71.9096 82.3281 71.9096Z" stroke="#0B1535" stroke-width="2.38" stroke-miterlimit="10.0023" stroke-linecap="round" stroke-linejoin="round"/>
<path d="M67.375 12.2689C69.0077 12.2689 70.3313 10.9454 70.3313 9.3127C70.3313 7.68 69.0077 6.35645 67.375 6.35645C65.7423 6.35645 64.4188 7.68 64.4188 9.3127C64.4188 10.9454 65.7423 12.2689 67.375 12.2689Z" stroke="#0B1535" stroke-width="2.38" stroke-miterlimit="10.0023" stroke-linecap="round" stroke-linejoin="round"/>
<path d="M61.4281 92.7753C63.0608 92.7753 64.3844 91.4517 64.3844 89.819C64.3844 88.1864 63.0608 86.8628 61.4281 86.8628C59.7954 86.8628 58.4719 88.1864 58.4719 89.819C58.4719 91.4517 59.7954 92.7753 61.4281 92.7753Z" stroke="#0B1535" stroke-width="2.38" stroke-miterlimit="10.0023" stroke-linecap="round" stroke-linejoin="round"/>
<path d="M73.3562 86.8283C74.9889 86.8283 76.3125 85.5047 76.3125 83.872C76.3125 82.2393 74.9889 80.9158 73.3562 80.9158C71.7235 80.9158 70.4 82.2393 70.4 83.872C70.4 85.5047 71.7235 86.8283 73.3562 86.8283Z" stroke="#0B1535" stroke-width="2.38" stroke-miterlimit="10.0023" stroke-linecap="round" stroke-linejoin="round"/>
</svg>
