<svg width="99" height="99" viewBox="0 0 99 99" fill="none" xmlns="http://www.w3.org/2000/svg">
<path fill-rule="evenodd" clip-rule="evenodd" d="M13.9562 7.18428C13.0625 7.18428 12.375 7.90615 12.375 8.76553C12.375 9.65928 13.0969 10.3468 13.9562 10.3468C14.85 10.3468 15.5375 9.6249 15.5375 8.76553C15.5375 7.90615 14.8156 7.18428 13.9562 7.18428ZM23.0312 7.18428C22.1719 7.18428 21.45 7.90615 21.45 8.76553C21.45 9.65928 22.1719 10.3468 23.0312 10.3468C23.925 10.3468 24.6125 9.6249 24.6125 8.76553C24.6469 7.90615 23.925 7.18428 23.0312 7.18428ZM32.1406 7.18428C31.2469 7.18428 30.5594 7.90615 30.5594 8.76553C30.5594 9.65928 31.2812 10.3468 32.1406 10.3468C33.0344 10.3468 33.7219 9.6249 33.7219 8.76553C33.7219 7.90615 33 7.18428 32.1406 7.18428ZM46.5437 54.2437C39.325 54.2437 33.4469 60.1218 33.4469 67.3405C33.4469 74.5593 39.325 80.4374 46.5437 80.4374C53.7625 80.4374 59.6406 74.5593 59.6406 67.3405C59.6062 60.1218 53.7281 54.2437 46.5437 54.2437ZM15.0562 36.6093C15.0562 30.4218 19.6625 25.1624 25.7812 24.3374L26.6406 24.2343V36.6093C26.6406 36.7468 26.675 36.8843 26.7437 36.9874L33.0344 47.678L32.2094 48.0218C30.6969 48.6749 29.0469 48.9843 27.3969 48.9843C20.5906 49.0187 15.0562 43.4499 15.0562 36.6093ZM3.71249 15.228V5.60303C3.71249 3.78115 5.19062 2.3374 6.97812 2.3374H91.9875C93.8094 2.3374 95.2531 3.81553 95.2531 5.60303V15.2624H3.71249V15.228ZM62.9062 67.3405C62.9062 76.3811 55.55 83.703 46.5437 83.703C37.5031 83.703 30.1812 76.3468 30.1812 67.3405C30.1812 58.2999 37.5375 50.978 46.5437 50.978C55.55 50.9437 62.9062 58.2999 62.9062 67.3405ZM62.6312 48.5374V59.503L62.7 59.6749C63.3187 60.9468 63.7656 62.253 64.0406 63.628L64.1781 64.2468H65.6219V48.5374H62.6312ZM72.3594 43.6562H75.35V64.2124H72.3594V43.6562ZM82.0875 38.8093H85.0781V64.2124H82.0875V38.8093ZM77.7906 92.3999L67.2375 82.1562L62.7344 86.7624L72.9437 96.6624H73.5969L77.7906 92.3999Z" fill="#1A9DAE"/>
<path fill-rule="evenodd" clip-rule="evenodd" d="M46.5437 78.1C40.5969 78.1 35.7844 73.2875 35.7844 67.3406C35.7844 61.3937 40.6312 56.5813 46.5437 56.5813C52.4562 56.5813 57.3031 61.3937 57.3031 67.3406C57.3031 73.2531 52.4562 78.1 46.5437 78.1ZM46.5437 53.4875C38.9125 53.4875 32.6906 59.7094 32.6906 67.3406C32.6906 74.9719 38.9125 81.1937 46.5437 81.1937C54.175 81.1937 60.3969 74.9719 60.3969 67.3406C60.3969 59.675 54.175 53.4875 46.5437 53.4875ZM69.2312 31.9688C69.2312 32.8281 68.5437 33.5156 67.6844 33.5156H52.5938C51.7344 33.5156 51.0469 32.8281 51.0469 32.0031C51.0469 31.1437 51.7344 30.4562 52.5594 30.4562H52.5938H67.6844C68.5437 30.4219 69.2312 31.1094 69.2312 31.9688ZM51.0469 25.4375C51.0469 24.5781 51.7344 23.8906 52.5938 23.8906H82.8094C83.6687 23.8906 84.3562 24.5781 84.3562 25.4375C84.3562 26.2969 83.6687 26.9844 82.8094 26.9844H52.5938C51.7344 26.9844 51.0469 26.2969 51.0469 25.4375ZM84.3219 63.4563H82.8781V39.6H84.3219V63.4563ZM85.8688 36.5062H81.3313C80.4719 36.5062 79.7844 37.1937 79.7844 38.0531V65.0031C79.7844 65.8625 80.4719 66.55 81.3313 66.55H85.8688C86.7281 66.55 87.4156 65.8625 87.4156 65.0031V38.0531C87.4156 37.1937 86.6937 36.5062 85.8688 36.5062ZM74.5594 63.4563H73.1156V44.4469H74.5594V63.4563ZM76.1062 41.3531H71.5687C70.7094 41.3531 70.0219 42.0406 70.0219 42.9V65.0031C70.0219 65.8625 70.7094 66.55 71.5687 66.55H76.1062C76.9656 66.55 77.6531 65.8625 77.6531 65.0031V42.9C77.6531 42.0406 76.9656 41.3531 76.1062 41.3531ZM20.8656 64.8656C20.8656 65.725 20.1781 66.4125 19.3188 66.4125H14.2656C13.4062 66.4125 12.7188 65.725 12.7188 64.8656C12.7188 64.0062 13.4062 63.3187 14.2656 63.3187H19.2844C20.1781 63.3187 20.8656 64.0062 20.8656 64.8656ZM20.8656 58.0938C20.8656 58.9531 20.1781 59.6406 19.3188 59.6406H14.2656C13.4062 59.6406 12.7188 58.9531 12.7188 58.0938C12.7188 57.2344 13.4062 56.5469 14.2656 56.5469H19.2844C20.1781 56.5469 20.8656 57.2687 20.8656 58.0938ZM34.5812 45.7531L30.1125 38.1562H38.9125C38.5344 41.25 36.9188 43.9313 34.5812 45.7531ZM15.8125 36.6094C15.8125 43.0031 21.0375 48.2281 27.4313 48.2281C29.0125 48.2281 30.5594 47.9188 31.9344 47.3344L26.0906 37.4C25.9531 37.1594 25.8844 36.8844 25.8844 36.6094V25.1281C20.2125 25.8844 15.8125 30.7313 15.8125 36.6094ZM38.9469 35.0625H28.9781V25.0938C34.1344 25.8156 38.2594 29.9062 38.9469 35.0625ZM27.4313 21.9312C19.3188 21.9312 12.7188 28.4969 12.7188 36.6094C12.7188 44.7219 19.3188 51.3219 27.4313 51.3219C35.5438 51.3219 42.1437 44.7219 42.1437 36.6094C42.1437 28.4969 35.5438 21.9312 27.4313 21.9312ZM29.7687 8.76562C29.7687 7.45937 30.8344 6.39375 32.1406 6.39375C33.4469 6.39375 34.5125 7.45937 34.5125 8.76562C34.5125 10.0719 33.4469 11.1375 32.1406 11.1375C30.8344 11.1375 29.7687 10.0719 29.7687 8.76562ZM20.6938 8.76562C20.6938 7.45937 21.7594 6.39375 23.0656 6.39375C24.3719 6.39375 25.4375 7.45937 25.4375 8.76562C25.4375 10.0719 24.3719 11.1375 23.0656 11.1375C21.725 11.1375 20.6938 10.0719 20.6938 8.76562ZM11.5844 8.76562C11.5844 7.45937 12.65 6.39375 13.9562 6.39375C15.2625 6.39375 16.3281 7.45937 16.3281 8.76562C16.3281 10.0719 15.2625 11.1375 13.9562 11.1375C12.65 11.1375 11.5844 10.0719 11.5844 8.76562ZM92.0219 74.1469C93.3969 74.1469 94.5312 73.0125 94.5312 71.6375V17.5656H4.46875V71.6375C4.46875 73.0125 5.60312 74.1469 6.97812 74.1469H29.1156C28.2906 72.0156 27.8438 69.7469 27.8438 67.3063C27.8438 66.9969 27.8438 66.6875 27.8781 66.3781H25.2313C24.3719 66.3781 23.6844 65.725 23.65 64.8656C23.65 64.0062 24.3031 63.3188 25.1625 63.2844H25.1969H28.2562C28.5312 62.0125 28.9437 60.8094 29.4594 59.6062H25.2313C24.3719 59.6062 23.6844 58.9187 23.6844 58.0594C23.6844 57.2 24.3719 56.5125 25.2313 56.5125H31.2469C34.65 51.7344 40.2188 48.5719 46.5094 48.5719C51.975 48.5719 56.8906 50.9094 60.2937 54.6562V47.6781C60.2937 46.8187 60.9812 46.1312 61.8406 46.1312H66.3781C67.2375 46.1312 67.925 46.8187 67.925 47.6781V64.9344C67.925 65.7937 67.2375 66.4812 66.3781 66.4812H65.175C65.175 66.7562 65.2094 66.9969 65.2094 67.2719C65.2094 69.6781 64.7625 71.9813 63.9031 74.1125L92.0219 74.1469ZM67.2719 83.2562L76.6906 92.4L73.2875 95.9062H73.2531L63.8344 86.7625L67.2719 83.2562ZM62.9062 83.2906L59.9156 80.3688C60.1906 80.0594 60.4656 79.7844 60.7406 79.475L63.7656 82.4313L62.9062 83.2906ZM64.8313 63.4563C64.4875 62.0125 64.0406 60.6375 63.3875 59.3313V49.3281H64.8313V63.4563ZM30.9375 67.3406C30.9375 75.9344 37.95 82.9469 46.5437 82.9469C55.1375 82.9469 62.15 75.9344 62.15 67.3406C62.15 58.7469 55.1375 51.7344 46.5437 51.7344C37.9156 51.7344 30.9375 58.7125 30.9375 67.3406ZM6.97812 3.09375C5.60312 3.09375 4.46875 4.22812 4.46875 5.60312V14.4719H94.5312V5.60312C94.5312 4.22812 93.3969 3.09375 92.0219 3.09375H6.97812ZM92.0219 0H6.97812C3.88437 0 1.375 2.50937 1.375 5.60312V71.6375C1.375 74.7312 3.88437 77.2406 6.97812 77.2406H30.6969C33.9969 82.5 39.875 86.0062 46.5437 86.0062C50.6687 86.0062 54.4844 84.6656 57.5781 82.3969L60.9812 85.6969C60.8437 86.0406 60.775 86.4187 60.8094 86.7969C60.8094 87.6219 61.1531 88.4125 61.7375 88.9625L71.1562 98.1062C71.7406 98.6562 72.4969 98.9656 73.3219 98.9656C74.1469 98.9656 74.9375 98.6563 75.5563 98.0375L78.9594 94.5312C80.1625 93.2937 80.1281 91.3344 78.8906 90.1313L69.4375 81.0219C68.8531 80.4375 68.0625 80.1281 67.2375 80.1625C66.8594 80.1625 66.4812 80.2313 66.1375 80.3688L62.9062 77.2406H92.0219C95.1156 77.2406 97.625 74.7312 97.625 71.6375V5.60312C97.625 2.50937 95.1156 0 92.0219 0Z" fill="#0B1535"/>
</svg>
